0
SECTION
2
HEADER
9
$INSUNITS
70
4
9
$ACADVER
1
AC1014
9
$HANDSEED
5
FFFF
0
ENDSEC
0
SECTION
2
TABLES
0
TABLE
2
VPORT
5
8
100
AcDbSymbolTable
0
ENDTAB
0
TABLE
2
LTYPE
5
5
100
AcDbSymbolTable
0
LTYPE
5
14
100
AcDbSymbolTableRecord
100
AcDbLinetypeTableRecord
2
BYBLOCK
70
0
0
LTYPE
5
15
100
AcDbSymbolTableRecord
100
AcDbLinetypeTableRecord
2
BYLAYER
70
0
0
ENDTAB
0
TABLE
2
LAYER
5
2
100
AcDbSymbolTable
70
2
0
LAYER
5
50
100
AcDbSymbolTableRecord
100
AcDbLayerTableRecord
2
0
70
0
6
CONTINUOUS
0
ENDTAB
0
TABLE
2
STYLE
5
3
100
AcDbSymbolTable
70
1
0
STYLE
5
11
100
AcDbSymbolTableRecord
100
AcDbTextStyleTableRecord
2
STANDARD
70
0
0
ENDTAB
0
TABLE
2
VIEW
5
6
100
AcDbSymbolTable
70
0
0
ENDTAB
0
TABLE
2
UCS
5
7
100
AcDbSymbolTable
70
0
0
ENDTAB
0
TABLE
2
APPID
5
9
100
AcDbSymbolTable
70
2
0
APPID
5
12
100
AcDbSymbolTableRecord
100
AcDbRegAppTableRecord
2
ACAD
70
0
0
ENDTAB
0
TABLE
2
DIMSTYLE
5
A
100
AcDbSymbolTable
70
1
0
ENDTAB
0
TABLE
2
BLOCK_RECORD
5
1
100
AcDbSymbolTable
70
1
0
BLOCK_RECORD
5
1F
100
AcDbSymbolTableRecord
100
AcDbBlockTableRecord
2
*MODEL_SPACE
0
BLOCK_RECORD
5
1B
100
AcDbSymbolTableRecord
100
AcDbBlockTableRecord
2
*PAPER_SPACE
0
ENDTAB
0
ENDSEC
0
SECTION
2
BLOCKS
0
BLOCK
5
20
100
AcDbEntity
100
AcDbBlockBegin
2
*MODEL_SPACE
0
ENDBLK
5
21
100
AcDbEntity
100
AcDbBlockEnd
0
BLOCK
5
1C
100
AcDbEntity
100
AcDbBlockBegin
2
*PAPER_SPACE
0
ENDBLK
5
1D
100
AcDbEntity
100
AcDbBlockEnd
0
ENDSEC
0
SECTION
2
ENTITIES
0
LWPOLYLINE
5
100
100
AcDbEntity
8
0
100
AcDbPolyline
90
4
70
1
43
0.0
10
-127.87841000000401
20
-114.07900400000075
10
-100.37841000000401
20
-114.07900400000075
10
-100.37841000000401
20
-111.07900400000077
10
-127.87841000000401
20
-111.07900400000077
0
LWPOLYLINE
5
101
100
AcDbEntity
8
0
100
AcDbPolyline
90
4
70
1
43
0.0
10
-133.19999702274799
20
-105.79999763518572
10
-137.79999691992998
20
-105.79999763518572
10
-137.79999691992998
20
-108.49999757483602
10
-133.19999702274799
20
-108.49999757483602
0
LWPOLYLINE
5
102
100
AcDbEntity
8
0
100
AcDbPolyline
90
4
70
1
43
0.0
10
-153.00000227987766
20
-102.00000151991844
10
-153.00000227987766
20
-110.09999753907324
10
-140.99999684840441
20
-110.09999753907324
10
-140.99999684840441
20
-102.00000151991844
0
LWPOLYLINE
5
103
100
AcDbEntity
8
0
100
AcDbPolyline
90
132
70
1
43
0.0
10
-115
20
-94.5
10
-65
20
-94.5
10
-65
20
-97.5
10
-55
20
-97.5
10
-55
20
-94.5
10
-45.000000670552254
20
-94.5
10
-45.000000670552254
20
-97.5
10
-35.000000521540642
20
-97.5
10
-35.000000521540642
20
-94.5
10
-25
20
-94.5
10
-25
20
-97.5
10
-23.000004991889025
20
-97.5
10
-23.000000342726707
20
-99.000001475214958
10
-26.000000387430191
20
-99.000001475214958
10
-26.000000387430191
20
-104.00000154972076
10
-23.000004991889025
20
-104.00000154972076
10
-23.000000342726707
20
-108.00000160932541
10
-26.000000387430191
20
-108.00000160932541
10
-26.000000387430191
20
-113.00000168383121
10
-23.000004991889025
20
-113.00000168383121
10
-23.000004991889025
20
-114.5
10
-25
20
-114.5
10
-25
20
-117.5
10
-35.000000521540642
20
-117.5
10
-35.000000521540642
20
-114.5
10
-45.000000670552254
20
-114.5
10
-45.000000670552254
20
-117.5
10
-55
20
-117.5
10
-55
20
-114.5
10
-65
20
-114.5
10
-65
20
-117.5
10
-75
20
-117.5
10
-75
20
-114.5
10
-85.000001266598701
20
-114.5
10
-85.000001266598701
20
-117.5
10
-135
20
-117.5
10
-135
20
-114.5
10
-145.00000216066837
20
-114.5
10
-145.00000216066837
20
-117.5
10
-155
20
-117.5
10
-155
20
-114.5
10
-165.0000024586916
20
-114.5
10
-165.0000024586916
20
-117.5
10
-175
20
-117.5
10
-175
20
-114.5
10
-185.00000275671482
20
-114.5
10
-185.00000275671482
20
-117.5
10
-195
20
-117.5
10
-195
20
-114.5
10
-205.00000305473804
20
-114.5
10
-205.00000305473804
20
-117.5
10
-215
20
-117.5
10
-215
20
-114.5
10
-225.00000335276127
20
-114.5
10
-225.00000335276127
20
-117.5
10
-235
20
-117.5
10
-235
20
-114.5
10
-245.00000365078449
20
-114.5
10
-245.00000365078449
20
-117.5
10
-255.0000037997961
20
-117.5
10
-255.0000037997961
20
-114.5
10
-265.00000394880772
20
-114.5
10
-265.00000394880772
20
-117.5
10
-275.08831842282336
20
-117.5
10
-275.08831842282336
20
-114.5
10
-285.00000424683094
20
-114.5
10
-285.00000424683094
20
-117.5
10
-295
20
-117.5
10
-295
20
-114.5
10
-305.00000454485416
20
-114.5
10
-305.00000454485416
20
-117.5
10
-315.00000469386578
20
-117.5
10
-315.00000469386578
20
-114.5
10
-325.00000484287739
20
-114.5
10
-325.00000484287739
20
-117.5
10
-335.000004991889
20
-117.5
10
-335.000004991889
20
-114.5
10
-337.000004991889
20
-114.5
10
-337.00000502169132
20
-113.00000168383121
10
-334.00000497698784
20
-113.00000168383121
10
-334.00000497698784
20
-108.00000160932541
10
-337.00000502169132
20
-108.00000160932541
10
-337.00000502169132
20
-104.00000154972076
10
-334.00000497698784
20
-104.00000154972076
10
-334.00000497698784
20
-99.000001475214958
10
-337.00000502169132
20
-99.000001475214958
10
-337.000004991889
20
-97.5
10
-335.000004991889
20
-97.5
10
-335.000004991889
20
-94.5
10
-325.00000484287739
20
-94.5
10
-325.00000484287739
20
-97.5
10
-315.00000469386578
20
-97.5
10
-315.00000469386578
20
-94.5
10
-305.00000454485416
20
-94.5
10
-305.00000454485416
20
-97.5
10
-295
20
-97.5
10
-295
20
-94.5
10
-285.00000424683094
20
-94.5
10
-285.00000424683094
20
-97.5
10
-275.08831842282336
20
-97.5
10
-275.08831842282336
20
-94.5
10
-265.00000394880772
20
-94.5
10
-265.00000394880772
20
-97.5
10
-255.0000037997961
20
-97.5
10
-255.0000037997961
20
-94.5
10
-245.00000365078449
20
-94.5
10
-245.00000365078449
20
-97.5
10
-235
20
-97.5
10
-235
20
-94.5
10
-225.00000335276127
20
-94.5
10
-225.00000335276127
20
-97.5
10
-215
20
-97.5
10
-215
20
-94.5
10
-205.00000305473804
20
-94.5
10
-205.00000305473804
20
-97.5
10
-195
20
-97.5
10
-195
20
-94.5
10
-185.00000275671482
20
-94.5
10
-185.00000275671482
20
-97.5
10
-175
20
-97.5
10
-175
20
-94.5
10
-165.0000024586916
20
-94.5
10
-165.0000024586916
20
-97.5
10
-155
20
-97.5
10
-155
20
-94.5
10
-145.00000216066837
20
-94.5
10
-145.00000216066837
20
-97.5
10
-135
20
-97.5
10
-135
20
-94.5
10
-125.00000186264515
20
-94.5
10
-125.00000186264515
20
-97.5
10
-115
20
-97.5
0
CIRCLE
5
104
100
AcDbEntity
8
0
100
AcDbCircle
10
-90.70000000000185
20
-100.72120873831894
30
0
40
5.5000000000000071
0
CIRCLE
5
105
100
AcDbEntity
8
0
100
AcDbCircle
10
-77.300000000001873
20
-100.72120873831895
30
0
40
5.5000000000000071
0
CIRCLE
5
106
100
AcDbEntity
8
0
100
AcDbCircle
10
-62.500000931322575
20
-107.75000160560013
30
0
40
5.2500000782310963
0
ENDSEC
0
SECTION
2
OBJECTS
0
DICTIONARY
5
C
100
AcDbDictionary
3
ACAD_GROUP
350
D
3
ACAD_MLINESTYLE
350
17
0
DICTIONARY
5
D
100
AcDbDictionary
0
DICTIONARY
5
1A
330
C
100
AcDbDictionary
0
DICTIONARY
5
17
100
AcDbDictionary
0
ENDSEC
0
EOF
