0
SECTION
2
HEADER
9
$INSUNITS
70
4
9
$ACADVER
1
AC1014
9
$HANDSEED
5
FFFF
0
ENDSEC
0
SECTION
2
TABLES
0
TABLE
2
VPORT
5
8
100
AcDbSymbolTable
0
ENDTAB
0
TABLE
2
LTYPE
5
5
100
AcDbSymbolTable
0
LTYPE
5
14
100
AcDbSymbolTableRecord
100
AcDbLinetypeTableRecord
2
BYBLOCK
70
0
0
LTYPE
5
15
100
AcDbSymbolTableRecord
100
AcDbLinetypeTableRecord
2
BYLAYER
70
0
0
ENDTAB
0
TABLE
2
LAYER
5
2
100
AcDbSymbolTable
70
2
0
LAYER
5
50
100
AcDbSymbolTableRecord
100
AcDbLayerTableRecord
2
0
70
0
6
CONTINUOUS
0
ENDTAB
0
TABLE
2
STYLE
5
3
100
AcDbSymbolTable
70
1
0
STYLE
5
11
100
AcDbSymbolTableRecord
100
AcDbTextStyleTableRecord
2
STANDARD
70
0
0
ENDTAB
0
TABLE
2
VIEW
5
6
100
AcDbSymbolTable
70
0
0
ENDTAB
0
TABLE
2
UCS
5
7
100
AcDbSymbolTable
70
0
0
ENDTAB
0
TABLE
2
APPID
5
9
100
AcDbSymbolTable
70
2
0
APPID
5
12
100
AcDbSymbolTableRecord
100
AcDbRegAppTableRecord
2
ACAD
70
0
0
ENDTAB
0
TABLE
2
DIMSTYLE
5
A
100
AcDbSymbolTable
70
1
0
ENDTAB
0
TABLE
2
BLOCK_RECORD
5
1
100
AcDbSymbolTable
70
1
0
BLOCK_RECORD
5
1F
100
AcDbSymbolTableRecord
100
AcDbBlockTableRecord
2
*MODEL_SPACE
0
BLOCK_RECORD
5
1B
100
AcDbSymbolTableRecord
100
AcDbBlockTableRecord
2
*PAPER_SPACE
0
ENDTAB
0
ENDSEC
0
SECTION
2
BLOCKS
0
BLOCK
5
20
100
AcDbEntity
100
AcDbBlockBegin
2
*MODEL_SPACE
0
ENDBLK
5
21
100
AcDbEntity
100
AcDbBlockEnd
0
BLOCK
5
1C
100
AcDbEntity
100
AcDbBlockBegin
2
*PAPER_SPACE
0
ENDBLK
5
1D
100
AcDbEntity
100
AcDbBlockEnd
0
ENDSEC
0
SECTION
2
ENTITIES
0
LWPOLYLINE
5
100
100
AcDbEntity
8
0
100
AcDbPolyline
90
4
70
1
43
0.0
10
255.49987773895259
20
21.381512566681458
10
255.49987773895259
20
41.181512566681462
10
242.59987773895261
20
41.181512566681462
10
242.59987773895261
20
21.381512566681458
0
LWPOLYLINE
5
101
100
AcDbEntity
8
0
100
AcDbPolyline
90
60
70
1
43
0.0
10
65
20
50
10
115
20
50
10
115
20
53.000000789761543
10
125.00000186264515
20
53.000000789761543
10
125.00000186264515
20
50
10
135
20
50
10
135
20
53.000000789761543
10
145.00000216066834
20
53.000000789761536
10
145.00000216066837
20
50
10
155
20
50
10
155
20
53.000000789761536
10
165.0000024586916
20
53.000000789761543
10
165.0000024586916
20
50
10
175
20
50
10
175
20
53.000000789761543
10
185.00000275671482
20
53.000000789761543
10
185.00000275671482
20
50
10
195
20
50
10
195
20
53.000000789761543
10
205.00000305473804
20
53.000000789761543
10
205.00000305473804
20
50
10
215
20
50
10
215
20
53.000000789761543
10
225.00000335276127
20
53.000000789761543
10
225.00000335276127
20
50
10
235
20
50
10
235
20
53.000000789761543
10
245.00000365078449
20
53.000000789761543
10
245.00000365078449
20
50
10
255.0000037997961
20
50
10
255.0000037997961
20
53.000000789761543
10
265.00000394880772
20
53.000000789761543
10
265.00000394880772
20
49.999999999999993
10
275.08831842282336
20
50
10
275.08831842282336
20
53.000000789761543
10
285.00000424683094
20
53.000000789761543
10
285.00000424683094
20
50
10
295
20
50
10
295
20
53.000000789761543
10
305.00000454485416
20
53.000000789761543
10
305.00000454485416
20
50
10
315.00000469386578
20
50
10
315.00000469386578
20
53.000000789761543
10
325.00000484287739
20
53.000000789761543
10
325.00000484287739
20
50
10
335.000004991889
20
50
10
335.000004991889
20
53.000000789761543
10
340
20
53
10
340
20
10
10
20.000000000000007
20
10
10
20.000000000000007
20
53
10
25
20
53.000000789761543
10
25
20
50
10
35.000000521540642
20
50
10
35.000000521540642
20
53.000000789761543
10
45.000000670552254
20
53.000000789761543
10
45.000000670552254
20
50
10
55
20
50
10
55
20
53.000000789761543
10
65.000000000000014
20
52.999999970197671
0
LWPOLYLINE
5
102
100
AcDbEntity
8
0
100
AcDbPolyline
90
4
70
1
43
0.0
10
334.00000497698784
20
13.000000193715096
10
337.00000502169132
20
13.000000193715096
10
337.00000502169132
20
18.000000268220901
10
334.00000497698784
20
18.000000268220901
0
LWPOLYLINE
5
103
100
AcDbEntity
8
0
100
AcDbPolyline
90
4
70
1
43
0.0
10
26.000000387430191
20
18.000000268220901
10
23.000000342726707
20
18.000000268220901
10
23.000000342726707
20
13.000000193715096
10
26.000000387430191
20
13.000000193715096
0
LWPOLYLINE
5
104
100
AcDbEntity
8
0
100
AcDbPolyline
90
4
70
1
43
0.0
10
23.000000000000007
20
43.000000566244125
10
26.000000387430191
20
43.000000566244125
10
26.000000387430191
20
48.000000715255737
10
23.000000342726707
20
48.000000715255737
0
LWPOLYLINE
5
105
100
AcDbEntity
8
0
100
AcDbPolyline
90
4
70
1
43
0.0
10
334.00000497698784
20
43.000000640749931
10
337.00000502169132
20
43.000000640749931
10
337.00000502169132
20
48.000000715255737
10
334.00000497698784
20
48.000000715255737
0
LWPOLYLINE
5
106
100
AcDbEntity
8
0
100
AcDbPolyline
90
4
70
1
43
0.0
10
334.00000497698784
20
23.000000342726707
10
337.00000502169132
20
23.000000342726707
10
337.00000502169132
20
28.000000417232513
10
334.00000497698784
20
28.000000417232513
0
LWPOLYLINE
5
107
100
AcDbEntity
8
0
100
AcDbPolyline
90
4
70
1
43
0.0
10
26.000000387430191
20
28.000000417232513
10
23.000000342726707
20
28.000000417232513
10
23.000000342726707
20
23.000000342726707
10
26.000000387430191
20
23.000000342726707
0
LWPOLYLINE
5
108
100
AcDbEntity
8
0
100
AcDbPolyline
90
4
70
1
43
0.0
10
26.000000387430191
20
38.000000566244125
10
23.000000000000007
20
38.000000566244125
10
23.000000000000007
20
33.000000566244125
10
26.000000387430191
20
33.000000566244125
0
LWPOLYLINE
5
109
100
AcDbEntity
8
0
100
AcDbPolyline
90
4
70
1
43
0.0
10
334.00000497698784
20
33.000000491738319
10
337.00000502169132
20
33.000000491738319
10
337.00000502169132
20
38.000000566244125
10
334.00000497698784
20
38.000000566244125
0
LWPOLYLINE
5
110
100
AcDbEntity
8
0
100
AcDbPolyline
90
8
70
1
43
0.0
10
312.78483356682767
20
37.665882664668906
10
309.82936901884506
20
42.045000076293995
10
288.64151383299577
20
42.045000076294002
10
284.66873674309647
20
38.684759682094295
10
284.66873674309647
20
25.072184186530674
10
288.58994111668449
20
21.533491142985252
10
308.35210349993434
20
21.533491142985252
10
312.78483356682767
20
24.777518234805434
0
CIRCLE
5
111
100
AcDbEntity
8
0
100
AcDbCircle
10
318.69999287649989
20
31.699999291449785
30
0
40
1.0000000000000142
0
CIRCLE
5
112
100
AcDbEntity
8
0
100
AcDbCircle
10
278.79999377056959
20
31.749999289214614
30
0
40
1.0000000000000142
0
ENDSEC
0
SECTION
2
OBJECTS
0
DICTIONARY
5
C
100
AcDbDictionary
3
ACAD_GROUP
350
D
3
ACAD_MLINESTYLE
350
17
0
DICTIONARY
5
D
100
AcDbDictionary
0
DICTIONARY
5
1A
330
C
100
AcDbDictionary
0
DICTIONARY
5
17
100
AcDbDictionary
0
ENDSEC
0
EOF
