0
SECTION
2
HEADER
9
$INSUNITS
70
4
9
$ACADVER
1
AC1014
9
$HANDSEED
5
FFFF
0
ENDSEC
0
SECTION
2
TABLES
0
TABLE
2
VPORT
5
8
100
AcDbSymbolTable
0
ENDTAB
0
TABLE
2
LTYPE
5
5
100
AcDbSymbolTable
0
LTYPE
5
14
100
AcDbSymbolTableRecord
100
AcDbLinetypeTableRecord
2
BYBLOCK
70
0
0
LTYPE
5
15
100
AcDbSymbolTableRecord
100
AcDbLinetypeTableRecord
2
BYLAYER
70
0
0
ENDTAB
0
TABLE
2
LAYER
5
2
100
AcDbSymbolTable
70
2
0
LAYER
5
50
100
AcDbSymbolTableRecord
100
AcDbLayerTableRecord
2
0
70
0
6
CONTINUOUS
0
ENDTAB
0
TABLE
2
STYLE
5
3
100
AcDbSymbolTable
70
1
0
STYLE
5
11
100
AcDbSymbolTableRecord
100
AcDbTextStyleTableRecord
2
STANDARD
70
0
0
ENDTAB
0
TABLE
2
VIEW
5
6
100
AcDbSymbolTable
70
0
0
ENDTAB
0
TABLE
2
UCS
5
7
100
AcDbSymbolTable
70
0
0
ENDTAB
0
TABLE
2
APPID
5
9
100
AcDbSymbolTable
70
2
0
APPID
5
12
100
AcDbSymbolTableRecord
100
AcDbRegAppTableRecord
2
ACAD
70
0
0
ENDTAB
0
TABLE
2
DIMSTYLE
5
A
100
AcDbSymbolTable
70
1
0
ENDTAB
0
TABLE
2
BLOCK_RECORD
5
1
100
AcDbSymbolTable
70
1
0
BLOCK_RECORD
5
1F
100
AcDbSymbolTableRecord
100
AcDbBlockTableRecord
2
*MODEL_SPACE
0
BLOCK_RECORD
5
1B
100
AcDbSymbolTableRecord
100
AcDbBlockTableRecord
2
*PAPER_SPACE
0
ENDTAB
0
ENDSEC
0
SECTION
2
BLOCKS
0
BLOCK
5
20
100
AcDbEntity
100
AcDbBlockBegin
2
*MODEL_SPACE
0
ENDBLK
5
21
100
AcDbEntity
100
AcDbBlockEnd
0
BLOCK
5
1C
100
AcDbEntity
100
AcDbBlockBegin
2
*PAPER_SPACE
0
ENDBLK
5
1D
100
AcDbEntity
100
AcDbBlockEnd
0
ENDSEC
0
SECTION
2
ENTITIES
0
LWPOLYLINE
5
100
100
AcDbEntity
8
0
100
AcDbPolyline
90
4
70
1
43
0.0
10
-335.000004991889
20
-70.000001043081284
10
-335.000004991889
20
-85.000001266598701
10
-325.00000484287739
20
-85.000001266598701
10
-325.00000484287739
20
-70.000001043081284
0
LWPOLYLINE
5
101
100
AcDbEntity
8
0
100
AcDbPolyline
90
82
70
1
43
0.0
10
-150.00000223517418
20
-69.000001028180122
10
-153.00000227987766
20
-69.000001028180122
10
-153.00000227987766
20
-75.00000111758709
10
-150
20
-75.00000111758709
10
-150
20
-91.518984022880147
10
-160.00000238418579
20
-91.518984022880147
10
-160.00000238418579
20
-88.518984022880147
10
-170.0000025331974
20
-88.518984022880147
10
-170.0000025331974
20
-91.518984022880147
10
-180.00000268220901
20
-91.518984022880147
10
-180.00000268220901
20
-88.518984022880147
10
-190.00000283122063
20
-88.518984022880147
10
-190.00000283122063
20
-91.518984022880147
10
-200.00000298023224
20
-91.518984022880147
10
-200.00000298023224
20
-88.518984022880147
10
-210.00000312924385
20
-88.518984022880147
10
-210.00000312924385
20
-91.518984022880147
10
-220.00000327825546
20
-91.518984022880147
10
-220.00000327825546
20
-88.518984022880147
10
-230.00000342726707
20
-88.518984022880147
10
-230.00000342726707
20
-91.518984022880147
10
-240.00000357627869
20
-91.518984022880147
10
-240.00000357627869
20
-88.518984022880147
10
-250.0000037252903
20
-88.518984022880147
10
-250.0000037252903
20
-91.518984022880147
10
-260.00000387430191
20
-91.518984022880147
10
-260.00000387430191
20
-88.518984022880147
10
-270.00000402331352
20
-88.518984022880147
10
-270.00000402331352
20
-91.518984022880147
10
-280.00000417232513
20
-91.518984022880147
10
-280.00000417232513
20
-88.518984022880147
10
-290.00000417232513
20
-88.518984022880147
10
-290.00000417232513
20
-91.518984022880147
10
-300.00000447034836
20
-91.518984022880147
10
-300.00000447034836
20
-88.518984022880147
10
-310.00000461935997
20
-88.518984022880147
10
-310.00000461935997
20
-91.518984022880147
10
-320.00000476837158
20
-91.518984022880147
10
-320.00000476837158
20
-88.518984022880147
10
-330
20
-88.518984022880147
10
-330
20
-91.518984022880147
10
-340
20
-91.518984022880147
10
-340
20
-63.5
10
-335
20
-63.5
10
-335
20
-60.5
10
-330
20
-60.5
10
-330
20
-63.5
10
-320.00000476837158
20
-63.5
10
-320.00000476837158
20
-60.5
10
-310.00000461935997
20
-60.5
10
-310.00000461935997
20
-63.5
10
-300.00000447034836
20
-63.5
10
-300.00000447034836
20
-60.5
10
-290.00000417232513
20
-60.5
10
-290.00000417232513
20
-63.5
10
-280.00000417232513
20
-63.5
10
-280.00000417232513
20
-60.5
10
-270.00000402331352
20
-60.5
10
-270.00000402331352
20
-63.5
10
-260.00000387430191
20
-63.5
10
-260.00000387430191
20
-60.5
10
-250.0000037252903
20
-60.5
10
-250.0000037252903
20
-63.5
10
-240.00000357627869
20
-63.5
10
-240.00000357627869
20
-60.5
10
-230.00000342726707
20
-60.5
10
-230.00000342726707
20
-63.5
10
-220.00000327825546
20
-63.5
10
-220.00000327825546
20
-60.5
10
-210.00000312924385
20
-60.5
10
-210.00000312924385
20
-63.5
10
-200.00000298023224
20
-63.5
10
-200.00000298023224
20
-60.5
10
-190.00000283122063
20
-60.5
10
-190.00000283122063
20
-63.5
10
-180.00000268220901
20
-63.5
10
-180.00000268220901
20
-60.5
10
-170.0000025331974
20
-60.5
10
-170.0000025331974
20
-63.5
10
-160.00000238418579
20
-63.5
10
-160.00000238418579
20
-60.5
10
-150
20
-60.5
0
ENDSEC
0
SECTION
2
OBJECTS
0
DICTIONARY
5
C
100
AcDbDictionary
3
ACAD_GROUP
350
D
3
ACAD_MLINESTYLE
350
17
0
DICTIONARY
5
D
100
AcDbDictionary
0
DICTIONARY
5
1A
330
C
100
AcDbDictionary
0
DICTIONARY
5
17
100
AcDbDictionary
0
ENDSEC
0
EOF
