0
SECTION
2
HEADER
9
$INSUNITS
70
4
9
$ACADVER
1
AC1014
9
$HANDSEED
5
FFFF
0
ENDSEC
0
SECTION
2
TABLES
0
TABLE
2
VPORT
5
8
100
AcDbSymbolTable
0
ENDTAB
0
TABLE
2
LTYPE
5
5
100
AcDbSymbolTable
0
LTYPE
5
14
100
AcDbSymbolTableRecord
100
AcDbLinetypeTableRecord
2
BYBLOCK
70
0
0
LTYPE
5
15
100
AcDbSymbolTableRecord
100
AcDbLinetypeTableRecord
2
BYLAYER
70
0
0
ENDTAB
0
TABLE
2
LAYER
5
2
100
AcDbSymbolTable
70
2
0
LAYER
5
50
100
AcDbSymbolTableRecord
100
AcDbLayerTableRecord
2
0
70
0
6
CONTINUOUS
0
ENDTAB
0
TABLE
2
STYLE
5
3
100
AcDbSymbolTable
70
1
0
STYLE
5
11
100
AcDbSymbolTableRecord
100
AcDbTextStyleTableRecord
2
STANDARD
70
0
0
ENDTAB
0
TABLE
2
VIEW
5
6
100
AcDbSymbolTable
70
0
0
ENDTAB
0
TABLE
2
UCS
5
7
100
AcDbSymbolTable
70
0
0
ENDTAB
0
TABLE
2
APPID
5
9
100
AcDbSymbolTable
70
2
0
APPID
5
12
100
AcDbSymbolTableRecord
100
AcDbRegAppTableRecord
2
ACAD
70
0
0
ENDTAB
0
TABLE
2
DIMSTYLE
5
A
100
AcDbSymbolTable
70
1
0
ENDTAB
0
TABLE
2
BLOCK_RECORD
5
1
100
AcDbSymbolTable
70
1
0
BLOCK_RECORD
5
1F
100
AcDbSymbolTableRecord
100
AcDbBlockTableRecord
2
*MODEL_SPACE
0
BLOCK_RECORD
5
1B
100
AcDbSymbolTableRecord
100
AcDbBlockTableRecord
2
*PAPER_SPACE
0
ENDTAB
0
ENDSEC
0
SECTION
2
BLOCKS
0
BLOCK
5
20
100
AcDbEntity
100
AcDbBlockBegin
2
*MODEL_SPACE
0
ENDBLK
5
21
100
AcDbEntity
100
AcDbBlockEnd
0
BLOCK
5
1C
100
AcDbEntity
100
AcDbBlockBegin
2
*PAPER_SPACE
0
ENDBLK
5
1D
100
AcDbEntity
100
AcDbBlockEnd
0
ENDSEC
0
SECTION
2
ENTITIES
0
LWPOLYLINE
5
100
100
AcDbEntity
8
0
100
AcDbPolyline
90
68
70
1
43
0.0
10
285.00000424683094
20
53.000000789761543
10
285.00000424683094
20
50
10
275.08831842282336
20
50
10
275.08831842282336
20
53.000000789761543
10
265.00000394880772
20
53.000000789761543
10
265.00000394880772
20
49.999999999999993
10
255.0000037997961
20
50
10
255.0000037997961
20
53.000000789761543
10
245.00000365078449
20
53.000000789761543
10
245.00000365078449
20
50
10
235
20
50
10
235
20
53.000000789761543
10
225.00000335276127
20
53.000000789761543
10
225.00000335276127
20
50
10
215
20
50
10
215
20
53.000000789761543
10
205.00000305473804
20
53.000000789761543
10
205.00000305473804
20
50
10
195
20
50
10
195
20
53.000000789761543
10
185.00000275671482
20
53.000000789761543
10
185.00000275671482
20
50
10
175
20
50
10
175
20
53.000000789761543
10
165.0000024586916
20
53.000000789761543
10
165.0000024586916
20
50
10
155
20
50
10
155
20
53.000000789761536
10
145.00000216066834
20
53.000000789761536
10
145.00000216066837
20
50
10
135
20
50
10
135
20
53.000000789761543
10
125.00000186264515
20
53.000000789761543
10
125.00000186264515
20
50
10
115
20
50
10
115
20
53.000000789761543
10
105.00000156462193
20
53.000000789761543
10
105.00000156462193
20
50
10
95
20
50
10
95
20
53.000000789761543
10
85.000001266598701
20
53.000000789761543
10
85.000001266598701
20
50
10
75
20
50
10
75
20
52.999999970197671
10
65.000000000000014
20
52.999999970197671
10
65
20
50
10
55
20
50
10
55
20
53.000000789761543
10
45.000000670552254
20
53.000000789761543
10
45.000000670552254
20
50
10
35.000000521540642
20
50
10
35.000000521540642
20
53.000000789761543
10
25
20
53.000000789761543
10
25
20
50
10
19.999999999999986
20
50
10
20
20
170
10
340
20
170
10
340
20
50
10
335.000004991889
20
50
10
335.000004991889
20
53.000000789761543
10
325.00000484287739
20
53.000000789761543
10
325.00000484287739
20
50
10
315.00000469386578
20
50
10
315.00000469386578
20
53.000000789761543
10
305.00000454485416
20
53.000000789761543
10
305.00000454485416
20
50
10
295
20
50
10
295
20
53.000000789761543
0
CIRCLE
5
101
100
AcDbEntity
8
0
100
AcDbCircle
10
169.92000000000291
20
58.829999999997113
30
0
40
1.4999999999999858
0
CIRCLE
5
102
100
AcDbEntity
8
0
100
AcDbCircle
10
39.745000000000005
20
58.830000000002116
30
0
40
1.5000000000000036
0
CIRCLE
5
103
100
AcDbEntity
8
0
100
AcDbCircle
10
39.745000000000005
20
149.00000000000003
30
0
40
1.5000000000000036
0
CIRCLE
5
104
100
AcDbEntity
8
0
100
AcDbCircle
10
169.91999999999794
20
149.00000000000006
30
0
40
1.4999999999999858
0
ENDSEC
0
SECTION
2
OBJECTS
0
DICTIONARY
5
C
100
AcDbDictionary
3
ACAD_GROUP
350
D
3
ACAD_MLINESTYLE
350
17
0
DICTIONARY
5
D
100
AcDbDictionary
0
DICTIONARY
5
1A
330
C
100
AcDbDictionary
0
DICTIONARY
5
17
100
AcDbDictionary
0
ENDSEC
0
EOF
