%TF.GenerationSoftware,Novarm,DipTrace,3.2.0.1*%
%TF.CreationDate,2018-03-01T22:24:19+00:00*%
%FSLAX26Y26*%
%MOIN*%
%TF.FileFunction,Copper,L2,Bot*%
%TF.Part,Single*%
%TA.AperFunction,Conductor*%
%ADD13C,0.035433*%
%TA.AperFunction,CopperBalancing*%
%ADD14C,0.025*%
%TA.AperFunction,ComponentPad*%
%ADD15C,0.074803*%
%ADD16O,0.125984X0.192913*%
%ADD17C,0.125984*%
%ADD18R,0.090551X0.090551*%
%ADD19C,0.090551*%
%ADD21R,0.059055X0.059055*%
%ADD22C,0.059055*%
%ADD23O,0.082677X0.102362*%
%ADD24R,0.043307X0.07874*%
%ADD25R,0.07874X0.07874*%
%ADD26R,0.07874X0.03937*%
%TA.AperFunction,ComponentPad*%
%ADD27R,0.051181X0.051181*%
%ADD28C,0.051181*%
%ADD29C,0.048*%
%ADD30C,0.062992*%
%ADD31R,0.062992X0.062992*%
%ADD32R,0.066929X0.066929*%
%ADD33C,0.066929*%
%ADD34C,0.05*%
%ADD35C,0.05*%
%ADD36R,0.074803X0.074803*%
%ADD37R,0.047244X0.047244*%
%ADD38C,0.047244*%
%ADD39R,0.094488X0.094488*%
%ADD40C,0.094488*%
%TA.AperFunction,ViaPad*%
%ADD41C,0.055118*%
G75*
G01*
%LPD*%
X1933071Y1578740D2*
D13*
Y1493701D1*
X1967126D1*
X3893701Y3093701D2*
Y3338583D1*
X3944882Y3389764D1*
X4188976D1*
X4243991Y3334749D1*
Y2534373D1*
X793701Y2768701D2*
X531496D1*
X480315Y2717520D1*
Y2257087D1*
X593701Y2143701D1*
X2718701Y1343701D2*
X2818898D1*
Y1755906D1*
X2767717Y1807087D1*
X2706102D1*
X2694488Y1818701D1*
X2668701D1*
X1098425Y2318898D2*
X1181102D1*
X1232283Y2370079D1*
Y2707283D1*
X1393701Y2868701D1*
X1243701Y543701D2*
Y613780D1*
X1362205Y732283D1*
X1438386Y808465D1*
Y1227951D1*
X3443701Y2743701D2*
X3346457Y2840945D1*
Y3153543D1*
X2993701Y1918701D2*
Y1807087D1*
X2942520Y1755906D1*
X2818898D1*
X1362205Y732283D2*
X1438386Y656102D1*
Y493699D1*
X2580118Y1227951D2*
X2421260D1*
X2370079Y1176770D1*
Y641732D1*
X2421654Y590157D1*
X2564370D1*
X3346457Y3153543D2*
Y3472441D1*
X3295276Y3523622D1*
X3437341Y3665688D1*
X3512316D1*
X1393701Y2868701D2*
X1460630D1*
X1512081Y2920152D1*
Y2940944D1*
X1568701Y2884324D1*
Y2418701D1*
X3512316Y3665688D2*
Y3780836D1*
X3563497Y3832017D1*
X3512316Y3883198D1*
Y4013521D1*
X3616005Y4117210D1*
X2767717Y1807087D2*
Y2317717D1*
X2768701Y2318701D1*
X2580118Y1227951D2*
X2718701D1*
Y1343701D1*
X2262402Y1493701D2*
Y1566929D1*
X2527559D1*
X2580118Y1514370D1*
Y1227951D1*
X1967126Y1493701D2*
Y1417323D1*
X2262402D1*
Y1493701D1*
X4243991Y2534373D2*
X4196850D1*
X4165354Y2502877D1*
Y2315354D1*
X4043701Y2193701D1*
X487795Y1368701D2*
Y1216142D1*
X460630Y1188976D1*
Y951772D1*
X568701Y843701D1*
X593701Y2143701D2*
Y1474606D1*
X487795Y1368701D1*
X2768701Y2518701D2*
X2578740Y2708661D1*
Y2962205D1*
X2610236Y2993701D1*
X2643701D1*
X2768701Y2318701D2*
X2826772D1*
Y2460630D1*
X2768701Y2518701D1*
X1460900Y4117967D2*
Y2992125D1*
X1512081Y2940944D1*
X1438386Y1227951D2*
Y1374331D1*
X1272222Y1540495D1*
X3563497Y3832017D2*
X4175726D1*
X3295276Y3523622D2*
X3192913D1*
X3191143Y3525392D1*
X3019932D1*
X2564370Y590157D2*
Y509448D1*
X2580118Y493699D1*
X793701Y2868701D2*
X578740D1*
X527559Y2919882D1*
Y3557609D1*
X594727Y3624777D1*
X972222Y1540495D2*
Y1157482D1*
X1086220Y1043483D1*
Y543701D1*
X2668701Y1918701D2*
Y2318701D1*
X2768701Y2418701D1*
X593701Y2493701D2*
Y2243701D1*
X3487402Y606693D2*
Y799213D1*
X3502165Y813976D1*
Y1035236D1*
X3443701Y1093701D1*
Y1218701D2*
X3518701Y1293701D1*
Y1568701D1*
X3443701Y1093701D2*
Y1218701D1*
X793701Y2968701D2*
X661417Y3100984D1*
Y3258087D1*
X594727Y3324777D1*
X1098425Y3307087D2*
Y3000000D1*
X3618701Y1496063D2*
Y1578150D1*
X3566929Y1629921D1*
X3532480D1*
X3343701Y1818701D1*
Y1784843D1*
X3318701Y1759843D1*
X3193701D1*
Y1843701D1*
X3343701Y1818701D2*
Y1830709D1*
X3330709Y1843701D1*
Y1893701D1*
X3393701D1*
X3493701Y2243701D2*
X3618701Y2118701D1*
Y2018701D1*
X3393701Y2291339D2*
X3295276D1*
X3243701Y2342913D1*
Y2443701D1*
X3168701Y2243701D2*
X3357283Y2055118D1*
X3507874D1*
X3559055Y2003937D1*
Y1956693D1*
X3618701D1*
Y1893701D1*
X3343701Y2443701D2*
X3433071Y2354331D1*
X3437008D1*
X3472638Y2318701D1*
X3618701D1*
X2448819Y1641732D2*
X2216537D1*
X2163976Y1589172D1*
Y1493701D1*
X2448819Y1783465D2*
Y2433071D1*
X2397638Y2484252D1*
X2198228D1*
X2168701Y2454724D1*
Y2418701D1*
X2779528Y3767717D2*
Y3188976D1*
X2909449Y3059055D1*
Y2597244D1*
X3062992Y2443701D1*
Y2055118D1*
X3114173Y2003937D1*
X3433465D1*
X3493701Y1943701D1*
X3143701Y2443701D2*
X3062992D1*
X1870079Y1409449D2*
Y1493701D1*
X1868701D1*
X2271654Y1783465D2*
X2334646Y1846457D1*
Y2236220D1*
X2283465Y2287402D1*
X2100000D1*
X1968701Y2418701D1*
X1770276Y1493701D2*
Y1566929D1*
X1818701Y1615354D1*
Y1693701D1*
X1756496Y1755906D1*
X1507874D1*
X1456693Y1807087D1*
Y2106693D1*
X1768701Y2418701D1*
X1643701Y1868701D2*
X1763780D1*
X1818701Y1923622D1*
Y1993701D1*
X1668701Y2118701D2*
X1543701Y1993701D1*
Y1868701D1*
X2718701Y1443701D2*
Y1595669D1*
X2668701Y1645669D1*
Y1718701D1*
X2385827D1*
Y1769882D1*
X2334646Y1718701D1*
X2118110D1*
X2065551Y1666142D1*
Y1493701D1*
X2385827Y1769882D2*
Y2366142D1*
X2333268Y2418701D1*
X2268701D1*
X3443701Y1318701D2*
X3380512Y1381890D1*
X3192913D1*
X3093701Y1282677D1*
Y793701D1*
X3192913Y1381890D2*
X3193701Y1382677D1*
Y1543701D1*
X3743701Y1493701D2*
Y1429134D1*
X3644882Y1330315D1*
Y793701D1*
X1311024Y1905512D2*
Y1787402D1*
X1492126Y1606299D1*
Y1354331D1*
X1543307Y1303150D1*
X2303150D1*
X2357874Y1357874D1*
Y1493701D1*
X793701Y3268701D2*
X858268Y3333268D1*
Y4251969D1*
X1814961D1*
X1868701Y4198228D1*
Y2418701D1*
X1618110Y3905512D2*
X1668701Y3854921D1*
Y2418701D1*
X4200777Y1319281D2*
X4111915D1*
X3993701Y1201067D1*
Y493701D1*
X3443701Y2443701D2*
X3562992Y2562992D1*
X3744094D1*
X3858268Y2677165D1*
X3807087Y2728346D1*
Y3285068D1*
X3511735Y3580420D1*
X2643701Y2893701D2*
X2708661D1*
X2843701D1*
X3858268Y2677165D2*
X3972441D1*
X4023622Y2625984D1*
Y2283465D1*
X2843701Y2893701D2*
Y2693701D1*
X2768701Y2618701D1*
X3943701D2*
Y2496063D1*
X3891339Y2443701D1*
X3743701D1*
Y2993701D2*
Y2743701D1*
Y1793701D2*
X3843701D1*
Y1868701D1*
X3718701Y2268701D2*
Y2168701D1*
X3968701Y1918701D1*
Y1807087D1*
X4043701D1*
Y1893701D1*
X3943701Y2318701D2*
Y2352953D1*
X3918701Y2377953D1*
X3842520D1*
X3709449D1*
X3643701Y2443701D1*
X3968701Y2218701D2*
Y2133858D1*
X3894882D1*
X3843701Y2185039D1*
Y2266339D1*
X3842520Y2267520D1*
Y2377953D1*
X3543701Y2743701D2*
Y2843701D1*
X3668701D1*
X3593701Y3093701D2*
Y2996063D1*
X3541339Y2943701D1*
X3443701D1*
X3668701Y2843701D2*
Y3018701D1*
X3593701Y3093701D1*
X3918701Y1741339D2*
X3803150Y1625787D1*
Y1153150D1*
X3743701Y1093701D1*
X3643701Y2743701D2*
X3514173Y2614173D1*
X3401575D1*
X3307087Y2519685D1*
X3148234Y3031098D2*
Y2913386D1*
X3143701Y2908853D1*
Y2743701D1*
X4243991Y2434373D2*
Y2114173D1*
X4200777Y2070959D1*
Y1619281D1*
X4099146Y2538837D2*
Y2704004D1*
X4047244Y2755906D1*
X3870079D1*
X3956693Y2842520D1*
Y3270444D1*
X4015218Y3328969D1*
Y3628969D2*
X4175726D1*
Y3732017D1*
X3812316Y3665688D2*
X3811735Y3580420D1*
X3145139Y3434692D2*
Y3334193D1*
X3148234Y3331098D1*
X3243701Y3235631D1*
Y2743701D1*
X2842520Y3468504D2*
Y3275591D1*
X2896311Y3221799D1*
X3028941D1*
X3145139Y3734692D2*
Y3625392D1*
X3019932D1*
X1110236Y3566929D2*
X1111585Y3568278D1*
Y4123839D1*
X1543307Y3968504D2*
X1560900Y3986097D1*
Y4117967D1*
X921260Y4188976D2*
Y2596260D1*
X793701Y2468701D1*
X2555118Y3968504D2*
Y4103762D1*
X2569064Y4117709D1*
X1724409Y3968504D2*
Y4003937D1*
X1728346D1*
Y4185039D1*
X1334646D1*
X1283465Y4133858D1*
Y2984252D1*
X1157480Y2858268D1*
Y2433071D1*
X1106299Y2381890D1*
X871457D1*
X858268Y2368701D1*
X793701D1*
X2669064Y4117709D2*
X2664058Y4112702D1*
Y3940900D1*
X706496Y843701D2*
Y925197D1*
X728346Y947047D1*
Y1165354D1*
X661417Y1232283D1*
Y2136417D1*
X793701Y2268701D1*
X844291Y843701D2*
Y1472441D1*
X858268Y1486417D1*
Y2104134D1*
X793701Y2168701D1*
X1035433Y2444882D2*
Y3637795D1*
X1165354Y1311024D2*
X1164961Y543701D1*
X2484252Y1145669D2*
Y1044881D1*
X2564370D1*
X1393701Y1968701D2*
X1224408D1*
X1172222Y1916514D1*
Y1540495D1*
X1393701Y2068701D2*
X1125983D1*
X1072222Y2014940D1*
Y1540495D1*
D41*
X3346457Y3153543D3*
X1933071Y1578740D3*
X1098425Y2318898D3*
Y3000000D3*
Y3307087D3*
X2779528Y3767717D3*
X2448819Y1641732D3*
Y1783465D3*
X1870079Y1409449D3*
X2271654Y1783465D3*
X1311024Y1905512D3*
X1618110Y3905512D3*
X4023622Y2283465D3*
X3307087Y2519685D3*
X3870079Y2755906D3*
X2842520Y3468504D3*
X1110236Y3566929D3*
X1543307Y3968504D3*
X921260Y4188976D3*
X2555118Y3968504D3*
X1724409D3*
X1035433Y3637795D3*
Y2444882D3*
X1165354Y1311024D3*
X2484252Y1145669D3*
X448089Y4253970D2*
D14*
X578013D1*
X609388D2*
X811619D1*
X1877966D2*
X4128000D1*
X4159411D2*
X4276345D1*
X448089Y4229101D2*
X520204D1*
X667198D2*
X811548D1*
X1902834D2*
X4070191D1*
X4217184D2*
X4276345D1*
X448089Y4204232D2*
X498099D1*
X689302D2*
X811548D1*
X975622D2*
X1288807D1*
X1770672D2*
X1797681D1*
X1914998D2*
X4048086D1*
X4239325D2*
X4276345D1*
X448089Y4179364D2*
X486042D1*
X701359D2*
X811548D1*
X1074053D2*
X1086456D1*
X1136706D2*
X1186466D1*
X1236716D2*
X1263940D1*
X1775050D2*
X1821975D1*
X1915393D2*
X3376980D1*
X3461320D2*
X3539786D1*
X3692235D2*
X4036029D1*
X4251382D2*
X4276345D1*
X448089Y4154495D2*
X480660D1*
X706742D2*
X811548D1*
X1775050D2*
X1821975D1*
X1915393D2*
X2106608D1*
X2718912D2*
X3353045D1*
X3485255D2*
X3539786D1*
X3692235D2*
X4030682D1*
X4256729D2*
X4276345D1*
X448089Y4129626D2*
X481054D1*
X706347D2*
X811548D1*
X1344260D2*
X1398434D1*
X1775050D2*
X1821975D1*
X1915393D2*
X2106608D1*
X2730323D2*
X3343966D1*
X3494333D2*
X3539786D1*
X3692235D2*
X4031041D1*
X4256370D2*
X4276345D1*
X448089Y4104757D2*
X487190D1*
X700211D2*
X811548D1*
X1330158D2*
X1398434D1*
X1775050D2*
X1821975D1*
X1915393D2*
X2106608D1*
X2730108D2*
X3343966D1*
X3494333D2*
X3538530D1*
X3692235D2*
X4037213D1*
X4250198D2*
X4276345D1*
X448089Y4079888D2*
X500324D1*
X687077D2*
X811548D1*
X1158309D2*
X1168279D1*
X1330158D2*
X1398434D1*
X1775050D2*
X1821975D1*
X1915393D2*
X2106608D1*
X2718087D2*
X3353045D1*
X3485255D2*
X3513663D1*
X3692235D2*
X4050311D1*
X4237100D2*
X4276345D1*
X448089Y4055020D2*
X524366D1*
X663035D2*
X811548D1*
X967979D2*
X1064890D1*
X1158309D2*
X1236739D1*
X1330158D2*
X1414187D1*
X1607615D2*
X1681632D1*
X1775050D2*
X1821975D1*
X1915393D2*
X2508403D1*
X2601822D2*
X2617348D1*
X2710766D2*
X3377052D1*
X3461284D2*
X3488795D1*
X3692235D2*
X4074353D1*
X4213058D2*
X4276345D1*
X448089Y4030151D2*
X811548D1*
X967979D2*
X1064890D1*
X1158309D2*
X1236739D1*
X1330158D2*
X1414187D1*
X1607615D2*
X1681632D1*
X1775050D2*
X1821975D1*
X1915393D2*
X2508403D1*
X2601822D2*
X2617348D1*
X2710766D2*
X3468843D1*
X3593984D2*
X4276345D1*
X448089Y4005282D2*
X811548D1*
X967979D2*
X1064890D1*
X1158309D2*
X1236739D1*
X1330158D2*
X1414187D1*
X1607615D2*
X1677720D1*
X1775050D2*
X1821975D1*
X1915393D2*
X2508403D1*
X2601822D2*
X2617348D1*
X2710766D2*
X3465614D1*
X3569080D2*
X4276345D1*
X448089Y3980413D2*
X811548D1*
X967979D2*
X1064890D1*
X1158309D2*
X1236739D1*
X1330158D2*
X1414187D1*
X1607256D2*
X1669180D1*
X1779643D2*
X1821975D1*
X1915393D2*
X2499899D1*
X2724546D2*
X3465614D1*
X3559032D2*
X4276345D1*
X448089Y3955545D2*
X811548D1*
X967979D2*
X1064890D1*
X1158309D2*
X1236739D1*
X1330158D2*
X1414187D1*
X1641059D2*
X1669431D1*
X1779392D2*
X1821975D1*
X1915393D2*
X2500150D1*
X2724546D2*
X3465614D1*
X3559032D2*
X4276345D1*
X448089Y3930676D2*
X811548D1*
X967979D2*
X1064890D1*
X1158309D2*
X1236739D1*
X1330158D2*
X1414187D1*
X1668438D2*
X1683318D1*
X1765505D2*
X1821975D1*
X1915393D2*
X2514001D1*
X2724546D2*
X3465614D1*
X3559032D2*
X4276345D1*
X448089Y3905807D2*
X811548D1*
X967979D2*
X1064890D1*
X1158309D2*
X1236739D1*
X1330158D2*
X1414187D1*
X1507605D2*
X1561563D1*
X1682828D2*
X1821975D1*
X1915393D2*
X2603568D1*
X2724546D2*
X3465614D1*
X3559032D2*
X4276345D1*
X448089Y3880938D2*
X811548D1*
X967979D2*
X1064890D1*
X1158309D2*
X1236739D1*
X1330158D2*
X1414187D1*
X1507605D2*
X1567484D1*
X1706942D2*
X1821975D1*
X1915393D2*
X2619608D1*
X2708505D2*
X3465650D1*
X3579594D2*
X4142103D1*
X4209362D2*
X4276345D1*
X448089Y3856070D2*
X811548D1*
X967979D2*
X1064890D1*
X1158309D2*
X1236739D1*
X1330158D2*
X1414187D1*
X1507605D2*
X1593787D1*
X1715411D2*
X1821975D1*
X1915393D2*
X2605578D1*
X2722536D2*
X3474908D1*
X4231000D2*
X4276345D1*
X448089Y3831201D2*
X811548D1*
X967979D2*
X1064890D1*
X1158309D2*
X1236739D1*
X1330158D2*
X1414187D1*
X1507605D2*
X1621992D1*
X1715411D2*
X1821975D1*
X1915393D2*
X2604393D1*
X2723720D2*
X3497658D1*
X4236203D2*
X4276345D1*
X448089Y3806332D2*
X735186D1*
X967979D2*
X1064890D1*
X1158309D2*
X1236739D1*
X1330158D2*
X1349703D1*
X1507605D2*
X1621992D1*
X1715411D2*
X1821975D1*
X1915393D2*
X2615015D1*
X2713099D2*
X2739210D1*
X2819854D2*
X3473688D1*
X4230210D2*
X4276345D1*
X448089Y3781463D2*
X735186D1*
X967979D2*
X1064890D1*
X1158309D2*
X1236739D1*
X1507605D2*
X1621992D1*
X1715411D2*
X1821975D1*
X1915393D2*
X2724749D1*
X2834315D2*
X3121090D1*
X3169187D2*
X3465614D1*
X3577979D2*
X4115225D1*
X4236203D2*
X4276345D1*
X448089Y3756594D2*
X735186D1*
X967979D2*
X1064890D1*
X1158309D2*
X1236739D1*
X1507605D2*
X1621992D1*
X1715411D2*
X1821975D1*
X1915393D2*
X2724139D1*
X2834925D2*
X3096043D1*
X3194234D2*
X3465614D1*
X3559032D2*
X4115225D1*
X4236203D2*
X4276345D1*
X448089Y3731726D2*
X735186D1*
X967979D2*
X1064890D1*
X1158309D2*
X1236739D1*
X1330158D2*
X1349129D1*
X1507605D2*
X1621992D1*
X1715411D2*
X1821975D1*
X1915393D2*
X2732823D1*
X2826241D2*
X3091234D1*
X3199042D2*
X3465614D1*
X3559032D2*
X4115225D1*
X4236203D2*
X4276345D1*
X448089Y3706857D2*
X750186D1*
X967979D2*
X1064890D1*
X1158309D2*
X1236739D1*
X1330158D2*
X1350169D1*
X1507605D2*
X1621992D1*
X1715411D2*
X1821975D1*
X1915393D2*
X2732823D1*
X2826241D2*
X3098447D1*
X3191865D2*
X3418749D1*
X3559032D2*
X3778883D1*
X3845747D2*
X4115225D1*
X4236203D2*
X4276345D1*
X448089Y3681988D2*
X736765D1*
X967979D2*
X1001806D1*
X1158309D2*
X1236739D1*
X1507605D2*
X1621992D1*
X1715411D2*
X1821975D1*
X1915393D2*
X2732823D1*
X2826241D2*
X2959431D1*
X3080409D2*
X3098447D1*
X3191865D2*
X3388606D1*
X3563662D2*
X3760977D1*
X3863653D2*
X4115225D1*
X4236203D2*
X4276345D1*
X448089Y3657119D2*
X552177D1*
X637306D2*
X736406D1*
X967979D2*
X982464D1*
X1158309D2*
X1236739D1*
X1507605D2*
X1621992D1*
X1715411D2*
X1821975D1*
X1915393D2*
X2732823D1*
X2826241D2*
X2959431D1*
X3191865D2*
X3363739D1*
X3565599D2*
X3759039D1*
X3865591D2*
X3969607D1*
X4222423D2*
X4276345D1*
X448089Y3632251D2*
X537177D1*
X648179D2*
X748679D1*
X967979D2*
X979163D1*
X1158309D2*
X1236739D1*
X1330158D2*
X1348662D1*
X1507605D2*
X1621992D1*
X1715411D2*
X1821975D1*
X1915393D2*
X2732823D1*
X2826241D2*
X2959431D1*
X3191865D2*
X3338871D1*
X3553973D2*
X3765390D1*
X3858809D2*
X3961318D1*
X4222423D2*
X4276345D1*
X448089Y3607382D2*
X512309D1*
X645703D2*
X750688D1*
X967979D2*
X988241D1*
X1158309D2*
X1236739D1*
X1330158D2*
X1350672D1*
X1507605D2*
X1621992D1*
X1715411D2*
X1821975D1*
X1915393D2*
X2732823D1*
X2826241D2*
X2959431D1*
X3188026D2*
X3314003D1*
X3444060D2*
X3465363D1*
X3558099D2*
X3765211D1*
X3858630D2*
X3965983D1*
X4216790D2*
X4276345D1*
X448089Y3582513D2*
X488518D1*
X626649D2*
X736909D1*
X967979D2*
X988708D1*
X1164481D2*
X1236739D1*
X1507605D2*
X1621992D1*
X1715411D2*
X1821975D1*
X1915393D2*
X2732823D1*
X2826241D2*
X2959431D1*
X3158386D2*
X3289135D1*
X3419192D2*
X3457791D1*
X3574678D2*
X3757783D1*
X3865699D2*
X3990492D1*
X4039916D2*
X4276345D1*
X448089Y3557644D2*
X480839D1*
X592630D2*
X736298D1*
X967979D2*
X988708D1*
X1165988D2*
X1236739D1*
X1507605D2*
X1621992D1*
X1715411D2*
X1821975D1*
X1915393D2*
X2732823D1*
X2826241D2*
X2969228D1*
X3394324D2*
X3463066D1*
X3599546D2*
X3763058D1*
X3860424D2*
X4276345D1*
X448089Y3532776D2*
X480839D1*
X574258D2*
X748212D1*
X967979D2*
X988708D1*
X1154613D2*
X1236739D1*
X1330158D2*
X1348232D1*
X1507605D2*
X1621992D1*
X1715411D2*
X1821975D1*
X1915393D2*
X2732823D1*
X2826241D2*
X2959898D1*
X3369456D2*
X3489692D1*
X3624413D2*
X3789720D1*
X3833762D2*
X4276345D1*
X448089Y3507907D2*
X480839D1*
X574258D2*
X751190D1*
X967979D2*
X988708D1*
X1082126D2*
X1236739D1*
X1330158D2*
X1351174D1*
X1507605D2*
X1621992D1*
X1715411D2*
X1821975D1*
X1915393D2*
X2732823D1*
X2882006D2*
X2962159D1*
X3376023D2*
X3519225D1*
X3649281D2*
X4276345D1*
X448089Y3483038D2*
X480839D1*
X574258D2*
X737052D1*
X967979D2*
X988708D1*
X1082126D2*
X1236739D1*
X1507605D2*
X1621992D1*
X1715411D2*
X1821975D1*
X1915393D2*
X2732823D1*
X2897077D2*
X2977840D1*
X3391884D2*
X3544093D1*
X3674149D2*
X4276345D1*
X448089Y3458169D2*
X480839D1*
X574258D2*
X736191D1*
X967979D2*
X988708D1*
X1082126D2*
X1236739D1*
X1507605D2*
X1621992D1*
X1715411D2*
X1821975D1*
X1915393D2*
X2732823D1*
X2898082D2*
X3096796D1*
X3193480D2*
X3295702D1*
X3393176D2*
X3568960D1*
X3699017D2*
X4276345D1*
X448089Y3433301D2*
X480839D1*
X574258D2*
X747781D1*
X967979D2*
X988708D1*
X1082126D2*
X1236739D1*
X1330158D2*
X1347801D1*
X1507605D2*
X1621992D1*
X1715411D2*
X1821975D1*
X1915393D2*
X2732823D1*
X2889218D2*
X3091162D1*
X3199114D2*
X3299757D1*
X3393176D2*
X3593828D1*
X3723884D2*
X3934692D1*
X4199170D2*
X4276345D1*
X448089Y3408432D2*
X480839D1*
X574258D2*
X751693D1*
X967979D2*
X988708D1*
X1082126D2*
X1236739D1*
X1330158D2*
X1351712D1*
X1507605D2*
X1621992D1*
X1715411D2*
X1821975D1*
X1915393D2*
X2732823D1*
X2889218D2*
X3098339D1*
X3191937D2*
X3299757D1*
X3393176D2*
X3618696D1*
X3748752D2*
X3898521D1*
X4235342D2*
X4276345D1*
X448089Y3383563D2*
X480839D1*
X574258D2*
X737196D1*
X967979D2*
X988708D1*
X1082126D2*
X1236739D1*
X1507605D2*
X1621992D1*
X1715411D2*
X1821975D1*
X1915393D2*
X2732823D1*
X2889218D2*
X3098447D1*
X3191865D2*
X3299757D1*
X3393176D2*
X3643564D1*
X3773620D2*
X3873653D1*
X4260209D2*
X4276345D1*
X448089Y3358694D2*
X480839D1*
X635978D2*
X736083D1*
X967979D2*
X988708D1*
X1117006D2*
X1236739D1*
X1507605D2*
X1621992D1*
X1715411D2*
X1821975D1*
X1915393D2*
X2732823D1*
X2889218D2*
X3098447D1*
X3194198D2*
X3299757D1*
X3393176D2*
X3668431D1*
X3798488D2*
X3851835D1*
X448089Y3333825D2*
X480839D1*
X650691D2*
X747351D1*
X967979D2*
X988708D1*
X1147902D2*
X1236739D1*
X1330158D2*
X1347370D1*
X1507605D2*
X1621992D1*
X1715411D2*
X1821975D1*
X1915393D2*
X2732823D1*
X2889218D2*
X3094320D1*
X3210525D2*
X3299757D1*
X3393176D2*
X3693299D1*
X3823355D2*
X3846991D1*
X4068983D2*
X4179889D1*
X448089Y3308957D2*
X480839D1*
X675559D2*
X752231D1*
X967979D2*
X988708D1*
X1154936D2*
X1236739D1*
X1330158D2*
X1352251D1*
X1507605D2*
X1621992D1*
X1715411D2*
X1821975D1*
X1915393D2*
X2732823D1*
X2889218D2*
X3099236D1*
X3235393D2*
X3299757D1*
X3393176D2*
X3718167D1*
X4065179D2*
X4197292D1*
X448089Y3284088D2*
X480839D1*
X699673D2*
X737339D1*
X967979D2*
X988708D1*
X1149840D2*
X1236739D1*
X1507605D2*
X1621992D1*
X1715411D2*
X1821975D1*
X1915393D2*
X2732823D1*
X2899051D2*
X3124714D1*
X3260261D2*
X3299757D1*
X3393176D2*
X3409276D1*
X3478150D2*
X3743034D1*
X4042967D2*
X4197292D1*
X448089Y3259219D2*
X480839D1*
X574258D2*
X595274D1*
X708106D2*
X735976D1*
X851427D2*
X874560D1*
X967979D2*
X988708D1*
X1145139D2*
X1236739D1*
X1507605D2*
X1621992D1*
X1715411D2*
X1821975D1*
X1915393D2*
X2732823D1*
X3075744D2*
X3155108D1*
X3283585D2*
X3299757D1*
X3495302D2*
X3760367D1*
X4010491D2*
X4197292D1*
X448089Y3234350D2*
X480839D1*
X574258D2*
X614723D1*
X708142D2*
X746956D1*
X840447D2*
X874560D1*
X967979D2*
X988708D1*
X1145139D2*
X1236739D1*
X1330158D2*
X1346940D1*
X1507605D2*
X1621992D1*
X1715411D2*
X1821975D1*
X1915393D2*
X2732823D1*
X3088053D2*
X3179976D1*
X3290403D2*
X3299769D1*
X3496845D2*
X3760367D1*
X4003386D2*
X4197292D1*
X448089Y3209482D2*
X480839D1*
X574258D2*
X614723D1*
X708142D2*
X752805D1*
X834597D2*
X874560D1*
X967979D2*
X988708D1*
X1145139D2*
X1236739D1*
X1330158D2*
X1352789D1*
X1507605D2*
X1621992D1*
X1715411D2*
X1821975D1*
X1915393D2*
X2732823D1*
X2826241D2*
X2843597D1*
X3088088D2*
X3196985D1*
X3290403D2*
X3299769D1*
X3393176D2*
X3402709D1*
X3484680D2*
X3760367D1*
X4003386D2*
X4197292D1*
X448089Y3184613D2*
X480839D1*
X574258D2*
X614723D1*
X708142D2*
X737483D1*
X849920D2*
X874560D1*
X967979D2*
X988708D1*
X1145139D2*
X1236739D1*
X1507605D2*
X1621992D1*
X1715411D2*
X1821975D1*
X1915393D2*
X2733038D1*
X2848920D2*
X2869900D1*
X3075924D2*
X3196985D1*
X3290403D2*
X3299712D1*
X3393176D2*
X3760367D1*
X4003386D2*
X4197292D1*
X448089Y3159744D2*
X480839D1*
X574258D2*
X614723D1*
X708142D2*
X735904D1*
X851499D2*
X874560D1*
X967979D2*
X988708D1*
X1145139D2*
X1236739D1*
X1507605D2*
X1621992D1*
X1715411D2*
X1821975D1*
X1915393D2*
X2743875D1*
X2873788D2*
X2968438D1*
X3089416D2*
X3196985D1*
X3402649D2*
X3760367D1*
X4003386D2*
X4197292D1*
X448089Y3134875D2*
X480839D1*
X574258D2*
X614723D1*
X708142D2*
X746561D1*
X840841D2*
X874560D1*
X967979D2*
X988708D1*
X1145139D2*
X1236739D1*
X1330158D2*
X1346545D1*
X1507605D2*
X1621992D1*
X1715411D2*
X1821975D1*
X1915393D2*
X2768599D1*
X2898656D2*
X2968438D1*
X3089416D2*
X3196985D1*
X3399671D2*
X3560276D1*
X3627105D2*
X3760367D1*
X4003386D2*
X4197292D1*
X448089Y3110007D2*
X480839D1*
X717400D2*
X753343D1*
X834059D2*
X874560D1*
X967979D2*
X988708D1*
X1145139D2*
X1236739D1*
X1330158D2*
X1353363D1*
X1507605D2*
X1621992D1*
X1715411D2*
X1821975D1*
X1915393D2*
X2793467D1*
X2923524D2*
X2968438D1*
X3089416D2*
X3196985D1*
X3290403D2*
X3299769D1*
X3393176D2*
X3542370D1*
X3645047D2*
X3760367D1*
X4003386D2*
X4197292D1*
X448089Y3085138D2*
X480839D1*
X849741D2*
X874560D1*
X967979D2*
X988708D1*
X1145139D2*
X1236739D1*
X1507605D2*
X1621992D1*
X1715411D2*
X1821975D1*
X1915393D2*
X2818335D1*
X2947638D2*
X2968438D1*
X3089416D2*
X3196985D1*
X3290403D2*
X3299769D1*
X3393176D2*
X3540432D1*
X3667295D2*
X3760367D1*
X4003386D2*
X4197292D1*
X448089Y3060269D2*
X480839D1*
X851571D2*
X874560D1*
X967979D2*
X988708D1*
X1145139D2*
X1236739D1*
X1507605D2*
X1621992D1*
X1715411D2*
X1821975D1*
X1915393D2*
X2843203D1*
X2956142D2*
X3103291D1*
X3290403D2*
X3299769D1*
X3393176D2*
X3546999D1*
X3692163D2*
X3760367D1*
X4003386D2*
X4197292D1*
X448089Y3035400D2*
X480839D1*
X654172D2*
X661999D1*
X841236D2*
X874560D1*
X967979D2*
X988708D1*
X1145139D2*
X1236739D1*
X1330158D2*
X1346150D1*
X1507605D2*
X1621992D1*
X1715411D2*
X1821975D1*
X1915393D2*
X2593054D1*
X2686508D2*
X2800895D1*
X2956142D2*
X3094428D1*
X3290403D2*
X3299769D1*
X3393176D2*
X3546999D1*
X3853785D2*
X3909968D1*
X4003386D2*
X4010988D1*
X4076411D2*
X4197292D1*
X448089Y3010531D2*
X480839D1*
X636373D2*
X686850D1*
X833449D2*
X874560D1*
X967979D2*
X988708D1*
X1153931D2*
X1236739D1*
X1330158D2*
X1353937D1*
X1507605D2*
X1621992D1*
X1715411D2*
X1821975D1*
X1915393D2*
X2562050D1*
X2701687D2*
X2785716D1*
X2956142D2*
X3098519D1*
X3290403D2*
X3299769D1*
X3393176D2*
X3543160D1*
X3853785D2*
X3909968D1*
X4094855D2*
X4197292D1*
X448089Y2985663D2*
X480839D1*
X651660D2*
X711718D1*
X849597D2*
X874560D1*
X967979D2*
X988708D1*
X1153034D2*
X1219838D1*
X1330158D2*
X1337831D1*
X1532365D2*
X1621992D1*
X1715411D2*
X1821975D1*
X1915393D2*
X2538761D1*
X2703625D2*
X2783778D1*
X2956142D2*
X3101533D1*
X3290403D2*
X3299769D1*
X3393176D2*
X3411357D1*
X3853785D2*
X3909968D1*
X4097044D2*
X4197292D1*
X448089Y2960794D2*
X480839D1*
X653633D2*
X735724D1*
X851642D2*
X874560D1*
X967979D2*
X988708D1*
X1138142D2*
X1194970D1*
X1323448D2*
X1335744D1*
X1557269D2*
X1621992D1*
X1715411D2*
X1821975D1*
X1915393D2*
X2532015D1*
X2693936D2*
X2793467D1*
X2956142D2*
X3101533D1*
X3290403D2*
X3299769D1*
X3853785D2*
X3909968D1*
X4085812D2*
X4197292D1*
X448089Y2935925D2*
X480839D1*
X644052D2*
X745772D1*
X841631D2*
X874560D1*
X967979D2*
X988708D1*
X1082126D2*
X1170102D1*
X1300159D2*
X1345756D1*
X1441614D2*
X1452079D1*
X1582137D2*
X1621992D1*
X1715411D2*
X1821975D1*
X1915393D2*
X2532015D1*
X2956142D2*
X3101533D1*
X3290403D2*
X3299769D1*
X3598577D2*
X3621997D1*
X3853785D2*
X3909968D1*
X4003386D2*
X4197292D1*
X448089Y2911056D2*
X481736D1*
X832875D2*
X874560D1*
X967979D2*
X988708D1*
X1082126D2*
X1145235D1*
X1275291D2*
X1354547D1*
X1606394D2*
X1621992D1*
X1715411D2*
X1821975D1*
X1915393D2*
X2532015D1*
X2956142D2*
X3097047D1*
X3290403D2*
X3299769D1*
X3393176D2*
X3401381D1*
X3573637D2*
X3621997D1*
X3853785D2*
X3909968D1*
X4003386D2*
X4197292D1*
X448089Y2886188D2*
X496233D1*
X849418D2*
X874560D1*
X967979D2*
X988708D1*
X1082126D2*
X1120690D1*
X1250423D2*
X1337969D1*
X1715411D2*
X1821975D1*
X1915393D2*
X2532015D1*
X2956142D2*
X3096976D1*
X3290403D2*
X3299769D1*
X3393176D2*
X3528985D1*
X3853785D2*
X3909968D1*
X4003386D2*
X4027345D1*
X4105333D2*
X4197292D1*
X448089Y2861319D2*
X521101D1*
X851714D2*
X874560D1*
X967979D2*
X988708D1*
X1082126D2*
X1110894D1*
X1225556D2*
X1321283D1*
X1715411D2*
X1821975D1*
X1915393D2*
X2532015D1*
X2956142D2*
X3096976D1*
X3290403D2*
X3299769D1*
X3393176D2*
X3500637D1*
X3853785D2*
X3909968D1*
X4122019D2*
X4197292D1*
X448089Y2836450D2*
X546005D1*
X841990D2*
X874560D1*
X967979D2*
X988708D1*
X1082126D2*
X1110786D1*
X1204204D2*
X1296415D1*
X1493359D2*
X1521983D1*
X1715411D2*
X1821975D1*
X1915393D2*
X2532015D1*
X2704199D2*
X2783204D1*
X2956142D2*
X3096976D1*
X3290403D2*
X3299998D1*
X3415962D2*
X3496977D1*
X3853785D2*
X3885602D1*
X4124388D2*
X4197292D1*
X448089Y2811581D2*
X518230D1*
X832265D2*
X874560D1*
X967979D2*
X988708D1*
X1082126D2*
X1110786D1*
X1204204D2*
X1271547D1*
X1432249D2*
X1521983D1*
X1715411D2*
X1821975D1*
X1915393D2*
X2532015D1*
X2625434D2*
X2796984D1*
X2956142D2*
X3096976D1*
X3290403D2*
X3310917D1*
X3440830D2*
X3496977D1*
X3990755D2*
X4017943D1*
X4114735D2*
X4197292D1*
X448089Y2786713D2*
X484499D1*
X849238D2*
X874560D1*
X967979D2*
X988708D1*
X1082126D2*
X1110786D1*
X1204204D2*
X1246679D1*
X1449258D2*
X1521983D1*
X1715411D2*
X1821975D1*
X1915393D2*
X2532015D1*
X2625434D2*
X2796984D1*
X2956142D2*
X3096976D1*
X3290403D2*
X3305319D1*
X3482097D2*
X3496977D1*
X3590395D2*
X3605311D1*
X4081470D2*
X4197292D1*
X448089Y2761844D2*
X459615D1*
X851786D2*
X874560D1*
X967979D2*
X988708D1*
X1082126D2*
X1110786D1*
X1204204D2*
X1221812D1*
X1451805D2*
X1521983D1*
X1715411D2*
X1821975D1*
X1915393D2*
X2532015D1*
X2625434D2*
X2796984D1*
X2956142D2*
X3088184D1*
X4106338D2*
X4197292D1*
X842384Y2736975D2*
X874560D1*
X967979D2*
X988708D1*
X1082126D2*
X1110786D1*
X1327000D2*
X1345038D1*
X1442368D2*
X1521983D1*
X1715411D2*
X1821975D1*
X1915393D2*
X2532015D1*
X2625434D2*
X2796984D1*
X2956142D2*
X3085600D1*
X4131206D2*
X4197292D1*
X539916Y2712106D2*
X549450D1*
X637952D2*
X755784D1*
X831619D2*
X874560D1*
X967979D2*
X988708D1*
X1082126D2*
X1110786D1*
X1302132D2*
X1355803D1*
X1431603D2*
X1521983D1*
X1715411D2*
X1821975D1*
X1915393D2*
X2532015D1*
X2640326D2*
X2796984D1*
X2956142D2*
X3094930D1*
X4145093D2*
X4197292D1*
X527034Y2687238D2*
X540837D1*
X646564D2*
X738344D1*
X849059D2*
X874560D1*
X967979D2*
X988708D1*
X1082126D2*
X1110786D1*
X1278987D2*
X1338327D1*
X1449078D2*
X1521983D1*
X1715411D2*
X1821975D1*
X1915393D2*
X2537577D1*
X2665193D2*
X2772224D1*
X2956142D2*
X3522203D1*
X3652260D2*
X3783189D1*
X4027393D2*
X4050885D1*
X4145847D2*
X4197292D1*
X527034Y2662369D2*
X545431D1*
X641971D2*
X735545D1*
X851858D2*
X874560D1*
X967979D2*
X988708D1*
X1082126D2*
X1110786D1*
X1278987D2*
X1335529D1*
X1451877D2*
X1521983D1*
X1715411D2*
X1821975D1*
X1915393D2*
X2560005D1*
X2690061D2*
X2741614D1*
X2956142D2*
X3497335D1*
X3627392D2*
X3778452D1*
X4145847D2*
X4197292D1*
X527034Y2637500D2*
X570837D1*
X616565D2*
X744660D1*
X842743D2*
X874560D1*
X967979D2*
X988708D1*
X1082126D2*
X1110786D1*
X1278987D2*
X1344679D1*
X1442727D2*
X1521983D1*
X1715411D2*
X1821975D1*
X1915393D2*
X2584872D1*
X2852509D2*
X2862724D1*
X2956142D2*
X3359863D1*
X3602524D2*
X3753584D1*
X4145847D2*
X4197292D1*
X527034Y2612631D2*
X756430D1*
X830973D2*
X872623D1*
X967979D2*
X988708D1*
X1082126D2*
X1110786D1*
X1278987D2*
X1356449D1*
X1430957D2*
X1521983D1*
X1715411D2*
X1821975D1*
X1915393D2*
X2609740D1*
X2827641D2*
X2862724D1*
X2959085D2*
X3334995D1*
X3577656D2*
X3728717D1*
X3858737D2*
X3890052D1*
X4145847D2*
X4197292D1*
X527034Y2587762D2*
X738523D1*
X967154D2*
X988708D1*
X1082126D2*
X1110786D1*
X1278987D2*
X1338507D1*
X1448863D2*
X1521983D1*
X1715411D2*
X1821975D1*
X1915393D2*
X2634608D1*
X2810632D2*
X2863764D1*
X2983952D2*
X3310128D1*
X3833869D2*
X3896978D1*
X4145847D2*
X4197292D1*
X527034Y2562894D2*
X735473D1*
X952908D2*
X988708D1*
X1082126D2*
X1110786D1*
X1278987D2*
X1335493D1*
X1451913D2*
X1521983D1*
X1715411D2*
X1821975D1*
X1915393D2*
X2659476D1*
X2794843D2*
X2878764D1*
X3008820D2*
X3272126D1*
X3415316D2*
X3497874D1*
X3809002D2*
X3896978D1*
X527034Y2538025D2*
X567033D1*
X620369D2*
X744337D1*
X928040D2*
X988708D1*
X1082126D2*
X1110786D1*
X1278987D2*
X1344320D1*
X1443086D2*
X1521983D1*
X1715411D2*
X1821975D1*
X1915393D2*
X2684343D1*
X2817450D2*
X2903632D1*
X3033688D2*
X3253754D1*
X3390449D2*
X3473006D1*
X3784134D2*
X3896978D1*
X527034Y2513156D2*
X544605D1*
X642796D2*
X757111D1*
X903172D2*
X988708D1*
X1082126D2*
X1110786D1*
X1278987D2*
X1357131D1*
X1430275D2*
X1521983D1*
X1715411D2*
X1821975D1*
X1915393D2*
X2162121D1*
X2433740D2*
X2709211D1*
X2839267D2*
X2928499D1*
X3058556D2*
X3250919D1*
X3365581D2*
X3448138D1*
X3578195D2*
X3895758D1*
X527034Y2488287D2*
X541017D1*
X646385D2*
X738703D1*
X878304D2*
X988708D1*
X1082126D2*
X1110786D1*
X1278987D2*
X1338722D1*
X1448683D2*
X1521983D1*
X1715411D2*
X1821975D1*
X1915393D2*
X2137253D1*
X2458608D2*
X2726364D1*
X2863776D2*
X2953367D1*
X3380114D2*
X3407302D1*
X3580132D2*
X3607285D1*
X3680106D2*
X3707294D1*
X3780115D2*
X3870890D1*
X527034Y2463419D2*
X547009D1*
X640392D2*
X735437D1*
X853437D2*
X982177D1*
X1088693D2*
X1110786D1*
X1278987D2*
X1335421D1*
X1451985D2*
X1521983D1*
X1715411D2*
X1732444D1*
X1804942D2*
X1821975D1*
X1915393D2*
X1932462D1*
X2004960D2*
X2032471D1*
X2104933D2*
X2122863D1*
X2483476D2*
X2743588D1*
X2873393D2*
X2978271D1*
X527034Y2438550D2*
X547009D1*
X640392D2*
X743978D1*
X843425D2*
X979270D1*
X1278987D2*
X1343997D1*
X1443408D2*
X1513801D1*
X2495174D2*
X2720192D1*
X2873465D2*
X3003138D1*
X3951211D2*
X3976928D1*
X527034Y2413681D2*
X547009D1*
X640392D2*
X757793D1*
X829609D2*
X838245D1*
X1278987D2*
X1357813D1*
X1429593D2*
X1510392D1*
X2495533D2*
X2698661D1*
X2873465D2*
X3016272D1*
X3947228D2*
X3976928D1*
X527034Y2388812D2*
X547009D1*
X640392D2*
X738918D1*
X1278987D2*
X1338902D1*
X1448468D2*
X1518825D1*
X2495533D2*
X2673793D1*
X2873465D2*
X3016272D1*
X3290403D2*
X3330007D1*
X3467169D2*
X3529990D1*
X3557418D2*
X3629999D1*
X527034Y2363944D2*
X547009D1*
X640392D2*
X735401D1*
X1153357D2*
X1161131D1*
X1278557D2*
X1335385D1*
X1452021D2*
X1554386D1*
X1583034D2*
X1648905D1*
X1783016D2*
X1854378D1*
X1883026D2*
X1954387D1*
X2088463D2*
X2154370D1*
X2183017D2*
X2210170D1*
X2495533D2*
X2648926D1*
X2873465D2*
X3016272D1*
X3109691D2*
X3196985D1*
X3290403D2*
X3358428D1*
X3492431D2*
X3591603D1*
X3645800D2*
X3658420D1*
X4070346D2*
X4118634D1*
X527034Y2339075D2*
X547009D1*
X640392D2*
X743655D1*
X1266284D2*
X1343638D1*
X1443731D2*
X1624037D1*
X1754094D2*
X1983310D1*
X2113330D2*
X2339102D1*
X2495533D2*
X2626965D1*
X2873465D2*
X3016272D1*
X3109691D2*
X3197164D1*
X3312544D2*
X3361873D1*
X3668479D2*
X3685907D1*
X4070346D2*
X4118634D1*
X527034Y2314206D2*
X547009D1*
X640392D2*
X758511D1*
X828856D2*
X1042068D1*
X1241416D2*
X1358530D1*
X1428875D2*
X1599170D1*
X1729226D2*
X2008178D1*
X2321674D2*
X2339102D1*
X2495533D2*
X2621977D1*
X2873250D2*
X3016272D1*
X3109691D2*
X3207571D1*
X3777208D2*
X3795820D1*
X4070597D2*
X4099185D1*
X527034Y2289337D2*
X547009D1*
X640392D2*
X739133D1*
X848269D2*
X1050680D1*
X1216549D2*
X1339117D1*
X1448289D2*
X1574302D1*
X1704358D2*
X2033045D1*
X2495533D2*
X2621977D1*
X2862305D2*
X3016272D1*
X3109691D2*
X3142369D1*
X3195059D2*
X3232259D1*
X3777208D2*
X3790115D1*
X650332Y2264469D2*
X724457D1*
X852073D2*
X1335349D1*
X1452057D2*
X1549434D1*
X1679491D2*
X2057913D1*
X2495533D2*
X2621977D1*
X2814436D2*
X3016272D1*
X3109691D2*
X3119080D1*
X3218312D2*
X3257127D1*
X3543315D2*
X3660178D1*
X3777208D2*
X3785210D1*
X3902193D2*
X3942622D1*
X4179506D2*
X4197292D1*
X654028Y2239600D2*
X699589D1*
X844071D2*
X1343315D1*
X1444054D2*
X1524566D1*
X1654623D2*
X2266257D1*
X2495533D2*
X2621977D1*
X2814436D2*
X3016272D1*
X3237833D2*
X3369731D1*
X3417685D2*
X3439885D1*
X3562836D2*
X3660178D1*
X3777208D2*
X3791980D1*
X3895411D2*
X3919154D1*
X4154638D2*
X4197292D1*
X448089Y2214731D2*
X457679D1*
X646421D2*
X674721D1*
X828138D2*
X1359284D1*
X1428122D2*
X1499699D1*
X1629755D2*
X2287931D1*
X2495533D2*
X2621977D1*
X2814436D2*
X3016272D1*
X3109691D2*
X3123638D1*
X3262701D2*
X3448641D1*
X3587704D2*
X3660178D1*
X3777208D2*
X3797004D1*
X3890423D2*
X3914848D1*
X4129735D2*
X4197292D1*
X448089Y2189862D2*
X482526D1*
X848054D2*
X1339332D1*
X1448073D2*
X1474831D1*
X1604887D2*
X2287931D1*
X2495533D2*
X2621977D1*
X2814436D2*
X3016272D1*
X3109691D2*
X3157512D1*
X3287569D2*
X3482515D1*
X3612572D2*
X3671984D1*
X3765402D2*
X3797004D1*
X3903915D2*
X3921989D1*
X4104867D2*
X4197292D1*
X448089Y2164993D2*
X507393D1*
X862444D2*
X1335313D1*
X1602734D2*
X1634659D1*
X1702743D2*
X1734668D1*
X1802753D2*
X1834642D1*
X1902762D2*
X1934651D1*
X2002735D2*
X2034660D1*
X2102745D2*
X2134669D1*
X2202754D2*
X2234643D1*
X2495533D2*
X2621977D1*
X2814436D2*
X3016272D1*
X3109691D2*
X3182380D1*
X3312436D2*
X3507383D1*
X3637439D2*
X3672163D1*
X3787435D2*
X3801813D1*
X4088934D2*
X4197292D1*
X448089Y2140125D2*
X532261D1*
X730139D2*
X743009D1*
X887311D2*
X1343028D1*
X2495533D2*
X2621977D1*
X2814436D2*
X3016272D1*
X3109691D2*
X3207248D1*
X3337304D2*
X3532251D1*
X3659867D2*
X3682462D1*
X3812303D2*
X3823616D1*
X4015408D2*
X4197292D1*
X448089Y2115256D2*
X533230D1*
X708142D2*
X760054D1*
X903567D2*
X1360037D1*
X2495533D2*
X2621977D1*
X2814436D2*
X3016272D1*
X3109691D2*
X3232115D1*
X3362172D2*
X3557118D1*
X3665393D2*
X3707114D1*
X3837171D2*
X3848462D1*
X4011317D2*
X4180068D1*
X448089Y2090387D2*
X533230D1*
X708142D2*
X739564D1*
X904966D2*
X1082653D1*
X1505416D2*
X1517840D1*
X2495533D2*
X2621977D1*
X2814436D2*
X3016272D1*
X3109691D2*
X3256983D1*
X3537035D2*
X3571975D1*
X3665393D2*
X3731982D1*
X3862039D2*
X3884346D1*
X3979236D2*
X4158573D1*
X448089Y2065518D2*
X547009D1*
X708142D2*
X735258D1*
X904966D2*
X1057785D1*
X1503407D2*
X1548609D1*
X1688820D2*
X1748591D1*
X1788794D2*
X1848601D1*
X1888803D2*
X1948610D1*
X1988812D2*
X2048583D1*
X2088786D2*
X2148592D1*
X2188795D2*
X2248602D1*
X2495533D2*
X2621977D1*
X2814436D2*
X3016272D1*
X3117621D2*
X3281851D1*
X3562477D2*
X3571968D1*
X3665393D2*
X3756850D1*
X3886906D2*
X4154052D1*
X4260353D2*
X4276345D1*
X448089Y2040650D2*
X547009D1*
X708142D2*
X742722D1*
X904966D2*
X1033743D1*
X1503407D2*
X1525643D1*
X1655663D2*
X1795061D1*
X1842333D2*
X2287931D1*
X2495533D2*
X2621977D1*
X2814436D2*
X3018712D1*
X3667797D2*
X3781718D1*
X3911774D2*
X4154052D1*
X4247471D2*
X4276345D1*
X448089Y2015781D2*
X547009D1*
X708142D2*
X760843D1*
X904966D2*
X1025525D1*
X1138070D2*
X1360827D1*
X1630796D2*
X1769691D1*
X1867703D2*
X2287931D1*
X2495533D2*
X2621977D1*
X2814436D2*
X3037300D1*
X3672606D2*
X3806585D1*
X3936642D2*
X4154052D1*
X4247471D2*
X4276345D1*
X448089Y1990912D2*
X547009D1*
X708142D2*
X739779D1*
X904966D2*
X1025525D1*
X1118944D2*
X1181585D1*
X1605928D2*
X1764775D1*
X1872619D2*
X2287931D1*
X2495533D2*
X2621977D1*
X2814436D2*
X3062168D1*
X3664568D2*
X3831453D1*
X3961509D2*
X4154052D1*
X4247471D2*
X4276345D1*
X448089Y1966043D2*
X547009D1*
X708142D2*
X735258D1*
X904966D2*
X1025525D1*
X1118944D2*
X1156718D1*
X1590426D2*
X1771988D1*
X1865407D2*
X2287931D1*
X2495533D2*
X2602312D1*
X2814436D2*
X2833227D1*
X3029669D2*
X3088902D1*
X3664424D2*
X3856321D1*
X3991437D2*
X4154052D1*
X4247471D2*
X4276345D1*
X448089Y1941175D2*
X547009D1*
X708142D2*
X742399D1*
X904966D2*
X1025525D1*
X1118944D2*
X1133034D1*
X1590426D2*
X1771234D1*
X1865407D2*
X2287931D1*
X2495533D2*
X2602312D1*
X2814436D2*
X2833227D1*
X3049656D2*
X3114774D1*
X3222618D2*
X3335175D1*
X3677235D2*
X3881189D1*
X4066148D2*
X4154052D1*
X4247471D2*
X4276345D1*
X448089Y1916306D2*
X547009D1*
X708142D2*
X761669D1*
X904966D2*
X1025525D1*
X1237039D2*
X1255579D1*
X1702205D2*
X1746367D1*
X1864796D2*
X2287931D1*
X2495533D2*
X2602312D1*
X2814436D2*
X2833227D1*
X3054142D2*
X3122597D1*
X3214795D2*
X3290212D1*
X3754242D2*
X3785198D1*
X4092451D2*
X4154052D1*
X4247471D2*
X4276345D1*
X448089Y1891437D2*
X547009D1*
X708142D2*
X739995D1*
X904966D2*
X1025525D1*
X1218917D2*
X1256332D1*
X1851519D2*
X2287931D1*
X2495533D2*
X2602312D1*
X2814436D2*
X2833227D1*
X3047396D2*
X3171902D1*
X3215513D2*
X3284004D1*
X3452205D2*
X3469992D1*
X3773369D2*
X3785198D1*
X3902229D2*
X3921989D1*
X4097654D2*
X4154052D1*
X4247471D2*
X4276345D1*
X448089Y1866568D2*
X547009D1*
X708142D2*
X735222D1*
X904966D2*
X1025525D1*
X1218917D2*
X1264298D1*
X1826652D2*
X2287931D1*
X2495533D2*
X2602312D1*
X2814436D2*
X2833227D1*
X3040398D2*
X3145060D1*
X3242355D2*
X3284004D1*
X3452205D2*
X3464777D1*
X3777029D2*
X3785189D1*
X3902229D2*
X3921989D1*
X4090405D2*
X4154052D1*
X4247471D2*
X4276345D1*
X448089Y1841699D2*
X547009D1*
X708142D2*
X742112D1*
X904966D2*
X1025525D1*
X1218917D2*
X1264298D1*
X1801784D2*
X2264857D1*
X2495533D2*
X2606582D1*
X2814436D2*
X2946980D1*
X3040398D2*
X3139750D1*
X3247665D2*
X3284040D1*
X3452205D2*
X3472360D1*
X3768919D2*
X3785198D1*
X3902229D2*
X3921989D1*
X4090405D2*
X4154052D1*
X4247471D2*
X4276345D1*
X448089Y1816831D2*
X547009D1*
X708142D2*
X770030D1*
X904966D2*
X1025525D1*
X1218917D2*
X1264298D1*
X1357717D2*
X1370076D1*
X1511983D2*
X1520045D1*
X1567352D2*
X1585175D1*
X1702205D2*
X2226641D1*
X2495533D2*
X2602348D1*
X2822976D2*
X2938439D1*
X3040398D2*
X3146998D1*
X3240417D2*
X3289745D1*
X3410580D2*
X3695201D1*
X3902229D2*
X3921989D1*
X4090405D2*
X4154052D1*
X4247471D2*
X4276345D1*
X448089Y1791962D2*
X547009D1*
X708142D2*
X811548D1*
X904966D2*
X1025525D1*
X1218917D2*
X1264298D1*
X1371497D2*
X1412644D1*
X1784559D2*
X2215768D1*
X2504683D2*
X2608161D1*
X3037743D2*
X3146998D1*
X3435447D2*
X3689746D1*
X4087750D2*
X4154052D1*
X4247471D2*
X4276345D1*
X448089Y1767093D2*
X547009D1*
X708142D2*
X811548D1*
X904966D2*
X1025525D1*
X1218917D2*
X1269250D1*
X1396364D2*
X1431662D1*
X1810324D2*
X2217634D1*
X2502817D2*
X2624488D1*
X3018724D2*
X3146998D1*
X3460315D2*
X3697103D1*
X4065035D2*
X4154052D1*
X4247471D2*
X4276345D1*
X448089Y1742224D2*
X547009D1*
X708142D2*
X811548D1*
X904966D2*
X1025525D1*
X1218917D2*
X1291176D1*
X1421232D2*
X1456530D1*
X1838422D2*
X2076609D1*
X2730610D2*
X2767559D1*
X2993857D2*
X3150658D1*
X3485183D2*
X3739913D1*
X3747494D2*
X3854563D1*
X3977227D2*
X4154052D1*
X4247471D2*
X4276345D1*
X448089Y1717356D2*
X547009D1*
X708142D2*
X811548D1*
X904966D2*
X1025525D1*
X1218917D2*
X1316043D1*
X1446100D2*
X1483730D1*
X1866950D2*
X2051741D1*
X2735096D2*
X2772188D1*
X2966656D2*
X3178971D1*
X3333429D2*
X3380030D1*
X3510051D2*
X3829695D1*
X3971844D2*
X4154052D1*
X4247471D2*
X4276345D1*
X448089Y1692487D2*
X547009D1*
X708142D2*
X811548D1*
X904966D2*
X1025525D1*
X1218917D2*
X1340911D1*
X1470968D2*
X1754907D1*
X1872691D2*
X2027555D1*
X2729462D2*
X2772188D1*
X2865606D2*
X3404898D1*
X3534918D2*
X3804827D1*
X3948627D2*
X4154052D1*
X4247471D2*
X4276345D1*
X448089Y1667618D2*
X547009D1*
X708142D2*
X811548D1*
X904966D2*
X1025525D1*
X1218917D2*
X1365779D1*
X1495835D2*
X1771808D1*
X1865586D2*
X2018871D1*
X2132062D2*
X2177407D1*
X2498762D2*
X2621977D1*
X2715395D2*
X2772188D1*
X2865606D2*
X3429766D1*
X3592512D2*
X3779959D1*
X3910016D2*
X4091685D1*
X4132175D2*
X4154052D1*
X4247471D2*
X4276345D1*
X448089Y1642749D2*
X547009D1*
X708142D2*
X811548D1*
X904966D2*
X1025525D1*
X1218917D2*
X1390647D1*
X1520703D2*
X1771988D1*
X1865407D2*
X2018835D1*
X2112254D2*
X2152540D1*
X2505365D2*
X2622084D1*
X2736639D2*
X2772188D1*
X2865606D2*
X3454633D1*
X3619138D2*
X3759828D1*
X3885148D2*
X4063588D1*
X4249121D2*
X4276345D1*
X448089Y1617881D2*
X547009D1*
X708142D2*
X811548D1*
X904966D2*
X1025525D1*
X1218917D2*
X1415514D1*
X1537282D2*
X1756199D1*
X1865407D2*
X1893276D1*
X1972844D2*
X2018835D1*
X2112254D2*
X2127851D1*
X2499839D2*
X2631809D1*
X2759425D2*
X2772188D1*
X2865606D2*
X3479501D1*
X3644006D2*
X3756455D1*
X3860280D2*
X4057954D1*
X4254755D2*
X4276345D1*
X527321Y1593012D2*
X547009D1*
X783247D2*
X811548D1*
X904966D2*
X940802D1*
X1003648D2*
X1025525D1*
X1334679D2*
X1440382D1*
X1538825D2*
X1732085D1*
X1859342D2*
X1878420D1*
X1987700D2*
X2018835D1*
X2566512D2*
X2656354D1*
X2865606D2*
X3176387D1*
X3211028D2*
X3470817D1*
X3662845D2*
X3756455D1*
X3849874D2*
X4065131D1*
X4247578D2*
X4276345D1*
X801871Y1568143D2*
X811548D1*
X904966D2*
X916509D1*
X1334679D2*
X1445406D1*
X1538825D2*
X1723580D1*
X1836520D2*
X1877559D1*
X1988561D2*
X2018835D1*
X2591379D2*
X2671999D1*
X2865606D2*
X3145886D1*
X3241529D2*
X3326814D1*
X3360593D2*
X3464717D1*
X3665393D2*
X3756455D1*
X3849874D2*
X4103383D1*
X4120472D2*
X4192233D1*
X4209323D2*
X4276345D1*
X1334679Y1543274D2*
X1445406D1*
X1538825D2*
X1621203D1*
X2616068D2*
X2671999D1*
X2865606D2*
X3139714D1*
X3247701D2*
X3295953D1*
X3391453D2*
X3471427D1*
X3665393D2*
X3727281D1*
X3849874D2*
X4276345D1*
X799503Y1518406D2*
X811548D1*
X904966D2*
X913997D1*
X1359332D2*
X1445406D1*
X1538825D2*
X1621203D1*
X2475438D2*
X2511059D1*
X2626654D2*
X2671999D1*
X2865606D2*
X3146352D1*
X3241063D2*
X3289710D1*
X3397697D2*
X3472001D1*
X3672570D2*
X3696026D1*
X3849874D2*
X4276345D1*
X448089Y1493537D2*
X456030D1*
X519570D2*
X547009D1*
X775460D2*
X802935D1*
X904966D2*
X925516D1*
X1018934D2*
X1032451D1*
X1112018D2*
X1132460D1*
X1384200D2*
X1445406D1*
X1538825D2*
X1621203D1*
X2475438D2*
X2533414D1*
X2626833D2*
X2658220D1*
X2865606D2*
X3146998D1*
X3240417D2*
X3296276D1*
X3391130D2*
X3472001D1*
X3677163D2*
X3689711D1*
X3849874D2*
X4276345D1*
X448089Y1468668D2*
X522752D1*
X708142D2*
X797589D1*
X901270D2*
X925516D1*
X1018934D2*
X1279011D1*
X1409067D2*
X1445406D1*
X1538825D2*
X1621203D1*
X2475438D2*
X2533414D1*
X2626833D2*
X2658220D1*
X2865606D2*
X3146998D1*
X3240417D2*
X3329039D1*
X3358368D2*
X3472001D1*
X3670058D2*
X3696206D1*
X3849874D2*
X4276345D1*
X448089Y1443799D2*
X497884D1*
X708142D2*
X797589D1*
X891007D2*
X925516D1*
X1018934D2*
X1303915D1*
X1433935D2*
X1445406D1*
X1538825D2*
X1556432D1*
X2517207D2*
X2533414D1*
X2626833D2*
X2658220D1*
X2865606D2*
X3146998D1*
X3240417D2*
X3472001D1*
X3565420D2*
X3596017D1*
X3641351D2*
X3693335D1*
X3849874D2*
X4276345D1*
X603037Y1418930D2*
X614723D1*
X891007D2*
X925516D1*
X1018934D2*
X1328782D1*
X1649097D2*
X1814367D1*
X2404566D2*
X2424542D1*
X2626833D2*
X2658220D1*
X2865606D2*
X3146998D1*
X3407135D2*
X3472001D1*
X3565420D2*
X3668467D1*
X3849874D2*
X4276345D1*
X578169Y1394062D2*
X614723D1*
X891007D2*
X925516D1*
X1018934D2*
X1353650D1*
X1648810D2*
X1815767D1*
X2302512D2*
X2311148D1*
X2404566D2*
X2424829D1*
X2626833D2*
X2658220D1*
X2865606D2*
X3140072D1*
X3433366D2*
X3472001D1*
X3565420D2*
X3643599D1*
X3849874D2*
X3860182D1*
X3977227D2*
X4276345D1*
X553301Y1369193D2*
X614723D1*
X891007D2*
X925516D1*
X1018934D2*
X1378518D1*
X1542269D2*
X1557652D1*
X1634097D2*
X1831520D1*
X1908647D2*
X2304186D1*
X2404566D2*
X2439541D1*
X2515987D2*
X2533414D1*
X2626833D2*
X2664105D1*
X2865606D2*
X3115205D1*
X3458234D2*
X3472001D1*
X3565420D2*
X3618732D1*
X3849874D2*
X3860182D1*
X3977227D2*
X4096745D1*
X4127079D2*
X4185630D1*
X4215928D2*
X4276345D1*
X545084Y1344324D2*
X614723D1*
X891007D2*
X925516D1*
X1018934D2*
X1120295D1*
X1210412D2*
X1391687D1*
X2402449D2*
X2533414D1*
X2626833D2*
X2658220D1*
X2865606D2*
X3090337D1*
X3565420D2*
X3600467D1*
X3849874D2*
X3860182D1*
X3977227D2*
X4064413D1*
X4248260D2*
X4276345D1*
X534498Y1319455D2*
X614723D1*
X891007D2*
X925516D1*
X1018934D2*
X1109458D1*
X1221249D2*
X1391687D1*
X2384471D2*
X2533414D1*
X2626833D2*
X2663530D1*
X2858358D2*
X3065469D1*
X3195490D2*
X3377913D1*
X3565420D2*
X3598170D1*
X3849874D2*
X3860182D1*
X3977227D2*
X4047081D1*
X4254755D2*
X4276345D1*
X534498Y1294587D2*
X614723D1*
X708142D2*
X797589D1*
X891007D2*
X925516D1*
X1018934D2*
X1111360D1*
X1219348D2*
X1391687D1*
X2359604D2*
X2533414D1*
X2626833D2*
X2671999D1*
X2765418D2*
X3048640D1*
X3170622D2*
X3395711D1*
X3565420D2*
X3598170D1*
X3849874D2*
X3860182D1*
X3977227D2*
X4022213D1*
X4248475D2*
X4276345D1*
X534498Y1269718D2*
X614723D1*
X708142D2*
X797589D1*
X891007D2*
X925516D1*
X1018934D2*
X1118609D1*
X1212027D2*
X1370013D1*
X2334592D2*
X2404267D1*
X2765418D2*
X3046989D1*
X3145754D2*
X3425316D1*
X3558351D2*
X3598170D1*
X3691589D2*
X3725308D1*
X3849874D2*
X3997346D1*
X4128371D2*
X4184302D1*
X4217256D2*
X4276345D1*
X534498Y1244849D2*
X614723D1*
X713883D2*
X797589D1*
X891007D2*
X925516D1*
X1018934D2*
X1118609D1*
X1212027D2*
X1370013D1*
X1506744D2*
X2373120D1*
X2765418D2*
X3046989D1*
X3140408D2*
X3396860D1*
X3534882D2*
X3598170D1*
X3849874D2*
X3972478D1*
X4102498D2*
X4276345D1*
X534498Y1219980D2*
X616445D1*
X738751D2*
X797589D1*
X891007D2*
X925516D1*
X1018934D2*
X1118609D1*
X1212027D2*
X1370013D1*
X1506744D2*
X2348252D1*
X2764700D2*
X3046989D1*
X3140408D2*
X3389719D1*
X3510015D2*
X3598170D1*
X3849874D2*
X3951235D1*
X4077631D2*
X4276345D1*
X529187Y1195112D2*
X633562D1*
X763547D2*
X797589D1*
X891007D2*
X925516D1*
X1018934D2*
X1118573D1*
X1211991D2*
X1370013D1*
X1506744D2*
X2327367D1*
X2750813D2*
X3046989D1*
X3140408D2*
X3395424D1*
X3491965D2*
X3598170D1*
X3849874D2*
X3947000D1*
X4052763D2*
X4276345D1*
X507334Y1170243D2*
X546220D1*
X641182D2*
X658430D1*
X774778D2*
X797589D1*
X891007D2*
X925516D1*
X1024496D2*
X1118573D1*
X1211991D2*
X1370013D1*
X1506744D2*
X2323384D1*
X2648471D2*
X3046989D1*
X3140408D2*
X3397003D1*
X3490422D2*
X3598170D1*
X3691589D2*
X3723801D1*
X3849874D2*
X3947000D1*
X4040419D2*
X4096243D1*
X4191168D2*
X4276345D1*
X775066Y1145374D2*
X797589D1*
X891007D2*
X927202D1*
X1049364D2*
X1118573D1*
X1211991D2*
X1391687D1*
X1485106D2*
X2323384D1*
X2416803D2*
X2427700D1*
X2540819D2*
X3046989D1*
X3140408D2*
X3397003D1*
X3490422D2*
X3598170D1*
X3691589D2*
X3730367D1*
X3849156D2*
X3947000D1*
X4040419D2*
X4060861D1*
X4226550D2*
X4276345D1*
X775066Y1120505D2*
X797589D1*
X891007D2*
X944176D1*
X1074232D2*
X1118537D1*
X1211955D2*
X1391687D1*
X1485106D2*
X2323384D1*
X2416803D2*
X2433908D1*
X2534575D2*
X3046989D1*
X3140408D2*
X3397003D1*
X3490422D2*
X3598170D1*
X3835520D2*
X3947000D1*
X4244420D2*
X4276345D1*
X775066Y1095636D2*
X797589D1*
X891007D2*
X969043D1*
X1099100D2*
X1118537D1*
X1211955D2*
X1391687D1*
X1485106D2*
X2323384D1*
X2416803D2*
X2437532D1*
X2530951D2*
X3046989D1*
X3140408D2*
X3389755D1*
X3506785D2*
X3598170D1*
X3810652D2*
X3947000D1*
X4253930D2*
X4276345D1*
X775066Y1070768D2*
X797589D1*
X891007D2*
X993911D1*
X1211955D2*
X1391687D1*
X1485106D2*
X2323384D1*
X2416803D2*
X2437532D1*
X2632718D2*
X3046989D1*
X3140408D2*
X3395101D1*
X3531653D2*
X3598170D1*
X3792316D2*
X3947000D1*
X4257231D2*
X4276345D1*
X775066Y1045899D2*
X797589D1*
X891007D2*
X1018779D1*
X1211920D2*
X1391687D1*
X1485106D2*
X2323384D1*
X2416803D2*
X2437532D1*
X2632718D2*
X3046989D1*
X3140408D2*
X3422050D1*
X3547585D2*
X3598170D1*
X3691589D2*
X3722042D1*
X3765331D2*
X3947000D1*
X4254899D2*
X4276345D1*
X775066Y1021030D2*
X797589D1*
X891007D2*
X1039520D1*
X1211920D2*
X1391687D1*
X1485106D2*
X2323384D1*
X2416803D2*
X2444529D1*
X2632718D2*
X3046989D1*
X3140408D2*
X3451368D1*
X3548877D2*
X3598170D1*
X3691589D2*
X3947000D1*
X4246502D2*
X4276345D1*
X775066Y996161D2*
X797589D1*
X891007D2*
X1039520D1*
X1211884D2*
X1391687D1*
X1485106D2*
X2323384D1*
X2416803D2*
X3046989D1*
X3140408D2*
X3455459D1*
X3548877D2*
X3598170D1*
X3691589D2*
X3947000D1*
X4040419D2*
X4057093D1*
X4230282D2*
X4276345D1*
X507334Y971293D2*
X537859D1*
X649543D2*
X681647D1*
X775066D2*
X797589D1*
X891007D2*
X1039520D1*
X1211884D2*
X1391687D1*
X1485106D2*
X2323384D1*
X2416803D2*
X3046989D1*
X3140408D2*
X3455459D1*
X3548877D2*
X3598170D1*
X3691589D2*
X3947000D1*
X4040419D2*
X4087846D1*
X4199529D2*
X4276345D1*
X530981Y946424D2*
X665212D1*
X775066D2*
X797589D1*
X891007D2*
X1039520D1*
X1211884D2*
X1391687D1*
X1485106D2*
X2323384D1*
X2416803D2*
X3046989D1*
X3140408D2*
X3455459D1*
X3548877D2*
X3598170D1*
X3691589D2*
X3947000D1*
X4040419D2*
X4276345D1*
X555849Y921555D2*
X659793D1*
X766956D2*
X797589D1*
X891007D2*
X1039520D1*
X1211848D2*
X1391687D1*
X1485106D2*
X2323384D1*
X2416803D2*
X3046989D1*
X3140408D2*
X3455459D1*
X3548877D2*
X3598170D1*
X3691589D2*
X3947000D1*
X4040419D2*
X4276345D1*
X642976Y896686D2*
X655595D1*
X757410D2*
X793390D1*
X895206D2*
X1039520D1*
X1211848D2*
X1391687D1*
X1485106D2*
X2323384D1*
X2416803D2*
X3046989D1*
X3140408D2*
X3455459D1*
X3548877D2*
X3598170D1*
X3691589D2*
X3947000D1*
X4040419D2*
X4276345D1*
X448089Y871818D2*
X475564D1*
X912825D2*
X1039520D1*
X1211848D2*
X1391687D1*
X1485106D2*
X2323384D1*
X2416803D2*
X3046989D1*
X3140408D2*
X3455459D1*
X3548877D2*
X3598170D1*
X3691589D2*
X3947000D1*
X4040419D2*
X4276345D1*
X448089Y846949D2*
X494439D1*
X918495D2*
X1039520D1*
X1211812D2*
X1391687D1*
X1485106D2*
X2323384D1*
X2416803D2*
X3046989D1*
X3140408D2*
X3455459D1*
X3548877D2*
X3598170D1*
X3691589D2*
X3947000D1*
X4040419D2*
X4276345D1*
X448089Y822080D2*
X494439D1*
X915229D2*
X1039520D1*
X1211812D2*
X1386986D1*
X1485106D2*
X2323384D1*
X2416803D2*
X3033963D1*
X3153434D2*
X3447062D1*
X3548877D2*
X3585144D1*
X3704615D2*
X3947000D1*
X4040419D2*
X4276345D1*
X448089Y797211D2*
X494439D1*
X763654D2*
X787111D1*
X901450D2*
X1039520D1*
X1211812D2*
X1362119D1*
X1483635D2*
X2323384D1*
X2416803D2*
X3027396D1*
X3160000D2*
X3440710D1*
X3545576D2*
X3578577D1*
X3711181D2*
X3947000D1*
X4040419D2*
X4276345D1*
X448089Y772343D2*
X494439D1*
X642976D2*
X696324D1*
X716646D2*
X834119D1*
X854441D2*
X1039520D1*
X1211776D2*
X1337251D1*
X1467271D2*
X2323384D1*
X2416803D2*
X3030985D1*
X3156412D2*
X3440710D1*
X3534093D2*
X3582166D1*
X3707593D2*
X3947000D1*
X4040419D2*
X4276345D1*
X448089Y747474D2*
X1039520D1*
X1211776D2*
X1312383D1*
X1442404D2*
X2323384D1*
X2416803D2*
X3047097D1*
X3140300D2*
X3440710D1*
X3534093D2*
X3598278D1*
X3691481D2*
X3947000D1*
X4040419D2*
X4276345D1*
X448089Y722605D2*
X1039520D1*
X1211776D2*
X1287515D1*
X1436913D2*
X2323384D1*
X2416803D2*
X2496023D1*
X2632718D2*
X2696185D1*
X2770765D2*
X3440710D1*
X3534093D2*
X3652858D1*
X3727437D2*
X3947000D1*
X4040419D2*
X4276345D1*
X448089Y697736D2*
X1039520D1*
X1211740D2*
X1262648D1*
X1461781D2*
X2323384D1*
X2416803D2*
X2496023D1*
X2632718D2*
X2662454D1*
X2804460D2*
X3440710D1*
X3534093D2*
X3619162D1*
X3761168D2*
X3947000D1*
X4040419D2*
X4276345D1*
X448089Y672867D2*
X1039520D1*
X1211740D2*
X1237780D1*
X1481805D2*
X2323384D1*
X2416803D2*
X2496023D1*
X2632718D2*
X2647670D1*
X2819244D2*
X2873489D1*
X2998952D2*
X3424670D1*
X3550133D2*
X3604378D1*
X3775952D2*
X3947000D1*
X4040419D2*
X4276345D1*
X448089Y647999D2*
X1039520D1*
X1342933D2*
X1381460D1*
X1485106D2*
X2323384D1*
X2428824D2*
X2496023D1*
X2632718D2*
X2641821D1*
X2825093D2*
X2854327D1*
X3018114D2*
X3405508D1*
X3569295D2*
X3598529D1*
X3781801D2*
X3947000D1*
X4040419D2*
X4276345D1*
X448089Y623130D2*
X1039520D1*
X1318065D2*
X1391687D1*
X1485106D2*
X2327475D1*
X2632718D2*
X2641498D1*
X2825452D2*
X2845750D1*
X3026691D2*
X3396931D1*
X3577872D2*
X3598170D1*
X3782124D2*
X3947000D1*
X4040419D2*
X4276345D1*
X448089Y598261D2*
X950025D1*
X1379893D2*
X1391687D1*
X1485106D2*
X2348539D1*
X2632718D2*
X2641498D1*
X2825452D2*
X2844638D1*
X3027803D2*
X3395819D1*
X3578984D2*
X3598170D1*
X3782124D2*
X3947000D1*
X4040419D2*
X4276345D1*
X448089Y573392D2*
X936173D1*
X1485106D2*
X2373407D1*
X2632718D2*
X2641498D1*
X2825452D2*
X2850667D1*
X3021774D2*
X3401848D1*
X3572956D2*
X3598170D1*
X3782124D2*
X3947000D1*
X4040419D2*
X4276345D1*
X448089Y548524D2*
X933195D1*
X1506744D2*
X2404303D1*
X2821971D2*
X2865738D1*
X3006703D2*
X3416919D1*
X3557884D2*
X3601651D1*
X3778680D2*
X3947000D1*
X4040419D2*
X4276345D1*
X448089Y523655D2*
X933984D1*
X1506744D2*
X2511740D1*
X2648471D2*
X2656480D1*
X2810452D2*
X2900366D1*
X2972075D2*
X3451547D1*
X3523256D2*
X3613170D1*
X3767161D2*
X3939106D1*
X4137234D2*
X4276345D1*
X448089Y498786D2*
X942991D1*
X1506744D2*
X2511740D1*
X2648471D2*
X2681293D1*
X2785621D2*
X3638001D1*
X3742329D2*
X3939106D1*
X4146457D2*
X4276345D1*
X448089Y473917D2*
X969295D1*
X1037810D2*
X1292145D1*
X1360624D2*
X1370028D1*
X1506744D2*
X2511740D1*
X2648471D2*
X3939106D1*
X4142796D2*
X4276345D1*
X448089Y449049D2*
X1370013D1*
X1506744D2*
X2511740D1*
X2648471D2*
X3939106D1*
X4121445D2*
X4276345D1*
X3157398Y788688D2*
X3155829Y778785D1*
X3152731Y769250D1*
X3148179Y760316D1*
X3142286Y752205D1*
X3135196Y745116D1*
X3127085Y739222D1*
X3118152Y734671D1*
X3108616Y731572D1*
X3098714Y730004D1*
X3088688D1*
X3078785Y731572D1*
X3069250Y734671D1*
X3060316Y739222D1*
X3052205Y745116D1*
X3045116Y752205D1*
X3039222Y760316D1*
X3034671Y769250D1*
X3031572Y778785D1*
X3030004Y788688D1*
Y798714D1*
X3031572Y808616D1*
X3034671Y818152D1*
X3039222Y827085D1*
X3045116Y835196D1*
X3049485Y839772D1*
X3049628Y1286146D1*
X3050713Y1292998D1*
X3052857Y1299595D1*
X3056007Y1305776D1*
X3060084Y1311388D1*
X3088423Y1339920D1*
X3149492Y1401050D1*
Y1517279D1*
X3146128Y1523996D1*
X3143631Y1531680D1*
X3142367Y1539661D1*
Y1547741D1*
X3143631Y1555721D1*
X3146128Y1563406D1*
X3149797Y1570605D1*
X3154546Y1577142D1*
X3160259Y1582856D1*
X3166796Y1587605D1*
X3173996Y1591273D1*
X3181680Y1593770D1*
X3189661Y1595034D1*
X3197741D1*
X3205721Y1593770D1*
X3213406Y1591273D1*
X3220605Y1587605D1*
X3227142Y1582856D1*
X3232856Y1577142D1*
X3237605Y1570605D1*
X3241273Y1563406D1*
X3243770Y1555721D1*
X3245034Y1547741D1*
Y1539661D1*
X3243770Y1531680D1*
X3241273Y1523996D1*
X3237906Y1517334D1*
X3237910Y1426108D1*
X3383980Y1425962D1*
X3390832Y1424877D1*
X3397430Y1422733D1*
X3403611Y1419584D1*
X3409223Y1415506D1*
X3437755Y1387167D1*
X3456303Y1368619D1*
X3463406Y1366273D1*
X3470605Y1362605D1*
X3474500Y1359938D1*
X3474492Y1542271D1*
X3471128Y1548996D1*
X3468631Y1556680D1*
X3467367Y1564661D1*
Y1572741D1*
X3468631Y1580721D1*
X3471128Y1588406D1*
X3474797Y1595605D1*
X3479546Y1602142D1*
X3485259Y1607856D1*
X3489078Y1610789D1*
X3360623Y1739258D1*
X3347412Y1726226D1*
X3341800Y1722148D1*
X3335619Y1718999D1*
X3329021Y1716855D1*
X3322169Y1715770D1*
X3281955Y1715634D1*
X3190232Y1715770D1*
X3183380Y1716855D1*
X3176783Y1718999D1*
X3170602Y1722148D1*
X3164990Y1726226D1*
X3160084Y1731131D1*
X3156007Y1736744D1*
X3152857Y1742925D1*
X3150714Y1749522D1*
X3149628Y1756374D1*
X3149492Y1796588D1*
Y1817293D1*
X3146128Y1823996D1*
X3143631Y1831680D1*
X3142367Y1839661D1*
Y1847741D1*
X3143631Y1855721D1*
X3146128Y1863406D1*
X3149797Y1870605D1*
X3154546Y1877142D1*
X3160259Y1882856D1*
X3166796Y1887605D1*
X3173996Y1891273D1*
X3181680Y1893770D1*
X3189661Y1895034D1*
X3197741D1*
X3205721Y1893770D1*
X3213406Y1891273D1*
X3220605Y1887605D1*
X3227142Y1882856D1*
X3232856Y1877142D1*
X3237605Y1870605D1*
X3241273Y1863406D1*
X3243770Y1855721D1*
X3245034Y1847741D1*
Y1839661D1*
X3243770Y1831680D1*
X3241273Y1823996D1*
X3237906Y1817334D1*
X3237910Y1804049D1*
X3294356Y1804051D1*
X3292843Y1810646D1*
X3292209Y1818701D1*
X3292328Y1821747D1*
X3289865Y1826783D1*
X3287721Y1833380D1*
X3286636Y1840232D1*
X3286500Y1880446D1*
X3286636Y1897169D1*
X3287721Y1904021D1*
X3289865Y1910619D1*
X3293015Y1916800D1*
X3297092Y1922412D1*
X3301997Y1927317D1*
X3307610Y1931395D1*
X3313791Y1934544D1*
X3320388Y1936688D1*
X3327240Y1937773D1*
X3337706Y1937910D1*
X3337681Y1949720D1*
X3425131D1*
X3415092Y1959728D1*
X3217673Y1959613D1*
X3219559Y1951756D1*
X3220193Y1943701D1*
X3219559Y1935646D1*
X3217673Y1927789D1*
X3214581Y1920324D1*
X3210359Y1913434D1*
X3205111Y1907290D1*
X3198967Y1902043D1*
X3192078Y1897821D1*
X3184613Y1894729D1*
X3176756Y1892843D1*
X3168701Y1892209D1*
X3160646Y1892843D1*
X3152789Y1894729D1*
X3145324Y1897821D1*
X3138434Y1902043D1*
X3132290Y1907290D1*
X3127043Y1913434D1*
X3122821Y1920324D1*
X3119729Y1927789D1*
X3117843Y1935646D1*
X3117209Y1943701D1*
X3117843Y1951756D1*
X3119767Y1959716D1*
X3110705Y1959864D1*
X3103853Y1960950D1*
X3097255Y1963093D1*
X3091074Y1966243D1*
X3085462Y1970320D1*
X3056930Y1998660D1*
X3029375Y2026407D1*
X3025298Y2032019D1*
X3022149Y2038200D1*
X3020005Y2044798D1*
X3018920Y2051650D1*
X3018783Y2091864D1*
X3018740Y2425432D1*
X2875832Y2568533D1*
X2871755Y2574145D1*
X2868605Y2580326D1*
X2866462Y2586924D1*
X2865376Y2593776D1*
X2865240Y2633990D1*
Y2652685D1*
X2816626Y2604106D1*
X2815000Y2599523D1*
X2811430Y2592516D1*
X2806808Y2586154D1*
X2801247Y2580594D1*
X2794885Y2575971D1*
X2787879Y2572401D1*
X2780023Y2569896D1*
X2784187Y2566362D1*
X2791452Y2563353D1*
X2798157Y2559244D1*
X2804137Y2554137D1*
X2809244Y2548157D1*
X2813353Y2541452D1*
X2816362Y2534187D1*
X2816608Y2533314D1*
X2860388Y2489341D1*
X2864466Y2483729D1*
X2867615Y2477548D1*
X2869759Y2470950D1*
X2870844Y2464098D1*
X2870980Y2423885D1*
X2870844Y2315232D1*
X2869759Y2308380D1*
X2867615Y2301783D1*
X2864466Y2295602D1*
X2860388Y2289990D1*
X2855483Y2285084D1*
X2849871Y2281007D1*
X2843690Y2277857D1*
X2837092Y2275714D1*
X2830240Y2274628D1*
X2826758Y2274493D1*
X2818815Y2268586D1*
X2811890D1*
X2811968Y1825355D1*
X2837270Y1800114D1*
X2924251Y1800157D1*
X2949492Y1825459D1*
Y1860733D1*
X2835713Y1860712D1*
Y1976689D1*
X2951689D1*
Y1958639D1*
X2956040Y1962795D1*
X2963402Y1968144D1*
X2971510Y1972275D1*
X2980164Y1975087D1*
X2989151Y1976510D1*
X2998250D1*
X3007238Y1975087D1*
X3015892Y1972275D1*
X3024000Y1968144D1*
X3031361Y1962795D1*
X3037795Y1956361D1*
X3043144Y1949000D1*
X3047275Y1940892D1*
X3050087Y1932238D1*
X3051510Y1923250D1*
Y1914151D1*
X3050087Y1905164D1*
X3047275Y1896510D1*
X3043144Y1888402D1*
X3037916Y1881194D1*
X3037773Y1803618D1*
X3036688Y1796766D1*
X3034544Y1790169D1*
X3031395Y1783988D1*
X3027317Y1778375D1*
X2998978Y1749843D1*
X2971231Y1722289D1*
X2965619Y1718211D1*
X2959438Y1715062D1*
X2952840Y1712918D1*
X2945988Y1711833D1*
X2905774Y1711697D1*
X2863108D1*
X2862970Y1340232D1*
X2861885Y1333380D1*
X2859741Y1326783D1*
X2856592Y1320602D1*
X2852514Y1314990D1*
X2847609Y1310084D1*
X2841997Y1306007D1*
X2835816Y1302857D1*
X2829218Y1300714D1*
X2822366Y1299628D1*
X2782152Y1299492D1*
X2762882D1*
X2762773Y1224483D1*
X2761688Y1217631D1*
X2759544Y1211034D1*
X2756395Y1204852D1*
X2752317Y1199240D1*
X2747412Y1194335D1*
X2741800Y1190257D1*
X2735619Y1187108D1*
X2729021Y1184964D1*
X2722169Y1183879D1*
X2681955Y1183743D1*
X2645981Y1183577D1*
Y1162089D1*
X2535780D1*
X2537638Y1154125D1*
X2538303Y1145669D1*
X2537638Y1137214D1*
X2535658Y1128967D1*
X2532412Y1121131D1*
X2528468Y1114629D1*
X2528461Y1091089D1*
X2630232Y1091058D1*
Y998703D1*
X2498508D1*
Y1000677D1*
X2480783Y1000808D1*
X2473932Y1001893D1*
X2467334Y1004037D1*
X2461153Y1007186D1*
X2455541Y1011264D1*
X2450635Y1016169D1*
X2446558Y1021782D1*
X2443408Y1027963D1*
X2441265Y1034560D1*
X2440179Y1041412D1*
X2440043Y1081626D1*
Y1114604D1*
X2436092Y1121131D1*
X2432846Y1128967D1*
X2430866Y1137214D1*
X2430201Y1145669D1*
X2430866Y1154125D1*
X2432846Y1162372D1*
X2436092Y1170208D1*
X2440524Y1177440D1*
X2445886Y1183731D1*
X2439529Y1183700D1*
X2414287Y1158398D1*
X2414330Y660001D1*
X2440026Y634366D1*
X2498482D1*
X2498508Y636335D1*
X2630232D1*
Y559578D1*
X2645019Y559561D1*
X2644256Y566207D1*
X2643980Y582415D1*
Y640157D1*
X2644256Y647178D1*
X2645082Y654156D1*
X2646453Y661047D1*
X2648360Y667810D1*
X2650792Y674402D1*
X2653734Y680782D1*
X2657167Y686913D1*
X2661070Y692755D1*
X2665420Y698273D1*
X2670190Y703432D1*
X2675349Y708202D1*
X2680867Y712552D1*
X2686709Y716455D1*
X2692840Y719889D1*
X2699220Y722830D1*
X2705812Y725262D1*
X2712575Y727169D1*
X2719466Y728540D1*
X2726444Y729366D1*
X2733465Y729642D1*
X2740485Y729366D1*
X2747463Y728540D1*
X2754354Y727169D1*
X2761117Y725262D1*
X2767709Y722830D1*
X2774090Y719889D1*
X2780220Y716455D1*
X2786062Y712552D1*
X2791580Y708202D1*
X2796739Y703432D1*
X2801509Y698273D1*
X2805859Y692755D1*
X2809762Y686913D1*
X2813196Y680782D1*
X2816137Y674402D1*
X2818569Y667810D1*
X2820476Y661047D1*
X2821847Y654156D1*
X2822673Y647178D1*
X2822949Y630971D1*
X2822913Y573228D1*
X2822673Y566207D1*
X2821847Y559230D1*
X2820476Y552339D1*
X2818569Y545576D1*
X2816137Y538984D1*
X2813196Y532603D1*
X2809762Y526473D1*
X2805859Y520631D1*
X2801509Y515113D1*
X2796739Y509953D1*
X2791580Y505184D1*
X2786062Y500834D1*
X2780220Y496930D1*
X2774090Y493497D1*
X2767709Y490556D1*
X2761117Y488124D1*
X2754354Y486217D1*
X2747463Y484846D1*
X2740485Y484020D1*
X2733465Y483744D1*
X2726444Y484020D1*
X2719466Y484846D1*
X2712575Y486217D1*
X2705812Y488124D1*
X2699220Y490556D1*
X2692840Y493497D1*
X2686709Y496930D1*
X2680867Y500834D1*
X2675349Y505184D1*
X2670190Y509953D1*
X2665420Y515113D1*
X2661070Y520631D1*
X2657167Y526473D1*
X2653734Y532603D1*
X2650792Y538984D1*
X2648360Y545576D1*
X2645976Y554734D1*
X2645981Y445557D1*
X3941647Y445571D1*
X3941618Y545783D1*
X3949477D1*
X3949628Y1204536D1*
X3950713Y1211387D1*
X3952857Y1217985D1*
X3956007Y1224166D1*
X3960084Y1229778D1*
X3988423Y1258310D1*
X4061982Y1331869D1*
X4064342Y1338986D1*
X4068010Y1346185D1*
X4072760Y1352722D1*
X4078473Y1358436D1*
X4085010Y1363185D1*
X4092210Y1366853D1*
X4099894Y1369350D1*
X4107875Y1370614D1*
X4115955D1*
X4123935Y1369350D1*
X4131620Y1366853D1*
X4138282Y1363486D1*
X4174389Y1363490D1*
X4181072Y1366853D1*
X4188756Y1369350D1*
X4196737Y1370614D1*
X4204817D1*
X4212798Y1369350D1*
X4220482Y1366853D1*
X4227681Y1363185D1*
X4234218Y1358436D1*
X4239932Y1352722D1*
X4244681Y1346185D1*
X4248349Y1338986D1*
X4250846Y1331301D1*
X4252110Y1323321D1*
Y1315241D1*
X4250846Y1307260D1*
X4248349Y1299576D1*
X4244681Y1292376D1*
X4239932Y1285839D1*
X4234218Y1280126D1*
X4227681Y1275377D1*
X4220482Y1271708D1*
X4212798Y1269211D1*
X4204817Y1267947D1*
X4196737D1*
X4188756Y1269211D1*
X4181072Y1271708D1*
X4174410Y1275076D1*
X4138303Y1275072D1*
X4131620Y1271708D1*
X4124528Y1269379D1*
X4037910Y1182694D1*
X4038080Y1103019D1*
X4041098Y1111200D1*
X4044749Y1119119D1*
X4049010Y1126728D1*
X4053854Y1133978D1*
X4059253Y1140826D1*
X4065172Y1147230D1*
X4071575Y1153149D1*
X4078423Y1158547D1*
X4085674Y1163392D1*
X4093282Y1167653D1*
X4101201Y1171304D1*
X4109382Y1174322D1*
X4117775Y1176689D1*
X4126328Y1178390D1*
X4134987Y1179415D1*
X4143701Y1179757D1*
X4152414Y1179415D1*
X4161074Y1178390D1*
X4169626Y1176689D1*
X4178019Y1174322D1*
X4186200Y1171304D1*
X4194119Y1167653D1*
X4201728Y1163392D1*
X4208978Y1158547D1*
X4215826Y1153149D1*
X4222230Y1147230D1*
X4228149Y1140826D1*
X4233547Y1133978D1*
X4238392Y1126728D1*
X4242653Y1119119D1*
X4246304Y1111200D1*
X4249322Y1103019D1*
X4251689Y1094626D1*
X4253390Y1086074D1*
X4254415Y1077414D1*
X4254757Y1068701D1*
X4254415Y1059987D1*
X4253390Y1051328D1*
X4251689Y1042775D1*
X4249322Y1034382D1*
X4246304Y1026201D1*
X4242653Y1018282D1*
X4238392Y1010674D1*
X4233547Y1003423D1*
X4228149Y996575D1*
X4222230Y990172D1*
X4215826Y984253D1*
X4208978Y978854D1*
X4201728Y974010D1*
X4194119Y969749D1*
X4186200Y966098D1*
X4178019Y963080D1*
X4169626Y960713D1*
X4161074Y959012D1*
X4152414Y957987D1*
X4143701Y957644D1*
X4134987Y957987D1*
X4126328Y959012D1*
X4117775Y960713D1*
X4109382Y963080D1*
X4101201Y966098D1*
X4093282Y969749D1*
X4085674Y974010D1*
X4078423Y978854D1*
X4071575Y984253D1*
X4065172Y990172D1*
X4059253Y996575D1*
X4053854Y1003423D1*
X4049010Y1010674D1*
X4044749Y1018282D1*
X4041098Y1026201D1*
X4037904Y1035005D1*
X4037910Y545786D1*
X4045784Y545783D1*
Y517471D1*
X4049990Y524314D1*
X4055298Y530529D1*
X4061513Y535837D1*
X4068481Y540107D1*
X4076032Y543234D1*
X4083978Y545142D1*
X4092126Y545783D1*
X4100274Y545142D1*
X4108220Y543234D1*
X4115771Y540107D1*
X4122739Y535837D1*
X4128954Y530529D1*
X4134262Y524314D1*
X4138532Y517346D1*
X4141660Y509795D1*
X4143567Y501848D1*
X4144209Y493701D1*
X4143567Y485553D1*
X4141660Y477606D1*
X4138532Y470056D1*
X4134262Y463087D1*
X4128954Y456873D1*
X4122739Y451565D1*
X4115771Y447295D1*
X4112012Y445566D1*
X4278815Y445571D1*
X4278839Y2086937D1*
X4275251Y2082913D1*
X4244986Y2052587D1*
Y1645696D1*
X4248349Y1638986D1*
X4250846Y1631301D1*
X4252110Y1623321D1*
Y1615241D1*
X4250846Y1607260D1*
X4248349Y1599576D1*
X4244681Y1592376D1*
X4239932Y1585839D1*
X4234218Y1580126D1*
X4227681Y1575377D1*
X4220482Y1571708D1*
X4212798Y1569211D1*
X4204817Y1567947D1*
X4196737D1*
X4188756Y1569211D1*
X4181072Y1571708D1*
X4173872Y1575377D1*
X4167335Y1580126D1*
X4161622Y1585839D1*
X4156873Y1592376D1*
X4156371Y1593272D1*
X4151070Y1585839D1*
X4145356Y1580126D1*
X4138819Y1575377D1*
X4131620Y1571708D1*
X4123935Y1569211D1*
X4115955Y1567947D1*
X4107875D1*
X4099894Y1569211D1*
X4092210Y1571708D1*
X4085010Y1575377D1*
X4078473Y1580126D1*
X4072760Y1585839D1*
X4068010Y1592376D1*
X4064342Y1599576D1*
X4061845Y1607260D1*
X4060581Y1615241D1*
Y1623321D1*
X4061845Y1631301D1*
X4064342Y1638986D1*
X4068010Y1646185D1*
X4072760Y1652722D1*
X4078473Y1658436D1*
X4085010Y1663185D1*
X4092210Y1666853D1*
X4099894Y1669350D1*
X4107875Y1670614D1*
X4115955D1*
X4123935Y1669350D1*
X4131620Y1666853D1*
X4138819Y1663185D1*
X4145356Y1658436D1*
X4151070Y1652722D1*
X4155819Y1646185D1*
X4156321Y1645290D1*
X4156568Y1656026D1*
X4156704Y2074428D1*
X4157790Y2081280D1*
X4159933Y2087877D1*
X4163083Y2094058D1*
X4167160Y2099671D1*
X4195500Y2128203D1*
X4199782Y2132546D1*
Y2287602D1*
X4190119Y2277598D1*
X4093622Y2181101D1*
X4091273Y2173996D1*
X4087605Y2166796D1*
X4082856Y2160259D1*
X4077142Y2154546D1*
X4070605Y2149797D1*
X4063406Y2146128D1*
X4055721Y2143631D1*
X4047741Y2142367D1*
X4039661D1*
X4031680Y2143631D1*
X4023996Y2146128D1*
X4016796Y2149797D1*
X4012901Y2152463D1*
X4012773Y2130390D1*
X4011688Y2123538D1*
X4009544Y2116940D1*
X4006395Y2110759D1*
X4002317Y2105147D1*
X3997412Y2100242D1*
X3991800Y2096164D1*
X3985619Y2093015D1*
X3979021Y2090871D1*
X3972169Y2089786D1*
X3931955Y2089650D1*
X3891413Y2089786D1*
X3884562Y2090871D1*
X3877964Y2093015D1*
X3871783Y2096164D1*
X3866171Y2100242D1*
X3837639Y2128581D1*
X3810084Y2156328D1*
X3806007Y2161940D1*
X3802857Y2168121D1*
X3800714Y2174719D1*
X3799628Y2181571D1*
X3799492Y2221785D1*
Y2231940D1*
X3795936Y2237068D1*
X3791945Y2244901D1*
X3789229Y2253261D1*
X3787854Y2261943D1*
Y2270734D1*
X3789229Y2279416D1*
X3791945Y2287776D1*
X3795936Y2295609D1*
X3798313Y2299166D1*
X3798311Y2333726D1*
X3705980Y2333880D1*
X3699129Y2334966D1*
X3692531Y2337109D1*
X3686350Y2340259D1*
X3680738Y2344336D1*
X3652206Y2372675D1*
X3636753Y2388128D1*
X3630623Y2389229D1*
X3622263Y2391945D1*
X3614431Y2395936D1*
X3607319Y2401103D1*
X3601103Y2407319D1*
X3595936Y2414431D1*
X3593615Y2418268D1*
X3589022Y2410773D1*
X3583313Y2404089D1*
X3576628Y2398380D1*
X3569133Y2393787D1*
X3561012Y2390423D1*
X3552464Y2388371D1*
X3543701Y2387681D1*
X3534937Y2388371D1*
X3526390Y2390423D1*
X3518268Y2393787D1*
X3510773Y2398380D1*
X3504089Y2404089D1*
X3498380Y2410773D1*
X3493708Y2418440D1*
X3489022Y2410773D1*
X3483313Y2404089D1*
X3476628Y2398380D1*
X3469133Y2393787D1*
X3461995Y2390786D1*
X3465719Y2387947D1*
X3490927Y2362932D1*
X3592312Y2362909D1*
X3598996Y2366273D1*
X3606680Y2368770D1*
X3614661Y2370034D1*
X3622741D1*
X3630721Y2368770D1*
X3638406Y2366273D1*
X3645605Y2362605D1*
X3652142Y2357856D1*
X3657856Y2352142D1*
X3662605Y2345605D1*
X3666273Y2338406D1*
X3668770Y2330721D1*
X3669798Y2324733D1*
X3774720Y2324720D1*
Y2212681D1*
X3762915D1*
X3762953Y2186970D1*
X3981295Y1968627D1*
X3988406Y1966273D1*
X3995605Y1962605D1*
X4002142Y1957856D1*
X4007856Y1952142D1*
X4012605Y1945605D1*
X4016273Y1938406D1*
X4016796Y1937605D1*
X4023996Y1941273D1*
X4031680Y1943770D1*
X4039661Y1945034D1*
X4047741D1*
X4055721Y1943770D1*
X4063406Y1941273D1*
X4070605Y1937605D1*
X4077142Y1932856D1*
X4082856Y1927142D1*
X4087605Y1920605D1*
X4091273Y1913406D1*
X4093770Y1905721D1*
X4095034Y1897741D1*
Y1889661D1*
X4093770Y1881680D1*
X4091273Y1873996D1*
X4087906Y1867334D1*
X4087773Y1803618D1*
X4086688Y1796766D1*
X4084544Y1790169D1*
X4081395Y1783988D1*
X4077317Y1778375D1*
X4072412Y1773470D1*
X4066800Y1769392D1*
X4060619Y1766243D1*
X4054021Y1764099D1*
X4047169Y1763014D1*
X4006955Y1762878D1*
X3970456Y1762776D1*
X3973173Y1754416D1*
X3974548Y1745734D1*
Y1736943D1*
X3973173Y1728261D1*
X3970456Y1719901D1*
X3966465Y1712068D1*
X3961298Y1704957D1*
X3955083Y1698741D1*
X3947971Y1693574D1*
X3940139Y1689583D1*
X3931778Y1686867D1*
X3925673Y1685797D1*
X3847358Y1607415D1*
X3847222Y1149681D1*
X3846137Y1142829D1*
X3843993Y1136232D1*
X3840844Y1130051D1*
X3836766Y1124438D1*
X3808427Y1095906D1*
X3793634Y1081113D1*
X3791273Y1073996D1*
X3787605Y1066796D1*
X3782856Y1060259D1*
X3777142Y1054546D1*
X3770605Y1049797D1*
X3763406Y1046128D1*
X3755721Y1043631D1*
X3747741Y1042367D1*
X3739661D1*
X3731680Y1043631D1*
X3723996Y1046128D1*
X3716796Y1049797D1*
X3710259Y1054546D1*
X3704546Y1060259D1*
X3699797Y1066796D1*
X3696128Y1073996D1*
X3693631Y1081680D1*
X3692367Y1089661D1*
Y1097741D1*
X3693631Y1105721D1*
X3696128Y1113406D1*
X3699797Y1120605D1*
X3704546Y1127142D1*
X3710259Y1132856D1*
X3716796Y1137605D1*
X3723996Y1141273D1*
X3731087Y1143603D1*
X3756261Y1168782D1*
X3747741Y1167367D1*
X3739661D1*
X3731680Y1168631D1*
X3723996Y1171128D1*
X3716796Y1174797D1*
X3710259Y1179546D1*
X3704546Y1185259D1*
X3699797Y1191796D1*
X3696128Y1198996D1*
X3693631Y1206680D1*
X3692367Y1214661D1*
Y1222741D1*
X3693631Y1230721D1*
X3696128Y1238406D1*
X3699797Y1245605D1*
X3704546Y1252142D1*
X3710259Y1257856D1*
X3716796Y1262605D1*
X3723996Y1266273D1*
X3731422Y1268697D1*
X3723996Y1271128D1*
X3716796Y1274797D1*
X3710259Y1279546D1*
X3704546Y1285259D1*
X3699797Y1291796D1*
X3696128Y1298996D1*
X3693631Y1306680D1*
X3692344Y1315245D1*
X3689091Y1311942D1*
Y839814D1*
X3693467Y835196D1*
X3699360Y827085D1*
X3703912Y818152D1*
X3707010Y808616D1*
X3708579Y798714D1*
Y788688D1*
X3707010Y778785D1*
X3703912Y769250D1*
X3699360Y760316D1*
X3693467Y752205D1*
X3686378Y745116D1*
X3678266Y739222D1*
X3669333Y734671D1*
X3659798Y731572D1*
X3649895Y730004D1*
X3639869D1*
X3629966Y731572D1*
X3620431Y734671D1*
X3611498Y739222D1*
X3603386Y745116D1*
X3596297Y752205D1*
X3590404Y760316D1*
X3585852Y769250D1*
X3582754Y778785D1*
X3581185Y788688D1*
Y798714D1*
X3582754Y808616D1*
X3585852Y818152D1*
X3590404Y827085D1*
X3596297Y835196D1*
X3600666Y839772D1*
X3600809Y1333784D1*
X3601895Y1340635D1*
X3604038Y1347233D1*
X3607188Y1353414D1*
X3611265Y1359026D1*
X3639604Y1387558D1*
X3699492Y1447507D1*
Y1467279D1*
X3696128Y1473996D1*
X3693631Y1481680D1*
X3692367Y1489661D1*
Y1497741D1*
X3693631Y1505721D1*
X3696128Y1513406D1*
X3699797Y1520605D1*
X3704546Y1527142D1*
X3710259Y1532856D1*
X3716796Y1537605D1*
X3723996Y1541273D1*
X3731680Y1543770D1*
X3739661Y1545034D1*
X3747741D1*
X3755721Y1543770D1*
X3758929Y1542866D1*
X3759077Y1629256D1*
X3760162Y1636108D1*
X3762306Y1642705D1*
X3765455Y1648886D1*
X3769533Y1654499D1*
X3797872Y1683031D1*
X3863109Y1748267D1*
X3864271Y1754565D1*
X3857362Y1751656D1*
X3850617Y1750036D1*
X3843687Y1749493D1*
X3770102Y1749492D1*
X3763406Y1746128D1*
X3755721Y1743631D1*
X3747741Y1742367D1*
X3739661D1*
X3731680Y1743631D1*
X3723996Y1746128D1*
X3716796Y1749797D1*
X3710259Y1754546D1*
X3704546Y1760259D1*
X3699797Y1766796D1*
X3696128Y1773996D1*
X3693631Y1781680D1*
X3692367Y1789661D1*
Y1797741D1*
X3693631Y1805721D1*
X3696128Y1813406D1*
X3698739Y1818718D1*
X3693268Y1821149D1*
X3685773Y1825742D1*
X3679089Y1831451D1*
X3673731Y1837690D1*
X3562681Y1837681D1*
X3562605Y1841796D1*
X3557856Y1835259D1*
X3552142Y1829546D1*
X3545605Y1824797D1*
X3538406Y1821128D1*
X3530721Y1818631D1*
X3522741Y1817367D1*
X3514661D1*
X3506680Y1818631D1*
X3498996Y1821128D1*
X3491796Y1824797D1*
X3485259Y1829546D1*
X3479546Y1835259D1*
X3474797Y1841796D1*
X3471128Y1848996D1*
X3468631Y1856680D1*
X3467367Y1864661D1*
Y1872741D1*
X3468631Y1880721D1*
X3471128Y1888406D1*
X3474911Y1895776D1*
X3470324Y1897821D1*
X3463434Y1902043D1*
X3457290Y1907290D1*
X3452043Y1913434D1*
X3449727Y1916920D1*
X3449721Y1837681D1*
X3391552D1*
X3393603Y1831314D1*
X3550853Y1674130D1*
X3570398Y1673994D1*
X3577249Y1672908D1*
X3583847Y1670765D1*
X3590028Y1667615D1*
X3595640Y1663538D1*
X3624172Y1635199D1*
X3652317Y1606861D1*
X3656395Y1601249D1*
X3659544Y1595068D1*
X3661688Y1588470D1*
X3662773Y1581618D1*
X3662909Y1541404D1*
Y1530460D1*
X3666465Y1525333D1*
X3670456Y1517501D1*
X3673173Y1509141D1*
X3674548Y1500458D1*
Y1491668D1*
X3673173Y1482985D1*
X3670456Y1474625D1*
X3666465Y1466793D1*
X3661298Y1459681D1*
X3655083Y1453465D1*
X3647971Y1448298D1*
X3640139Y1444308D1*
X3631778Y1441591D1*
X3623096Y1440216D1*
X3614306D1*
X3605623Y1441591D1*
X3597263Y1444308D1*
X3589431Y1448298D1*
X3582319Y1453465D1*
X3576103Y1459681D1*
X3570936Y1466793D1*
X3566945Y1474625D1*
X3564229Y1482985D1*
X3562908Y1491207D1*
X3562773Y1290232D1*
X3561688Y1283380D1*
X3559544Y1276783D1*
X3556395Y1270602D1*
X3552317Y1264989D1*
X3523978Y1236458D1*
X3493606Y1206085D1*
X3491273Y1198996D1*
X3487906Y1192334D1*
X3487910Y1120127D1*
X3491273Y1113406D1*
X3493603Y1106314D1*
X3535782Y1063948D1*
X3539860Y1058335D1*
X3543009Y1052154D1*
X3545153Y1045557D1*
X3546238Y1038705D1*
X3546374Y998491D1*
X3546238Y810508D1*
X3545153Y803656D1*
X3543009Y797058D1*
X3539860Y790877D1*
X3535782Y785265D1*
X3531610Y780840D1*
Y684491D1*
X3539999Y679087D1*
X3545517Y674737D1*
X3550676Y669968D1*
X3555446Y664808D1*
X3559796Y659290D1*
X3563699Y653448D1*
X3567133Y647318D1*
X3570074Y640937D1*
X3572506Y634345D1*
X3574413Y627583D1*
X3575784Y620691D1*
X3576610Y613714D1*
X3576886Y606693D1*
X3576610Y599672D1*
X3575784Y592694D1*
X3574413Y585803D1*
X3572506Y579041D1*
X3570074Y572449D1*
X3567133Y566068D1*
X3563699Y559938D1*
X3559796Y554095D1*
X3555446Y548578D1*
X3550676Y543418D1*
X3545517Y538649D1*
X3539999Y534299D1*
X3534157Y530395D1*
X3528027Y526962D1*
X3521646Y524020D1*
X3515054Y521588D1*
X3508291Y519681D1*
X3501400Y518310D1*
X3494422Y517485D1*
X3487402Y517209D1*
X3480381Y517485D1*
X3473403Y518310D1*
X3466512Y519681D1*
X3459749Y521588D1*
X3453157Y524020D1*
X3446777Y526962D1*
X3440646Y530395D1*
X3434804Y534299D1*
X3429286Y538649D1*
X3424127Y543418D1*
X3419357Y548578D1*
X3415007Y554095D1*
X3411104Y559938D1*
X3407671Y566068D1*
X3404729Y572449D1*
X3402297Y579041D1*
X3400390Y585803D1*
X3399019Y592694D1*
X3398193Y599672D1*
X3397917Y606693D1*
X3398193Y613714D1*
X3399019Y620691D1*
X3400390Y627583D1*
X3402297Y634345D1*
X3404729Y640937D1*
X3407671Y647318D1*
X3411104Y653448D1*
X3415007Y659290D1*
X3419357Y664808D1*
X3424127Y669968D1*
X3429286Y674737D1*
X3434804Y679087D1*
X3443208Y684426D1*
X3443329Y802681D1*
X3444414Y809533D1*
X3446558Y816131D1*
X3449707Y822312D1*
X3453785Y827924D1*
X3457957Y832349D1*
X3457914Y1016967D1*
X3431093Y1043788D1*
X3423996Y1046128D1*
X3416796Y1049797D1*
X3410259Y1054546D1*
X3404546Y1060259D1*
X3399797Y1066796D1*
X3396128Y1073996D1*
X3393631Y1081680D1*
X3392367Y1089661D1*
Y1097741D1*
X3393631Y1105721D1*
X3396128Y1113406D1*
X3399496Y1120068D1*
X3399492Y1192275D1*
X3396128Y1198996D1*
X3393631Y1206680D1*
X3392367Y1214661D1*
Y1222741D1*
X3393631Y1230721D1*
X3396128Y1238406D1*
X3399797Y1245605D1*
X3404546Y1252142D1*
X3410259Y1257856D1*
X3416796Y1262605D1*
X3423996Y1266273D1*
X3431087Y1268603D1*
X3423996Y1271128D1*
X3416796Y1274797D1*
X3410259Y1279546D1*
X3404546Y1285259D1*
X3399797Y1291796D1*
X3396128Y1298996D1*
X3393799Y1306087D1*
X3362139Y1337681D1*
X3211182Y1337638D1*
X3137910Y1264304D1*
Y839830D1*
X3142286Y835196D1*
X3148179Y827085D1*
X3152731Y818152D1*
X3155829Y808616D1*
X3157398Y798714D1*
Y788688D1*
X3600674Y640130D2*
X3600949Y647178D1*
X3601775Y654156D1*
X3603146Y661047D1*
X3605053Y667810D1*
X3607485Y674402D1*
X3610426Y680782D1*
X3613860Y686913D1*
X3617763Y692755D1*
X3622113Y698273D1*
X3626883Y703432D1*
X3632042Y708202D1*
X3637560Y712552D1*
X3643402Y716455D1*
X3649532Y719889D1*
X3655913Y722830D1*
X3662505Y725262D1*
X3669268Y727169D1*
X3676159Y728540D1*
X3683137Y729366D1*
X3690157Y729642D1*
X3697178Y729366D1*
X3704156Y728540D1*
X3711047Y727169D1*
X3717810Y725262D1*
X3724402Y722830D1*
X3730782Y719889D1*
X3736913Y716455D1*
X3742755Y712552D1*
X3748273Y708202D1*
X3753432Y703432D1*
X3758202Y698273D1*
X3762552Y692755D1*
X3766455Y686913D1*
X3769889Y680782D1*
X3772830Y674402D1*
X3775262Y667810D1*
X3777169Y661047D1*
X3778540Y654156D1*
X3779366Y647178D1*
X3779642Y630971D1*
X3779606Y573228D1*
X3779366Y566207D1*
X3778540Y559230D1*
X3777169Y552339D1*
X3775262Y545576D1*
X3772830Y538984D1*
X3769889Y532603D1*
X3766455Y526473D1*
X3762552Y520631D1*
X3758202Y515113D1*
X3753432Y509953D1*
X3748273Y505184D1*
X3742755Y500834D1*
X3736913Y496930D1*
X3730782Y493497D1*
X3724402Y490556D1*
X3717810Y488124D1*
X3711047Y486217D1*
X3704156Y484846D1*
X3697178Y484020D1*
X3690157Y483744D1*
X3683137Y484020D1*
X3676159Y484846D1*
X3669268Y486217D1*
X3662505Y488124D1*
X3655913Y490556D1*
X3649532Y493497D1*
X3643402Y496930D1*
X3637560Y500834D1*
X3632042Y505184D1*
X3626883Y509953D1*
X3622113Y515113D1*
X3617763Y520631D1*
X3613860Y526473D1*
X3610426Y532603D1*
X3607485Y538984D1*
X3605053Y545576D1*
X3603146Y552339D1*
X3601775Y559230D1*
X3600949Y566207D1*
X3600673Y582415D1*
Y640106D1*
X3025429Y599672D2*
X3024603Y592694D1*
X3023232Y585803D1*
X3021325Y579041D1*
X3018893Y572449D1*
X3015952Y566068D1*
X3012518Y559938D1*
X3008615Y554095D1*
X3004265Y548578D1*
X2999495Y543418D1*
X2994336Y538649D1*
X2988818Y534299D1*
X2982976Y530395D1*
X2976845Y526962D1*
X2970465Y524020D1*
X2963873Y521588D1*
X2957110Y519681D1*
X2950219Y518310D1*
X2943241Y517485D1*
X2936220Y517209D1*
X2929200Y517485D1*
X2922222Y518310D1*
X2915331Y519681D1*
X2908568Y521588D1*
X2901976Y524020D1*
X2895595Y526962D1*
X2889465Y530395D1*
X2883623Y534299D1*
X2878105Y538649D1*
X2872946Y543418D1*
X2868176Y548578D1*
X2863826Y554095D1*
X2859923Y559938D1*
X2856489Y566068D1*
X2853548Y572449D1*
X2851116Y579041D1*
X2849209Y585803D1*
X2847838Y592694D1*
X2847012Y599672D1*
X2846736Y606693D1*
X2847012Y613714D1*
X2847838Y620691D1*
X2849209Y627583D1*
X2851116Y634345D1*
X2853548Y640937D1*
X2856489Y647318D1*
X2859923Y653448D1*
X2863826Y659290D1*
X2868176Y664808D1*
X2872946Y669968D1*
X2878105Y674737D1*
X2883623Y679087D1*
X2889465Y682991D1*
X2895595Y686424D1*
X2901976Y689366D1*
X2908568Y691797D1*
X2915331Y693705D1*
X2922222Y695075D1*
X2929200Y695901D1*
X2936220Y696177D1*
X2943241Y695901D1*
X2950219Y695075D1*
X2957110Y693705D1*
X2963873Y691797D1*
X2970465Y689366D1*
X2976845Y686424D1*
X2982976Y682991D1*
X2988818Y679087D1*
X2994336Y674737D1*
X2999495Y669968D1*
X3004265Y664808D1*
X3008615Y659290D1*
X3012518Y653448D1*
X3015952Y647318D1*
X3018893Y640937D1*
X3021325Y634345D1*
X3023232Y627583D1*
X3024603Y620691D1*
X3025429Y613714D1*
X3025705Y606693D1*
X3025429Y599672D1*
X559479Y915468D2*
X640469D1*
Y871797D1*
X645304Y881199D1*
X651923Y890310D1*
X659887Y898273D1*
X662290Y900168D1*
X662424Y928665D1*
X663509Y935517D1*
X665653Y942115D1*
X668802Y948296D1*
X672879Y953908D1*
X684138Y965420D1*
Y1004211D1*
X678149Y996575D1*
X672230Y990172D1*
X665826Y984253D1*
X658978Y978854D1*
X651728Y974010D1*
X644119Y969749D1*
X636200Y966098D1*
X628019Y963080D1*
X619626Y960713D1*
X611074Y959012D1*
X602414Y957987D1*
X593701Y957644D1*
X584987Y957987D1*
X576328Y959012D1*
X567775Y960713D1*
X559382Y963080D1*
X551201Y966098D1*
X543282Y969749D1*
X535674Y974010D1*
X528423Y978854D1*
X521575Y984253D1*
X515172Y990172D1*
X509253Y996575D1*
X504845Y1002166D1*
X504882Y970040D1*
X559461Y915461D1*
X640469Y815603D2*
Y771933D1*
X496933D1*
Y852924D1*
X445561Y904320D1*
X445571Y445594D1*
X1372555Y445571D1*
X1372524Y484140D1*
X1366248Y478982D1*
X1357172Y473421D1*
X1347339Y469347D1*
X1336989Y466863D1*
X1326378Y466028D1*
X1315767Y466863D1*
X1305417Y469347D1*
X1295583Y473421D1*
X1286508Y478982D1*
X1278414Y485895D1*
X1276762Y487682D1*
X1187681Y487681D1*
Y492525D1*
X1182272Y490423D1*
X1173724Y488371D1*
X1164961Y487681D1*
X1156197Y488371D1*
X1147650Y490423D1*
X1139528Y493787D1*
X1132033Y498380D1*
X1125588Y503867D1*
X1119148Y498380D1*
X1111653Y493787D1*
X1103532Y490423D1*
X1094984Y488371D1*
X1086220Y487681D1*
X1077457Y488371D1*
X1068909Y490423D1*
X1060788Y493787D1*
X1059004Y494786D1*
X1055122Y489806D1*
X1047596Y482279D1*
X1038985Y476023D1*
X1029501Y471191D1*
X1019378Y467902D1*
X1008865Y466237D1*
X998221D1*
X987709Y467902D1*
X977586Y471191D1*
X968102Y476023D1*
X959491Y482279D1*
X951964Y489806D1*
X945708Y498417D1*
X940876Y507901D1*
X937587Y518024D1*
X935922Y528536D1*
X935713Y553543D1*
X936548Y564154D1*
X939032Y574504D1*
X943106Y584338D1*
X948667Y593413D1*
X955580Y601507D1*
X963673Y608420D1*
X972749Y613981D1*
X982582Y618054D1*
X992932Y620539D1*
X1003543Y621374D1*
X1014154Y620539D1*
X1024504Y618054D1*
X1034338Y613981D1*
X1042012Y609356D1*
X1041969Y1025214D1*
X938605Y1128770D1*
X934528Y1134383D1*
X931378Y1140564D1*
X929235Y1147161D1*
X928149Y1154013D1*
X928013Y1194227D1*
Y1499996D1*
X923716Y1505253D1*
X918800Y1513275D1*
X915200Y1521967D1*
X913003Y1531115D1*
X912265Y1540495D1*
X913003Y1549874D1*
X915200Y1559022D1*
X918800Y1567715D1*
X923716Y1575736D1*
X929826Y1582891D1*
X936980Y1589001D1*
X945002Y1593917D1*
X953694Y1597517D1*
X962842Y1599713D1*
X972222Y1600451D1*
X981601Y1599713D1*
X990749Y1597517D1*
X999442Y1593917D1*
X1007463Y1589001D1*
X1014618Y1582891D1*
X1020728Y1575736D1*
X1022189Y1573550D1*
X1026630Y1579434D1*
X1028016Y1580932D1*
X1028149Y2018408D1*
X1029235Y2025260D1*
X1031378Y2031858D1*
X1034528Y2038039D1*
X1038605Y2043651D1*
X1066944Y2072183D1*
X1097272Y2102317D1*
X1102884Y2106395D1*
X1109065Y2109544D1*
X1115663Y2111688D1*
X1122514Y2112773D1*
X1162728Y2112909D1*
X1359266D1*
X1364431Y2116465D1*
X1368268Y2118787D1*
X1360773Y2123380D1*
X1354089Y2129089D1*
X1348380Y2135773D1*
X1343787Y2143268D1*
X1340423Y2151390D1*
X1338371Y2159937D1*
X1337681Y2168701D1*
X1338371Y2177464D1*
X1340423Y2186012D1*
X1343787Y2194133D1*
X1348380Y2201628D1*
X1354089Y2208313D1*
X1360773Y2214022D1*
X1368440Y2218694D1*
X1360773Y2223380D1*
X1354089Y2229089D1*
X1348380Y2235773D1*
X1343787Y2243268D1*
X1340423Y2251390D1*
X1338371Y2259937D1*
X1337681Y2268701D1*
X1338371Y2277464D1*
X1340423Y2286012D1*
X1343787Y2294133D1*
X1348380Y2301628D1*
X1354089Y2308313D1*
X1360773Y2314022D1*
X1368440Y2318694D1*
X1360773Y2323380D1*
X1354089Y2329089D1*
X1348380Y2335773D1*
X1343787Y2343268D1*
X1340423Y2351390D1*
X1338371Y2359937D1*
X1337681Y2368701D1*
X1338371Y2377464D1*
X1340423Y2386012D1*
X1343787Y2394133D1*
X1348380Y2401628D1*
X1354089Y2408313D1*
X1360773Y2414022D1*
X1368440Y2418694D1*
X1360773Y2423380D1*
X1354089Y2429089D1*
X1348380Y2435773D1*
X1343787Y2443268D1*
X1340423Y2451390D1*
X1338371Y2459937D1*
X1337681Y2468701D1*
X1338371Y2477464D1*
X1340423Y2486012D1*
X1343787Y2494133D1*
X1348380Y2501628D1*
X1354089Y2508313D1*
X1360773Y2514022D1*
X1368440Y2518694D1*
X1360773Y2523380D1*
X1354089Y2529089D1*
X1348380Y2535773D1*
X1343787Y2543268D1*
X1340423Y2551390D1*
X1338371Y2559937D1*
X1337681Y2568701D1*
X1338371Y2577464D1*
X1340423Y2586012D1*
X1343787Y2594133D1*
X1348380Y2601628D1*
X1354089Y2608313D1*
X1360773Y2614022D1*
X1368440Y2618694D1*
X1360773Y2623380D1*
X1354089Y2629089D1*
X1348380Y2635773D1*
X1343787Y2643268D1*
X1340423Y2651390D1*
X1338371Y2659937D1*
X1337681Y2668701D1*
X1338371Y2677464D1*
X1340423Y2686012D1*
X1343787Y2694133D1*
X1348380Y2701628D1*
X1354089Y2708313D1*
X1360773Y2714022D1*
X1368440Y2718694D1*
X1360773Y2723380D1*
X1354089Y2729089D1*
X1348380Y2735773D1*
X1343787Y2743268D1*
X1340423Y2751390D1*
X1340092Y2752564D1*
X1276492Y2688911D1*
X1276356Y2366610D1*
X1275271Y2359758D1*
X1273127Y2353161D1*
X1269978Y2346980D1*
X1265900Y2341367D1*
X1237561Y2312835D1*
X1209814Y2285281D1*
X1204201Y2281203D1*
X1198020Y2278054D1*
X1191423Y2275910D1*
X1184571Y2274825D1*
X1144357Y2274689D1*
X1129537D1*
X1122964Y2270738D1*
X1115128Y2267492D1*
X1106881Y2265512D1*
X1098425Y2264846D1*
X1089970Y2265512D1*
X1081722Y2267492D1*
X1073886Y2270738D1*
X1066655Y2275169D1*
X1060205Y2280678D1*
X1054697Y2287127D1*
X1050265Y2294359D1*
X1047019Y2302195D1*
X1045039Y2310442D1*
X1044374Y2318898D1*
X1045039Y2327353D1*
X1047019Y2335600D1*
X1047783Y2337669D1*
X889725Y2337638D1*
X884253Y2332935D1*
X878338Y2329311D1*
X871929Y2326656D1*
X865183Y2325036D1*
X858268Y2324492D1*
X828089D1*
X822971Y2320936D1*
X819133Y2318615D1*
X826628Y2314022D1*
X833313Y2308313D1*
X839022Y2301628D1*
X843615Y2294133D1*
X846979Y2286012D1*
X849031Y2277464D1*
X849720Y2268701D1*
X849031Y2259937D1*
X846979Y2251390D1*
X843615Y2243268D1*
X839022Y2235773D1*
X833313Y2229089D1*
X826628Y2223380D1*
X818962Y2218708D1*
X826628Y2214022D1*
X833313Y2208313D1*
X839022Y2201628D1*
X843615Y2194133D1*
X846979Y2186012D1*
X849031Y2177464D1*
X849243Y2175673D1*
X891884Y2132845D1*
X895962Y2127233D1*
X899111Y2121052D1*
X901255Y2114454D1*
X902340Y2107602D1*
X902476Y2067388D1*
X902340Y1482949D1*
X901255Y1476097D1*
X899111Y1469499D1*
X895962Y1463318D1*
X891884Y1457706D1*
X888500Y1454068D1*
Y900268D1*
X895039Y894448D1*
X902353Y885885D1*
X908237Y876283D1*
X912546Y865878D1*
X915175Y854928D1*
X916059Y843701D1*
X915175Y832474D1*
X912546Y821523D1*
X908237Y811119D1*
X902353Y801517D1*
X895039Y792953D1*
X886475Y785639D1*
X876873Y779755D1*
X866469Y775446D1*
X855518Y772817D1*
X844291Y771933D1*
X833064Y772817D1*
X822114Y775446D1*
X811709Y779755D1*
X802107Y785639D1*
X793544Y792953D1*
X786230Y801517D1*
X780346Y811119D1*
X776036Y821523D1*
X775421Y823705D1*
X772801Y816236D1*
X767688Y806202D1*
X761069Y797091D1*
X753105Y789128D1*
X743995Y782509D1*
X733960Y777396D1*
X723250Y773916D1*
X712127Y772154D1*
X700865D1*
X689742Y773916D1*
X679032Y777396D1*
X668998Y782509D1*
X659887Y789128D1*
X651923Y797091D1*
X645304Y806202D1*
X640477Y815617D1*
X750703Y900168D2*
X757244Y894448D1*
X764557Y885885D1*
X770442Y876283D1*
X774751Y865878D1*
X775367Y863696D1*
X777987Y871165D1*
X783099Y881199D1*
X789719Y890310D1*
X797682Y898273D1*
X800085Y900168D1*
X800083Y1308724D1*
X705658Y1308744D1*
X705669Y1250552D1*
X761963Y1194066D1*
X766041Y1188453D1*
X769190Y1182272D1*
X771334Y1175675D1*
X772419Y1168823D1*
X772555Y1128609D1*
X772419Y943579D1*
X771334Y936727D1*
X769190Y930129D1*
X766041Y923948D1*
X761963Y918336D1*
X750705Y906824D1*
Y900257D1*
X1312278Y619845D2*
X1321056Y621165D1*
X1331700D1*
X1342213Y619500D1*
X1352336Y616211D1*
X1361819Y611378D1*
X1370430Y605122D1*
X1377957Y597596D1*
X1384213Y588985D1*
X1389045Y579501D1*
X1392334Y569378D1*
X1393919Y559547D1*
X1394177Y576377D1*
X1394134Y637834D1*
X1362188Y669779D1*
X1312345Y619903D1*
X2472949Y1522710D2*
Y1458979D1*
X2481842Y1459009D1*
X2489914Y1457730D1*
X2497687Y1455205D1*
X2504969Y1451494D1*
X2511581Y1446691D1*
X2517360Y1440912D1*
X2522164Y1434300D1*
X2525874Y1427018D1*
X2528400Y1419245D1*
X2529678Y1411173D1*
Y1403000D1*
X2528400Y1394928D1*
X2525874Y1387155D1*
X2522164Y1379873D1*
X2517360Y1373262D1*
X2511581Y1367483D1*
X2504969Y1362679D1*
X2497687Y1358968D1*
X2489914Y1356443D1*
X2481842Y1355164D1*
X2473670D1*
X2465597Y1356443D1*
X2457825Y1358968D1*
X2450543Y1362679D1*
X2443931Y1367483D1*
X2438152Y1373262D1*
X2433348Y1379873D1*
X2429638Y1387155D1*
X2427112Y1394928D1*
X2425834Y1403000D1*
Y1411173D1*
X2427112Y1419245D1*
X2429638Y1427018D1*
X2430019Y1427845D1*
X2402108Y1427838D1*
X2401946Y1354405D1*
X2400861Y1347554D1*
X2398718Y1340956D1*
X2395568Y1334775D1*
X2391491Y1329163D1*
X2363151Y1300631D1*
X2331861Y1269533D1*
X2326249Y1265455D1*
X2320068Y1262306D1*
X2313470Y1260162D1*
X2306618Y1259077D1*
X2266404Y1258941D1*
X1539839Y1259077D1*
X1532987Y1260162D1*
X1526389Y1262306D1*
X1520208Y1265455D1*
X1514596Y1269533D1*
X1504257Y1279679D1*
X1504248Y1162089D1*
X1482610D1*
X1482458Y804996D1*
X1481373Y798144D1*
X1479229Y791547D1*
X1476080Y785366D1*
X1472002Y779753D1*
X1443663Y751221D1*
X1424709Y732267D1*
X1472002Y684814D1*
X1476080Y679201D1*
X1479229Y673020D1*
X1481373Y666423D1*
X1482458Y659571D1*
X1482595Y619357D1*
X1482760Y559562D1*
X1504248D1*
Y445558D1*
X2514246Y445571D1*
X2514256Y543994D1*
X2498508Y543980D1*
Y545954D1*
X2418185Y546085D1*
X2411333Y547170D1*
X2404736Y549314D1*
X2398555Y552463D1*
X2392942Y556541D1*
X2364410Y584880D1*
X2336462Y613021D1*
X2332385Y618633D1*
X2329235Y624814D1*
X2327091Y631412D1*
X2326006Y638264D1*
X2325870Y678478D1*
X2326006Y1180239D1*
X2327092Y1187091D1*
X2329235Y1193688D1*
X2332385Y1199869D1*
X2336462Y1205482D1*
X2364801Y1234014D1*
X2392549Y1261568D1*
X2398161Y1265646D1*
X2404342Y1268795D1*
X2410940Y1270939D1*
X2417791Y1272024D1*
X2458005Y1272160D1*
X2514256Y1272325D1*
Y1293813D1*
X2535894D1*
X2535866Y1496101D1*
X2509186Y1522720D1*
X2472979D1*
X2310547Y1427851D2*
X2306636Y1427838D1*
X2306474Y1413854D1*
X2305389Y1407003D1*
X2303245Y1400405D1*
X2300096Y1394224D1*
X2296018Y1388612D1*
X2291113Y1383706D1*
X2285501Y1379629D1*
X2279320Y1376479D1*
X2272722Y1374336D1*
X2265870Y1373250D1*
X2225656Y1373114D1*
X1963657Y1373250D1*
X1956806Y1374336D1*
X1950208Y1376479D1*
X1944027Y1379629D1*
X1938415Y1383706D1*
X1933509Y1388612D1*
X1929432Y1394224D1*
X1926282Y1400405D1*
X1924136Y1407016D1*
X1923464Y1400993D1*
X1921484Y1392746D1*
X1918239Y1384910D1*
X1913807Y1377678D1*
X1908299Y1371229D1*
X1901849Y1365720D1*
X1894617Y1361289D1*
X1886781Y1358043D1*
X1878534Y1356063D1*
X1870079Y1355398D1*
X1861623Y1356063D1*
X1853376Y1358043D1*
X1845540Y1361289D1*
X1838308Y1365720D1*
X1831859Y1371229D1*
X1826350Y1377678D1*
X1821919Y1384910D1*
X1818673Y1392746D1*
X1816693Y1400993D1*
X1816028Y1409449D1*
X1816693Y1417904D1*
X1818673Y1426152D1*
X1820551Y1431022D1*
X1820555Y1554689D1*
X1818422Y1550376D1*
Y1427838D1*
X1722130D1*
Y1559563D1*
X1726042D1*
X1726203Y1570398D1*
X1727288Y1577249D1*
X1729432Y1583847D1*
X1732581Y1590028D1*
X1736659Y1595640D1*
X1764998Y1624172D1*
X1774492Y1633727D1*
Y1667279D1*
X1771128Y1673996D1*
X1768799Y1681087D1*
X1738123Y1711697D1*
X1504405Y1711833D1*
X1497554Y1712918D1*
X1490956Y1715062D1*
X1484775Y1718211D1*
X1479163Y1722289D1*
X1450631Y1750628D1*
X1423076Y1778375D1*
X1418999Y1783988D1*
X1415849Y1790169D1*
X1413706Y1796766D1*
X1412620Y1803618D1*
X1412484Y1815950D1*
X1406778Y1814229D1*
X1398096Y1812854D1*
X1389306D1*
X1380623Y1814229D1*
X1372263Y1816945D1*
X1364431Y1820936D1*
X1357319Y1826103D1*
X1355237Y1828028D1*
X1355275Y1805670D1*
X1525743Y1635010D1*
X1529820Y1629398D1*
X1532969Y1623217D1*
X1535113Y1616620D1*
X1536198Y1609768D1*
X1536335Y1569554D1*
X1536378Y1372600D1*
X1561680Y1347358D1*
X2284881Y1347401D1*
X2313665Y1376247D1*
Y1427812D1*
X2214256Y1461534D2*
Y1559563D1*
X2218167D1*
X2218329Y1570398D1*
X2219414Y1577249D1*
X2221814Y1584489D1*
X2208185Y1570799D1*
Y1559567D1*
X2212122Y1559563D1*
Y1461563D1*
X2115831Y1461534D2*
Y1559563D1*
X2119742D1*
X2119904Y1592640D1*
X2120989Y1599492D1*
X2123133Y1606090D1*
X2126282Y1612271D1*
X2130360Y1617883D1*
X2158699Y1646415D1*
X2185286Y1673002D1*
X2178478Y1674492D1*
X2136379Y1674449D1*
X2109760Y1647769D1*
Y1559530D1*
X2113697Y1559563D1*
Y1461563D1*
X2115866Y1461532D1*
X2017406Y1461534D2*
Y1559563D1*
X2021317D1*
X2021479Y1669610D1*
X2022564Y1676462D1*
X2024708Y1683060D1*
X2027857Y1689241D1*
X2031935Y1694853D1*
X2060274Y1723385D1*
X2089399Y1752317D1*
X2095011Y1756395D1*
X2101192Y1759544D1*
X2107790Y1761688D1*
X2114642Y1762773D1*
X2154856Y1762910D1*
X2221636D1*
X2219096Y1770847D1*
X2217769Y1779224D1*
Y1787705D1*
X2219096Y1796083D1*
X2221717Y1804149D1*
X2225567Y1811706D1*
X2230553Y1818568D1*
X2236550Y1824565D1*
X2243412Y1829551D1*
X2250969Y1833401D1*
X2259036Y1836022D1*
X2262336Y1836679D1*
X2290437Y1864829D1*
Y2067037D1*
X2281778Y2064229D1*
X2273096Y2062854D1*
X2264306D1*
X2255623Y2064229D1*
X2247263Y2066945D1*
X2239431Y2070936D1*
X2232319Y2076103D1*
X2226103Y2082319D1*
X2220936Y2089431D1*
X2218615Y2093268D1*
X2214022Y2085773D1*
X2208313Y2079089D1*
X2201628Y2073380D1*
X2194133Y2068787D1*
X2186012Y2065423D1*
X2177464Y2063371D1*
X2168701Y2062681D1*
X2159937Y2063371D1*
X2151390Y2065423D1*
X2143268Y2068787D1*
X2135773Y2073380D1*
X2129089Y2079089D1*
X2123380Y2085773D1*
X2118708Y2093440D1*
X2114022Y2085773D1*
X2108313Y2079089D1*
X2101628Y2073380D1*
X2094133Y2068787D1*
X2086012Y2065423D1*
X2077464Y2063371D1*
X2068701Y2062681D1*
X2059937Y2063371D1*
X2051390Y2065423D1*
X2043268Y2068787D1*
X2035773Y2073380D1*
X2029089Y2079089D1*
X2023380Y2085773D1*
X2018708Y2093440D1*
X2014022Y2085773D1*
X2008313Y2079089D1*
X2001628Y2073380D1*
X1994133Y2068787D1*
X1986012Y2065423D1*
X1977464Y2063371D1*
X1968701Y2062681D1*
X1959937Y2063371D1*
X1951390Y2065423D1*
X1943268Y2068787D1*
X1935773Y2073380D1*
X1929089Y2079089D1*
X1923380Y2085773D1*
X1918708Y2093440D1*
X1914022Y2085773D1*
X1908313Y2079089D1*
X1901628Y2073380D1*
X1894133Y2068787D1*
X1886012Y2065423D1*
X1877464Y2063371D1*
X1868701Y2062681D1*
X1859937Y2063371D1*
X1851390Y2065423D1*
X1843268Y2068787D1*
X1835773Y2073380D1*
X1829089Y2079089D1*
X1823380Y2085773D1*
X1818708Y2093440D1*
X1814022Y2085773D1*
X1808313Y2079089D1*
X1801628Y2073380D1*
X1794133Y2068787D1*
X1786012Y2065423D1*
X1777464Y2063371D1*
X1768701Y2062681D1*
X1759937Y2063371D1*
X1751390Y2065423D1*
X1743268Y2068787D1*
X1735773Y2073380D1*
X1729089Y2079089D1*
X1723380Y2085773D1*
X1718708Y2093440D1*
X1714022Y2085773D1*
X1708313Y2079089D1*
X1701628Y2073380D1*
X1694133Y2068787D1*
X1686012Y2065423D1*
X1677464Y2063371D1*
X1675673Y2063159D1*
X1587909Y1975328D1*
Y1924695D1*
X1699721Y1924720D1*
Y1912914D1*
X1745511Y1912953D1*
X1774492Y1941995D1*
Y1967293D1*
X1771128Y1973996D1*
X1768631Y1981680D1*
X1767367Y1989661D1*
Y1997741D1*
X1768631Y2005721D1*
X1771128Y2013406D1*
X1774797Y2020605D1*
X1779546Y2027142D1*
X1785259Y2032856D1*
X1791796Y2037605D1*
X1798996Y2041273D1*
X1806680Y2043770D1*
X1814661Y2045034D1*
X1822741D1*
X1830721Y2043770D1*
X1838406Y2041273D1*
X1845605Y2037605D1*
X1852142Y2032856D1*
X1857856Y2027142D1*
X1862605Y2020605D1*
X1866273Y2013406D1*
X1868770Y2005721D1*
X1870034Y1997741D1*
Y1989661D1*
X1868770Y1981680D1*
X1866273Y1973996D1*
X1862906Y1967334D1*
X1862773Y1920153D1*
X1861688Y1913302D1*
X1859544Y1906704D1*
X1856395Y1900523D1*
X1852317Y1894911D1*
X1823978Y1866379D1*
X1792491Y1835084D1*
X1786879Y1831007D1*
X1780698Y1827857D1*
X1774100Y1825713D1*
X1767248Y1824628D1*
X1727034Y1824492D1*
X1699726D1*
X1699721Y1812681D1*
X1587681D1*
Y1834032D1*
X1583313Y1829089D1*
X1576628Y1823380D1*
X1569133Y1818787D1*
X1561012Y1815423D1*
X1552464Y1813371D1*
X1543701Y1812681D1*
X1534937Y1813371D1*
X1526390Y1815423D1*
X1518268Y1818787D1*
X1510773Y1823380D1*
X1504089Y1829089D1*
X1500901Y1832575D1*
X1500945Y1825355D1*
X1526247Y1800114D1*
X1759965Y1799978D1*
X1766816Y1798893D1*
X1773414Y1796749D1*
X1779595Y1793600D1*
X1785207Y1789522D1*
X1813739Y1761183D1*
X1831273Y1743649D1*
X1838406Y1741273D1*
X1845605Y1737605D1*
X1852142Y1732856D1*
X1857856Y1727142D1*
X1862605Y1720605D1*
X1866273Y1713406D1*
X1868770Y1705721D1*
X1870034Y1697741D1*
Y1689661D1*
X1868770Y1681680D1*
X1866273Y1673996D1*
X1862906Y1667334D1*
X1862773Y1611886D1*
X1861688Y1605034D1*
X1859544Y1598436D1*
X1856395Y1592255D1*
X1852317Y1586643D1*
X1825424Y1559557D1*
X1882527Y1559563D1*
X1880513Y1566122D1*
X1879186Y1574499D1*
Y1582981D1*
X1880513Y1591358D1*
X1883134Y1599425D1*
X1886985Y1606982D1*
X1891970Y1613844D1*
X1897967Y1619841D1*
X1904829Y1624826D1*
X1912386Y1628677D1*
X1920453Y1631298D1*
X1928830Y1632625D1*
X1937312D1*
X1945689Y1631298D1*
X1953755Y1628677D1*
X1961313Y1624826D1*
X1968174Y1619841D1*
X1974172Y1613844D1*
X1979157Y1606982D1*
X1983008Y1599425D1*
X1985629Y1591358D1*
X1986955Y1582981D1*
Y1574499D1*
X1985629Y1566122D1*
X1983564Y1559564D1*
X2015272Y1559563D1*
Y1461563D1*
X1918981Y1432467D2*
Y1451773D1*
X1916847Y1449327D1*
Y1436516D1*
X1918981Y1432377D1*
X1922917Y1426509D1*
Y1427837D1*
X1921484Y1426152D1*
X1922918Y1420652D1*
X2624313Y1293813D2*
X2645981D1*
Y1272175D1*
X2674458Y1272160D1*
X2674492Y1306143D1*
X2669258Y1313402D1*
X2665127Y1321510D1*
X2662315Y1330164D1*
X2660891Y1339151D1*
Y1348250D1*
X2662315Y1357238D1*
X2665127Y1365892D1*
X2669258Y1374000D1*
X2674606Y1381361D1*
X2678781Y1385707D1*
X2660713Y1385712D1*
Y1501689D1*
X2674457D1*
X2674449Y1577400D1*
X2635084Y1616958D1*
X2631007Y1622570D1*
X2627857Y1628751D1*
X2625714Y1635349D1*
X2624628Y1642201D1*
X2624492Y1672547D1*
X2622630Y1674485D1*
X2491828Y1674492D1*
X2494905Y1669974D1*
X2498756Y1662417D1*
X2501377Y1654350D1*
X2502703Y1645973D1*
Y1637491D1*
X2501377Y1629114D1*
X2498756Y1621048D1*
X2494905Y1613491D1*
X2493330Y1611133D1*
X2531028Y1611002D1*
X2537879Y1609916D1*
X2544477Y1607773D1*
X2550658Y1604623D1*
X2556270Y1600546D1*
X2584802Y1572207D1*
X2613735Y1543081D1*
X2617812Y1537469D1*
X2620962Y1531288D1*
X2623105Y1524690D1*
X2624191Y1517839D1*
X2624327Y1477625D1*
Y1293790D1*
X1381710Y1293814D2*
X1394162D1*
X1394134Y1356062D1*
X1269675Y1480521D1*
X1212265Y1480538D1*
Y1495860D1*
X1207463Y1491989D1*
X1199442Y1487073D1*
X1190749Y1483473D1*
X1181601Y1481276D1*
X1172222Y1480538D1*
X1162842Y1481276D1*
X1153694Y1483473D1*
X1145002Y1487073D1*
X1136980Y1491989D1*
X1129826Y1498099D1*
X1123716Y1505253D1*
X1122255Y1507440D1*
X1117813Y1501556D1*
X1111161Y1494903D1*
X1103549Y1489373D1*
X1095166Y1485102D1*
X1086218Y1482195D1*
X1076926Y1480723D1*
X1067518D1*
X1058225Y1482195D1*
X1049277Y1485102D1*
X1040894Y1489373D1*
X1033283Y1494903D1*
X1026630Y1501556D1*
X1022255Y1507440D1*
X1017813Y1501556D1*
X1016428Y1500057D1*
X1016474Y1175750D1*
X1119845Y1072184D1*
X1121025Y1076532D1*
X1121130Y1279959D1*
X1117194Y1286485D1*
X1113949Y1294321D1*
X1111969Y1302568D1*
X1111303Y1311024D1*
X1111969Y1319479D1*
X1113949Y1327726D1*
X1117194Y1335562D1*
X1121626Y1342794D1*
X1127134Y1349244D1*
X1133584Y1354752D1*
X1140816Y1359184D1*
X1148652Y1362429D1*
X1156899Y1364409D1*
X1165354Y1365075D1*
X1173810Y1364409D1*
X1182057Y1362429D1*
X1189893Y1359184D1*
X1197125Y1354752D1*
X1203574Y1349244D1*
X1209083Y1342794D1*
X1213514Y1335562D1*
X1216760Y1327726D1*
X1218740Y1319479D1*
X1219406Y1311024D1*
X1218740Y1302568D1*
X1216760Y1294321D1*
X1213514Y1286485D1*
X1209552Y1279956D1*
X1209220Y641438D1*
X1212440Y645040D1*
X1394177Y826837D1*
X1394012Y1162089D1*
X1372524D1*
Y1293814D1*
X1381710D1*
X1482580D2*
X1490116D1*
X1482588Y1301348D1*
X1482595Y1293842D1*
X2507694Y738695D2*
X2630232D1*
Y646341D1*
X2498508D1*
Y738695D1*
X2507694D1*
X1632891Y1559563D2*
X1719996D1*
Y1427839D1*
X1643670D1*
X1646510Y1419245D1*
X1647788Y1411173D1*
Y1403000D1*
X1646510Y1394928D1*
X1643984Y1387155D1*
X1640274Y1379873D1*
X1635470Y1373262D1*
X1629691Y1367483D1*
X1623079Y1362679D1*
X1615797Y1358968D1*
X1608025Y1356443D1*
X1599953Y1355164D1*
X1591780D1*
X1583708Y1356443D1*
X1575935Y1358968D1*
X1568653Y1362679D1*
X1562041Y1367483D1*
X1556262Y1373262D1*
X1551458Y1379873D1*
X1547748Y1387155D1*
X1545223Y1394928D1*
X1543944Y1403000D1*
Y1411173D1*
X1545223Y1419245D1*
X1547748Y1427018D1*
X1551458Y1434300D1*
X1556262Y1440912D1*
X1562041Y1446691D1*
X1568653Y1451494D1*
X1575935Y1455205D1*
X1583708Y1457730D1*
X1591780Y1459009D1*
X1599953D1*
X1608025Y1457730D1*
X1615797Y1455205D1*
X1623079Y1451494D1*
X1623704Y1451077D1*
X1623705Y1559563D1*
X1632891D1*
X644037Y2489739D2*
X642798Y2481914D1*
X640349Y2474378D1*
X637910Y2469386D1*
Y2281231D1*
X643144Y2274000D1*
X647275Y2265892D1*
X650087Y2257238D1*
X651510Y2248250D1*
Y2239151D1*
X650087Y2230164D1*
X647275Y2221510D1*
X643144Y2213402D1*
X637795Y2206040D1*
X633621Y2201695D1*
X651689Y2201689D1*
Y2189237D1*
X738123Y2275644D1*
X739229Y2281778D1*
X741945Y2290139D1*
X745936Y2297971D1*
X751103Y2305083D1*
X757319Y2311298D1*
X764431Y2316465D1*
X768268Y2318787D1*
X760773Y2323380D1*
X754089Y2329089D1*
X748380Y2335773D1*
X743787Y2343268D1*
X740423Y2351390D1*
X738371Y2359937D1*
X737681Y2368701D1*
X738371Y2377464D1*
X740423Y2386012D1*
X743787Y2394133D1*
X748380Y2401628D1*
X754089Y2408313D1*
X760773Y2414022D1*
X768440Y2418694D1*
X760773Y2423380D1*
X754089Y2429089D1*
X748380Y2435773D1*
X743787Y2443268D1*
X740423Y2451390D1*
X738371Y2459937D1*
X737681Y2468701D1*
X738371Y2477464D1*
X740423Y2486012D1*
X743787Y2494133D1*
X748380Y2501628D1*
X754089Y2508313D1*
X760773Y2514022D1*
X768440Y2518694D1*
X760773Y2523380D1*
X754089Y2529089D1*
X748380Y2535773D1*
X743787Y2543268D1*
X740423Y2551390D1*
X738371Y2559937D1*
X737681Y2568701D1*
X738371Y2577464D1*
X740423Y2586012D1*
X743787Y2594133D1*
X748380Y2601628D1*
X754089Y2608313D1*
X760773Y2614022D1*
X768440Y2618694D1*
X760773Y2623380D1*
X754089Y2629089D1*
X748380Y2635773D1*
X743787Y2643268D1*
X740423Y2651390D1*
X738371Y2659937D1*
X737681Y2668701D1*
X738371Y2677464D1*
X740423Y2686012D1*
X743787Y2694133D1*
X748380Y2701628D1*
X754089Y2708313D1*
X760773Y2714022D1*
X768440Y2718694D1*
X760773Y2723380D1*
X759356Y2724497D1*
X623430Y2724492D1*
X629404Y2719404D1*
X634550Y2713379D1*
X638690Y2706624D1*
X641722Y2699304D1*
X643571Y2691599D1*
X644193Y2683701D1*
X643571Y2675802D1*
X641722Y2668098D1*
X638690Y2660778D1*
X634550Y2654022D1*
X629404Y2647997D1*
X623379Y2642852D1*
X616624Y2638712D1*
X609304Y2635680D1*
X601599Y2633830D1*
X593701Y2633209D1*
X585802Y2633830D1*
X578098Y2635680D1*
X570778Y2638712D1*
X564022Y2642852D1*
X557997Y2647997D1*
X552852Y2654022D1*
X548712Y2660778D1*
X545680Y2668098D1*
X543830Y2675802D1*
X543209Y2683701D1*
X543830Y2691599D1*
X545680Y2699304D1*
X548712Y2706624D1*
X552852Y2713379D1*
X557997Y2719404D1*
X563937Y2724483D1*
X549765Y2724449D1*
X524524Y2699147D1*
X524567Y2275355D1*
X538551Y2261620D1*
X542033Y2270027D1*
X546787Y2277785D1*
X549485Y2281207D1*
X549492Y2469305D1*
X547052Y2474378D1*
X544604Y2481914D1*
X543364Y2489739D1*
Y2497662D1*
X544604Y2505488D1*
X547052Y2513023D1*
X550649Y2520083D1*
X555306Y2526493D1*
X560909Y2532095D1*
X567319Y2536752D1*
X574378Y2540349D1*
X581914Y2542798D1*
X589739Y2544037D1*
X597662D1*
X605488Y2542798D1*
X613023Y2540349D1*
X620083Y2536752D1*
X626493Y2532095D1*
X632095Y2526493D1*
X636752Y2520083D1*
X640349Y2513023D1*
X642798Y2505488D1*
X644037Y2497662D1*
Y2489739D1*
X746868Y3824720D2*
X814079D1*
X814195Y4255437D1*
X815280Y4262289D1*
X817424Y4268886D1*
X820574Y4275068D1*
X822510Y4277964D1*
X818898Y4278839D1*
X445594D1*
X445571Y2744838D1*
X449065Y2748789D1*
X502785Y2802317D1*
X508397Y2806395D1*
X514578Y2809544D1*
X521176Y2811688D1*
X528027Y2812773D1*
X568241Y2812909D1*
X759325D1*
X764431Y2816465D1*
X768268Y2818787D1*
X760773Y2823380D1*
X759356Y2824497D1*
X575272Y2824628D1*
X568420Y2825714D1*
X561822Y2827857D1*
X555641Y2831007D1*
X550029Y2835084D1*
X521497Y2863423D1*
X493943Y2891171D1*
X489865Y2896783D1*
X486716Y2902964D1*
X484572Y2909562D1*
X483487Y2916413D1*
X483350Y2956627D1*
X483487Y3561077D1*
X484572Y3567929D1*
X486716Y3574527D1*
X489865Y3580708D1*
X493943Y3586320D1*
X522282Y3614852D1*
X544788Y3637359D1*
X547155Y3644482D1*
X550823Y3651681D1*
X555572Y3658218D1*
X561286Y3663932D1*
X567822Y3668681D1*
X575022Y3672349D1*
X582706Y3674846D1*
X590687Y3676110D1*
X598767D1*
X606748Y3674846D1*
X614432Y3672349D1*
X621632Y3668681D1*
X628168Y3663932D1*
X633882Y3658218D1*
X638631Y3651681D1*
X642300Y3644482D1*
X644796Y3636798D1*
X646060Y3628817D1*
Y3620737D1*
X644796Y3612756D1*
X642300Y3605072D1*
X638631Y3597872D1*
X633882Y3591335D1*
X628168Y3585622D1*
X621632Y3580873D1*
X614432Y3577204D1*
X607340Y3574875D1*
X571768Y3539236D1*
Y3370832D1*
X578815Y3373749D1*
X586672Y3375635D1*
X594727Y3376269D1*
X602782Y3375635D1*
X610639Y3373749D1*
X618104Y3370657D1*
X624993Y3366435D1*
X631137Y3361187D1*
X636385Y3355043D1*
X640607Y3348154D1*
X643699Y3340689D1*
X644629Y3337390D1*
X695034Y3286798D1*
X699112Y3281186D1*
X702261Y3275005D1*
X704405Y3268407D1*
X705490Y3261555D1*
X705626Y3221341D1*
X705669Y3119253D1*
X740051Y3084871D1*
X741945Y3090139D1*
X745936Y3097971D1*
X751103Y3105083D1*
X757319Y3111298D1*
X764431Y3116465D1*
X768268Y3118787D1*
X760773Y3123380D1*
X754089Y3129089D1*
X748380Y3135773D1*
X743787Y3143268D1*
X740423Y3151390D1*
X738371Y3159937D1*
X737681Y3168701D1*
X738371Y3177464D1*
X740423Y3186012D1*
X743787Y3194133D1*
X748380Y3201628D1*
X754089Y3208313D1*
X760773Y3214022D1*
X768440Y3218694D1*
X760773Y3223380D1*
X754089Y3229089D1*
X748380Y3235773D1*
X743787Y3243268D1*
X740423Y3251390D1*
X738371Y3259937D1*
X737681Y3268701D1*
X738371Y3277464D1*
X740423Y3286012D1*
X743787Y3294133D1*
X748380Y3301628D1*
X754089Y3308313D1*
X760773Y3314022D1*
X768440Y3318694D1*
X760773Y3323380D1*
X754089Y3329089D1*
X748380Y3335773D1*
X743787Y3343268D1*
X740423Y3351390D1*
X738371Y3359937D1*
X737681Y3368701D1*
X738371Y3377464D1*
X740423Y3386012D1*
X743787Y3394133D1*
X748380Y3401628D1*
X754089Y3408313D1*
X760773Y3414022D1*
X768440Y3418694D1*
X760773Y3423380D1*
X754089Y3429089D1*
X748380Y3435773D1*
X743787Y3443268D1*
X740423Y3451390D1*
X738371Y3459937D1*
X737681Y3468701D1*
X738371Y3477464D1*
X740423Y3486012D1*
X743787Y3494133D1*
X748380Y3501628D1*
X754089Y3508313D1*
X760773Y3514022D1*
X768440Y3518694D1*
X760773Y3523380D1*
X754089Y3529089D1*
X748380Y3535773D1*
X743787Y3543268D1*
X740423Y3551390D1*
X738371Y3559937D1*
X737681Y3568701D1*
X738371Y3577464D1*
X740423Y3586012D1*
X743787Y3594133D1*
X748380Y3601628D1*
X754089Y3608313D1*
X760773Y3614022D1*
X768440Y3618694D1*
X760773Y3623380D1*
X754089Y3629089D1*
X748380Y3635773D1*
X743787Y3643268D1*
X740423Y3651390D1*
X738371Y3659937D1*
X737681Y3668701D1*
X738371Y3677464D1*
X740423Y3686012D1*
X743787Y3694133D1*
X748380Y3701628D1*
X754089Y3708313D1*
X759060Y3712671D1*
X737681Y3712681D1*
Y3824720D1*
X746868D1*
X849243Y3261729D2*
X848173Y3255623D1*
X845456Y3247263D1*
X841465Y3239431D1*
X836298Y3232319D1*
X830083Y3226103D1*
X822971Y3220936D1*
X819133Y3218615D1*
X826628Y3214022D1*
X833313Y3208313D1*
X839022Y3201628D1*
X843615Y3194133D1*
X846979Y3186012D1*
X849031Y3177464D1*
X849720Y3168701D1*
X849031Y3159937D1*
X846979Y3151390D1*
X843615Y3143268D1*
X839022Y3135773D1*
X833313Y3129089D1*
X826628Y3123380D1*
X818962Y3118708D1*
X826628Y3114022D1*
X833313Y3108313D1*
X839022Y3101628D1*
X843615Y3094133D1*
X846979Y3086012D1*
X849031Y3077464D1*
X849720Y3068701D1*
X849031Y3059937D1*
X846979Y3051390D1*
X843615Y3043268D1*
X839022Y3035773D1*
X833313Y3029089D1*
X826628Y3023380D1*
X818962Y3018708D1*
X826628Y3014022D1*
X833313Y3008313D1*
X839022Y3001628D1*
X843615Y2994133D1*
X846979Y2986012D1*
X849031Y2977464D1*
X849720Y2968701D1*
X849031Y2959937D1*
X846979Y2951390D1*
X843615Y2943268D1*
X839022Y2935773D1*
X833313Y2929089D1*
X826628Y2923380D1*
X818962Y2918708D1*
X826628Y2914022D1*
X833313Y2908313D1*
X839022Y2901628D1*
X843615Y2894133D1*
X846979Y2886012D1*
X849031Y2877464D1*
X849720Y2868701D1*
X849031Y2859937D1*
X846979Y2851390D1*
X843615Y2843268D1*
X839022Y2835773D1*
X833313Y2829089D1*
X826628Y2823380D1*
X818962Y2818708D1*
X826628Y2814022D1*
X833313Y2808313D1*
X839022Y2801628D1*
X843615Y2794133D1*
X846979Y2786012D1*
X849031Y2777464D1*
X849720Y2768701D1*
X849031Y2759937D1*
X846979Y2751390D1*
X843615Y2743268D1*
X839022Y2735773D1*
X833313Y2729089D1*
X826628Y2723380D1*
X818962Y2718708D1*
X826628Y2714022D1*
X833313Y2708313D1*
X839022Y2701628D1*
X843615Y2694133D1*
X846979Y2686012D1*
X849031Y2677464D1*
X849720Y2668701D1*
X849031Y2659937D1*
X846979Y2651390D1*
X843615Y2643268D1*
X839022Y2635773D1*
X833313Y2629089D1*
X826628Y2623380D1*
X818962Y2618708D1*
X826628Y2614022D1*
X833313Y2608313D1*
X839022Y2601628D1*
X843615Y2594133D1*
X846979Y2586012D1*
X847310Y2584838D1*
X877051Y2614633D1*
Y3289506D1*
X849310Y3261790D1*
X768440Y2918708D2*
X760773Y2923380D1*
X754089Y2929089D1*
X748380Y2935773D1*
X743787Y2943268D1*
X740423Y2951390D1*
X738371Y2959937D1*
X738159Y2961729D1*
X651683Y3048198D1*
X651689Y3010712D1*
X633639D1*
X637795Y3006361D1*
X643144Y2999000D1*
X647275Y2990892D1*
X650087Y2982238D1*
X651510Y2973250D1*
Y2964151D1*
X650087Y2955164D1*
X647275Y2946510D1*
X643144Y2938402D1*
X637795Y2931040D1*
X631361Y2924606D1*
X624000Y2919258D1*
X615892Y2915127D1*
X609343Y2912909D1*
X759273D1*
X764431Y2916465D1*
X768440Y2918694D1*
X849243Y2461729D2*
X848173Y2455623D1*
X845456Y2447263D1*
X841465Y2439431D1*
X836298Y2432319D1*
X830083Y2426103D1*
X822971Y2420936D1*
X819133Y2418615D1*
X826628Y2414022D1*
X828045Y2412905D1*
X839999Y2412953D1*
X845471Y2417655D1*
X851386Y2421280D1*
X857795Y2423935D1*
X864541Y2425554D1*
X871470Y2426098D1*
X984743D1*
X982875Y2432264D1*
X981549Y2440641D1*
Y2449123D1*
X982875Y2457500D1*
X985496Y2465566D1*
X989347Y2473124D1*
X991217Y2475922D1*
X991224Y3606704D1*
X987273Y3613257D1*
X984027Y3621093D1*
X982047Y3629340D1*
X981382Y3637795D1*
X982047Y3646251D1*
X984027Y3654498D1*
X987273Y3662334D1*
X991705Y3669566D1*
X997213Y3676015D1*
X1003663Y3681524D1*
X1010894Y3685955D1*
X1018730Y3689201D1*
X1026978Y3691181D1*
X1035433Y3691846D1*
X1043889Y3691181D1*
X1052136Y3689201D1*
X1059972Y3685955D1*
X1067373Y3681390D1*
X1067377Y4063875D1*
X965504Y4063882D1*
X965469Y2596260D1*
X964924Y2589344D1*
X963305Y2582599D1*
X960650Y2576189D1*
X957025Y2570275D1*
X952520Y2565000D1*
X849274Y2461753D1*
X768440Y2118708D2*
X760773Y2123380D1*
X754089Y2129089D1*
X748380Y2135773D1*
X743787Y2143268D1*
X740423Y2151390D1*
X740092Y2152564D1*
X705626Y2118045D1*
Y1592162D1*
X712374Y1596988D1*
X720756Y1601259D1*
X729704Y1604166D1*
X738997Y1605638D1*
X748405D1*
X757697Y1604166D1*
X766645Y1601259D1*
X775028Y1596988D1*
X782640Y1591458D1*
X789292Y1584805D1*
X794822Y1577193D1*
X799094Y1568811D1*
X802001Y1559863D1*
X803473Y1550570D1*
Y1541162D1*
X802001Y1531870D1*
X799094Y1522922D1*
X794822Y1514539D1*
X789292Y1506927D1*
X782640Y1500275D1*
X775028Y1494745D1*
X766645Y1490473D1*
X757697Y1487566D1*
X748405Y1486094D1*
X738997D1*
X729704Y1487566D1*
X720756Y1490473D1*
X712374Y1494745D1*
X705614Y1499603D1*
X705626Y1428674D1*
X800117Y1428657D1*
X800219Y1475910D1*
X801304Y1482761D1*
X803448Y1489359D1*
X806597Y1495540D1*
X810675Y1501152D1*
X814059Y1504790D1*
Y1816516D1*
X806778Y1814229D1*
X798096Y1812854D1*
X789306D1*
X780623Y1814229D1*
X772263Y1816945D1*
X764431Y1820936D1*
X757319Y1826103D1*
X751103Y1832319D1*
X745936Y1839431D1*
X741945Y1847263D1*
X739229Y1855623D1*
X737854Y1864306D1*
Y1873096D1*
X739229Y1881778D1*
X741945Y1890139D1*
X745936Y1897971D1*
X751103Y1905083D1*
X757319Y1911298D1*
X764431Y1916465D1*
X768268Y1918787D1*
X760773Y1923380D1*
X754089Y1929089D1*
X748380Y1935773D1*
X743787Y1943268D1*
X740423Y1951390D1*
X738371Y1959937D1*
X737681Y1968701D1*
X738371Y1977464D1*
X740423Y1986012D1*
X743787Y1994133D1*
X748380Y2001628D1*
X754089Y2008313D1*
X760773Y2014022D1*
X768440Y2018694D1*
X760773Y2023380D1*
X754089Y2029089D1*
X748380Y2035773D1*
X743787Y2043268D1*
X740423Y2051390D1*
X738371Y2059937D1*
X737681Y2068701D1*
X738371Y2077464D1*
X740423Y2086012D1*
X743787Y2094133D1*
X748380Y2101628D1*
X754089Y2108313D1*
X760773Y2114022D1*
X768440Y2118694D1*
X1359356Y2012905D2*
X1364431Y2016465D1*
X1368268Y2018787D1*
X1360773Y2023380D1*
X1359356Y2024497D1*
X1144252Y2024449D1*
X1116430Y1996567D1*
Y1580992D1*
X1120728Y1575736D1*
X1122189Y1573550D1*
X1126630Y1579434D1*
X1128016Y1580932D1*
X1128149Y1919983D1*
X1129235Y1926835D1*
X1131378Y1933432D1*
X1134528Y1939613D1*
X1138605Y1945226D1*
X1166944Y1973758D1*
X1195697Y2002317D1*
X1201309Y2006395D1*
X1207490Y2009544D1*
X1214088Y2011688D1*
X1220940Y2012773D1*
X1261154Y2012909D1*
X1359297D1*
X1449548Y2164306D2*
X1449247Y2161763D1*
X1652555Y2365075D1*
X1647263Y2366945D1*
X1639431Y2370936D1*
X1632319Y2376103D1*
X1626103Y2382319D1*
X1620936Y2389431D1*
X1618615Y2393268D1*
X1614022Y2385773D1*
X1608313Y2379089D1*
X1601628Y2373380D1*
X1594133Y2368787D1*
X1586012Y2365423D1*
X1577464Y2363371D1*
X1568701Y2362681D1*
X1559937Y2363371D1*
X1551390Y2365423D1*
X1543268Y2368787D1*
X1535773Y2373380D1*
X1529089Y2379089D1*
X1523380Y2385773D1*
X1518787Y2393268D1*
X1515423Y2401390D1*
X1513371Y2409937D1*
X1512681Y2418701D1*
X1513371Y2427464D1*
X1515423Y2436012D1*
X1518787Y2444133D1*
X1523380Y2451628D1*
X1524497Y2453045D1*
X1524449Y2866055D1*
X1522495Y2868009D1*
X1489341Y2835084D1*
X1483729Y2831007D1*
X1477548Y2827857D1*
X1470950Y2825713D1*
X1464099Y2824628D1*
X1428083Y2824492D1*
X1422971Y2820936D1*
X1419133Y2818615D1*
X1426628Y2814022D1*
X1433313Y2808313D1*
X1439022Y2801628D1*
X1443615Y2794133D1*
X1446979Y2786012D1*
X1449031Y2777464D1*
X1449720Y2768701D1*
X1449031Y2759937D1*
X1446979Y2751390D1*
X1443615Y2743268D1*
X1439022Y2735773D1*
X1433313Y2729089D1*
X1426628Y2723380D1*
X1418962Y2718708D1*
X1426628Y2714022D1*
X1433313Y2708313D1*
X1439022Y2701628D1*
X1443615Y2694133D1*
X1446979Y2686012D1*
X1449031Y2677464D1*
X1449720Y2668701D1*
X1449031Y2659937D1*
X1446979Y2651390D1*
X1443615Y2643268D1*
X1439022Y2635773D1*
X1433313Y2629089D1*
X1426628Y2623380D1*
X1418962Y2618708D1*
X1426628Y2614022D1*
X1433313Y2608313D1*
X1439022Y2601628D1*
X1443615Y2594133D1*
X1446979Y2586012D1*
X1449031Y2577464D1*
X1449720Y2568701D1*
X1449031Y2559937D1*
X1446979Y2551390D1*
X1443615Y2543268D1*
X1439022Y2535773D1*
X1433313Y2529089D1*
X1426628Y2523380D1*
X1418962Y2518708D1*
X1426628Y2514022D1*
X1433313Y2508313D1*
X1439022Y2501628D1*
X1443615Y2494133D1*
X1446979Y2486012D1*
X1449031Y2477464D1*
X1449720Y2468701D1*
X1449031Y2459937D1*
X1446979Y2451390D1*
X1443615Y2443268D1*
X1439022Y2435773D1*
X1433313Y2429089D1*
X1426628Y2423380D1*
X1418962Y2418708D1*
X1426628Y2414022D1*
X1433313Y2408313D1*
X1439022Y2401628D1*
X1443615Y2394133D1*
X1446979Y2386012D1*
X1449031Y2377464D1*
X1449720Y2368701D1*
X1449031Y2359937D1*
X1446979Y2351390D1*
X1443615Y2343268D1*
X1439022Y2335773D1*
X1433313Y2329089D1*
X1426628Y2323380D1*
X1418962Y2318708D1*
X1426628Y2314022D1*
X1433313Y2308313D1*
X1439022Y2301628D1*
X1443615Y2294133D1*
X1446979Y2286012D1*
X1449031Y2277464D1*
X1449720Y2268701D1*
X1449031Y2259937D1*
X1446979Y2251390D1*
X1443615Y2243268D1*
X1439022Y2235773D1*
X1433313Y2229089D1*
X1426628Y2223380D1*
X1418962Y2218708D1*
X1426628Y2214022D1*
X1433313Y2208313D1*
X1439022Y2201628D1*
X1443615Y2194133D1*
X1446979Y2186012D1*
X1449031Y2177464D1*
X1449720Y2168701D1*
X1449548Y2164306D1*
X1338159Y2875673D2*
X1339229Y2881778D1*
X1341945Y2890139D1*
X1345936Y2897971D1*
X1351103Y2905083D1*
X1357319Y2911298D1*
X1364431Y2916465D1*
X1368268Y2918787D1*
X1360773Y2923380D1*
X1354089Y2929089D1*
X1348380Y2935773D1*
X1343787Y2943268D1*
X1340423Y2951390D1*
X1338371Y2959937D1*
X1337681Y2968701D1*
X1338371Y2977464D1*
X1340423Y2986012D1*
X1343787Y2994133D1*
X1348380Y3001628D1*
X1354089Y3008313D1*
X1360773Y3014022D1*
X1368440Y3018694D1*
X1360773Y3023380D1*
X1354089Y3029089D1*
X1348380Y3035773D1*
X1343787Y3043268D1*
X1340423Y3051390D1*
X1338371Y3059937D1*
X1337681Y3068701D1*
X1338371Y3077464D1*
X1340423Y3086012D1*
X1343787Y3094133D1*
X1348380Y3101628D1*
X1354089Y3108313D1*
X1360773Y3114022D1*
X1368440Y3118694D1*
X1360773Y3123380D1*
X1354089Y3129089D1*
X1348380Y3135773D1*
X1343787Y3143268D1*
X1340423Y3151390D1*
X1338371Y3159937D1*
X1337681Y3168701D1*
X1338371Y3177464D1*
X1340423Y3186012D1*
X1343787Y3194133D1*
X1348380Y3201628D1*
X1354089Y3208313D1*
X1360773Y3214022D1*
X1368440Y3218694D1*
X1360773Y3223380D1*
X1354089Y3229089D1*
X1348380Y3235773D1*
X1343787Y3243268D1*
X1340423Y3251390D1*
X1338371Y3259937D1*
X1337681Y3268701D1*
X1338371Y3277464D1*
X1340423Y3286012D1*
X1343787Y3294133D1*
X1348380Y3301628D1*
X1354089Y3308313D1*
X1360773Y3314022D1*
X1368440Y3318694D1*
X1360773Y3323380D1*
X1354089Y3329089D1*
X1348380Y3335773D1*
X1343787Y3343268D1*
X1340423Y3351390D1*
X1338371Y3359937D1*
X1337681Y3368701D1*
X1338371Y3377464D1*
X1340423Y3386012D1*
X1343787Y3394133D1*
X1348380Y3401628D1*
X1354089Y3408313D1*
X1360773Y3414022D1*
X1368440Y3418694D1*
X1360773Y3423380D1*
X1354089Y3429089D1*
X1348380Y3435773D1*
X1343787Y3443268D1*
X1340423Y3451390D1*
X1338371Y3459937D1*
X1337681Y3468701D1*
X1338371Y3477464D1*
X1340423Y3486012D1*
X1343787Y3494133D1*
X1348380Y3501628D1*
X1354089Y3508313D1*
X1360773Y3514022D1*
X1368440Y3518694D1*
X1360773Y3523380D1*
X1354089Y3529089D1*
X1348380Y3535773D1*
X1343787Y3543268D1*
X1340423Y3551390D1*
X1338371Y3559937D1*
X1337681Y3568701D1*
X1338371Y3577464D1*
X1340423Y3586012D1*
X1343787Y3594133D1*
X1348380Y3601628D1*
X1354089Y3608313D1*
X1360773Y3614022D1*
X1368440Y3618694D1*
X1360773Y3623380D1*
X1354089Y3629089D1*
X1348380Y3635773D1*
X1343787Y3643268D1*
X1340423Y3651390D1*
X1338371Y3659937D1*
X1337681Y3668701D1*
X1338371Y3677464D1*
X1340423Y3686012D1*
X1343787Y3694133D1*
X1348380Y3701628D1*
X1354089Y3708313D1*
X1360773Y3714022D1*
X1368440Y3718694D1*
X1360773Y3723380D1*
X1354089Y3729089D1*
X1348380Y3735773D1*
X1343787Y3743268D1*
X1340423Y3751390D1*
X1338371Y3759937D1*
X1337681Y3768701D1*
X1338371Y3777464D1*
X1340423Y3786012D1*
X1343787Y3794133D1*
X1348380Y3801628D1*
X1354089Y3808313D1*
X1360773Y3814022D1*
X1368268Y3818615D1*
X1376390Y3821979D1*
X1384937Y3824031D1*
X1393701Y3824720D1*
X1402464Y3824031D1*
X1411012Y3821979D1*
X1416683Y3819744D1*
X1416692Y4057993D1*
X1400944Y4058010D1*
Y4140795D1*
X1352915Y4140788D1*
X1327673Y4115486D1*
X1327537Y2980783D1*
X1326452Y2973932D1*
X1324308Y2967334D1*
X1321159Y2961153D1*
X1317081Y2955541D1*
X1288742Y2927009D1*
X1201689Y2839895D1*
Y2739240D1*
X1338119Y2875639D1*
X1418962Y2918694D2*
X1426628Y2914022D1*
X1428045Y2912905D1*
X1442361Y2912953D1*
X1459945Y2930537D1*
X1444765Y2945740D1*
X1441465Y2939431D1*
X1436298Y2932319D1*
X1430083Y2926103D1*
X1422971Y2920936D1*
X1418962Y2918708D1*
X571776Y3126689D2*
X617206D1*
X617166Y3239818D1*
X582124Y3274859D1*
X575022Y3277204D1*
X571766Y3278705D1*
X571768Y3126676D1*
X549527Y2085712D2*
X535713D1*
Y2139144D1*
X446690Y2228386D1*
X445571Y2224409D1*
Y1588434D1*
X452554Y1594372D1*
X460576Y1599288D1*
X469268Y1602888D1*
X478416Y1605085D1*
X487795Y1605823D1*
X497175Y1605085D1*
X506323Y1602888D1*
X515015Y1599288D1*
X523037Y1594372D1*
X530191Y1588262D1*
X536301Y1581108D1*
X541217Y1573086D1*
X544817Y1564394D1*
X547014Y1555245D1*
X547752Y1545866D1*
X547014Y1536487D1*
X544817Y1527339D1*
X541217Y1518646D1*
X536301Y1510624D1*
X530191Y1503470D1*
X523037Y1497360D1*
X515015Y1492444D1*
X506323Y1488844D1*
X497175Y1486648D1*
X487795Y1485909D1*
X478416Y1486648D1*
X469268Y1488844D1*
X460576Y1492444D1*
X452554Y1497360D1*
X445575Y1503308D1*
X445571Y1411238D1*
X452554Y1417207D1*
X460576Y1422123D1*
X469268Y1425723D1*
X478416Y1427919D1*
X485131Y1428553D1*
X549492Y1492979D1*
Y2085678D1*
X547647Y1366036D2*
X547014Y1359321D1*
X544817Y1350173D1*
X541217Y1341481D1*
X536301Y1333459D1*
X532001Y1328263D1*
X531868Y1212673D1*
X530783Y1205821D1*
X528639Y1199224D1*
X525489Y1193043D1*
X521412Y1187430D1*
X504839Y1170604D1*
Y1135330D1*
X509253Y1140826D1*
X515172Y1147230D1*
X521575Y1153149D1*
X528423Y1158547D1*
X535674Y1163392D1*
X543282Y1167653D1*
X551201Y1171304D1*
X559382Y1174322D1*
X567775Y1176689D1*
X576328Y1178390D1*
X584987Y1179415D1*
X593701Y1179757D1*
X602414Y1179415D1*
X611074Y1178390D1*
X619626Y1176689D1*
X628019Y1174322D1*
X636200Y1171304D1*
X644119Y1167653D1*
X651728Y1163392D1*
X658978Y1158547D1*
X665826Y1153149D1*
X672230Y1147230D1*
X678149Y1140826D1*
X684134Y1133100D1*
X684095Y1147085D1*
X627801Y1203572D1*
X623723Y1209184D1*
X620574Y1215366D1*
X618430Y1221963D1*
X617345Y1228815D1*
X617209Y1269029D1*
Y1435567D1*
X547697Y1366082D1*
X2803781Y2951695D2*
X2799606Y2956040D1*
X2794258Y2963402D1*
X2790127Y2971510D1*
X2787315Y2980164D1*
X2785891Y2989151D1*
Y2998250D1*
X2787315Y3007238D1*
X2790127Y3015892D1*
X2794258Y3024000D1*
X2799606Y3031361D1*
X2806040Y3037795D1*
X2813402Y3043144D1*
X2821510Y3047275D1*
X2830164Y3050087D1*
X2839151Y3051510D1*
X2848250D1*
X2855581Y3050416D1*
X2745911Y3160265D1*
X2741833Y3165877D1*
X2738684Y3172058D1*
X2736540Y3178656D1*
X2735455Y3185508D1*
X2735319Y3225722D1*
Y3736605D1*
X2731368Y3743178D1*
X2728122Y3751014D1*
X2726142Y3759261D1*
X2725476Y3767717D1*
X2726142Y3776172D1*
X2728122Y3784419D1*
X2731368Y3792255D1*
X2735799Y3799487D1*
X2741308Y3805936D1*
X2747757Y3811445D1*
X2754989Y3815876D1*
X2762825Y3819122D1*
X2771072Y3821102D1*
X2779528Y3821768D1*
X2787983Y3821102D1*
X2796230Y3819122D1*
X2804066Y3815876D1*
X2811298Y3811445D1*
X2817748Y3805936D1*
X2823256Y3799487D1*
X2827688Y3792255D1*
X2830933Y3784419D1*
X2832913Y3776172D1*
X2833579Y3767717D1*
X2832913Y3759261D1*
X2830933Y3751014D1*
X2827688Y3743178D1*
X2823744Y3736677D1*
X2823736Y3519219D1*
X2829902Y3521062D1*
X2838279Y3522388D1*
X2846760D1*
X2855138Y3521062D1*
X2863204Y3518441D1*
X2870761Y3514590D1*
X2877623Y3509605D1*
X2883621Y3503607D1*
X2888606Y3496746D1*
X2892456Y3489188D1*
X2895077Y3481122D1*
X2896404Y3472745D1*
Y3464263D1*
X2895077Y3455886D1*
X2892456Y3447819D1*
X2888606Y3440262D1*
X2886736Y3437464D1*
X2886771Y3293859D1*
X2914684Y3266008D1*
X2991440D1*
X2998642Y3271242D1*
X3006750Y3275373D1*
X3015404Y3278185D1*
X3024391Y3279609D1*
X3033491D1*
X3042478Y3278185D1*
X3051132Y3275373D1*
X3059240Y3271242D1*
X3066601Y3265894D1*
X3073036Y3259460D1*
X3078384Y3252098D1*
X3082515Y3243990D1*
X3085327Y3235336D1*
X3086750Y3226349D1*
Y3217250D1*
X3085327Y3208262D1*
X3082515Y3199608D1*
X3078384Y3191500D1*
X3073036Y3184139D1*
X3068861Y3179793D1*
X3086929Y3179787D1*
Y3063811D1*
X2970953D1*
Y3177612D1*
X2892842Y3177727D1*
X2885991Y3178812D1*
X2879393Y3180956D1*
X2873212Y3184105D1*
X2867600Y3188183D1*
X2839068Y3216522D1*
X2823717Y3231873D1*
X2823779Y3207245D1*
X2943065Y3087766D1*
X2947143Y3082154D1*
X2950292Y3075973D1*
X2952436Y3069375D1*
X2953521Y3062524D1*
X2953658Y3022310D1*
X2953701Y2615513D1*
X3081365Y2487909D1*
X3087716D1*
X3087681Y2499720D1*
X3199721D1*
Y2478369D1*
X3204089Y2483313D1*
X3210773Y2489022D1*
X3218268Y2493615D1*
X3226390Y2496979D1*
X3234937Y2499031D1*
X3243701Y2499720D1*
X3252464Y2499031D1*
X3257589Y2497944D1*
X3255681Y2502982D1*
X3253701Y2511230D1*
X3253035Y2519685D1*
X3253701Y2528141D1*
X3255681Y2536388D1*
X3258927Y2544224D1*
X3263358Y2551456D1*
X3268867Y2557905D1*
X3275316Y2563413D1*
X3282548Y2567845D1*
X3290384Y2571091D1*
X3297769Y2572899D1*
X3372864Y2647790D1*
X3378476Y2651867D1*
X3384657Y2655017D1*
X3391254Y2657160D1*
X3398106Y2658246D1*
X3438320Y2658382D1*
X3495904Y2658425D1*
X3527546Y2690066D1*
X3522263Y2691945D1*
X3514431Y2695936D1*
X3507319Y2701103D1*
X3501103Y2707319D1*
X3495936Y2714431D1*
X3493615Y2718268D1*
X3489022Y2710773D1*
X3483313Y2704089D1*
X3476628Y2698380D1*
X3469133Y2693787D1*
X3461012Y2690423D1*
X3452464Y2688371D1*
X3443701Y2687681D1*
X3434937Y2688371D1*
X3426390Y2690423D1*
X3418268Y2693787D1*
X3410773Y2698380D1*
X3404089Y2704089D1*
X3398380Y2710773D1*
X3393708Y2718440D1*
X3389022Y2710773D1*
X3383313Y2704089D1*
X3376628Y2698380D1*
X3369133Y2693787D1*
X3361012Y2690423D1*
X3352464Y2688371D1*
X3343701Y2687681D1*
X3334937Y2688371D1*
X3326390Y2690423D1*
X3318268Y2693787D1*
X3310773Y2698380D1*
X3304089Y2704089D1*
X3298380Y2710773D1*
X3293708Y2718440D1*
X3289022Y2710773D1*
X3283313Y2704089D1*
X3276628Y2698380D1*
X3269133Y2693787D1*
X3261012Y2690423D1*
X3252464Y2688371D1*
X3243701Y2687681D1*
X3234937Y2688371D1*
X3226390Y2690423D1*
X3218268Y2693787D1*
X3210773Y2698380D1*
X3204089Y2704089D1*
X3198380Y2710773D1*
X3193708Y2718440D1*
X3189022Y2710773D1*
X3183313Y2704089D1*
X3176628Y2698380D1*
X3169133Y2693787D1*
X3161012Y2690423D1*
X3152464Y2688371D1*
X3143701Y2687681D1*
X3134937Y2688371D1*
X3126390Y2690423D1*
X3118268Y2693787D1*
X3110773Y2698380D1*
X3104089Y2704089D1*
X3098380Y2710773D1*
X3093787Y2718268D1*
X3090423Y2726390D1*
X3088371Y2734937D1*
X3087681Y2743701D1*
X3088371Y2752464D1*
X3090423Y2761012D1*
X3093787Y2769133D1*
X3098380Y2776628D1*
X3099497Y2778045D1*
X3099628Y2912322D1*
X3100714Y2919173D1*
X3102863Y2925783D1*
X3104025Y2931759D1*
Y3004711D1*
X3100661Y3011393D1*
X3098164Y3019078D1*
X3096900Y3027058D1*
Y3035138D1*
X3098164Y3043119D1*
X3100661Y3050804D1*
X3104329Y3058003D1*
X3109079Y3064540D1*
X3114792Y3070253D1*
X3121329Y3075003D1*
X3128528Y3078671D1*
X3136213Y3081168D1*
X3144194Y3082432D1*
X3152274D1*
X3160254Y3081168D1*
X3167939Y3078671D1*
X3175138Y3075003D1*
X3181675Y3070253D1*
X3187389Y3064540D1*
X3192138Y3058003D1*
X3195806Y3050804D1*
X3198303Y3043119D1*
X3199491Y3035781D1*
X3199449Y3217362D1*
X3135633Y3281178D1*
X3128528Y3283526D1*
X3121329Y3287194D1*
X3114792Y3291944D1*
X3109079Y3297657D1*
X3104329Y3304194D1*
X3100661Y3311393D1*
X3098164Y3319078D1*
X3096900Y3327058D1*
Y3335138D1*
X3098164Y3343119D1*
X3100932Y3351392D1*
X3100930Y3408294D1*
X3097567Y3414986D1*
X3095070Y3422671D1*
X3093806Y3430652D1*
Y3438732D1*
X3095070Y3446712D1*
X3097567Y3454397D1*
X3101235Y3461596D1*
X3105984Y3468133D1*
X3111698Y3473847D1*
X3118235Y3478596D1*
X3123096Y3481186D1*
X3057474Y3481184D1*
X3050231Y3475949D1*
X3042123Y3471818D1*
X3033469Y3469006D1*
X3024481Y3467583D1*
X3015382D1*
X3006395Y3469006D1*
X2997741Y3471818D1*
X2989633Y3475949D1*
X2982271Y3481298D1*
X2975837Y3487732D1*
X2970489Y3495094D1*
X2966358Y3503201D1*
X2963546Y3511855D1*
X2962122Y3520843D1*
Y3529942D1*
X2963546Y3538929D1*
X2966358Y3547584D1*
X2970489Y3555691D1*
X2975837Y3563053D1*
X2980012Y3567398D1*
X2961944Y3567404D1*
Y3683380D1*
X3077920D1*
Y3669637D1*
X3100922Y3669601D1*
X3100930Y3708321D1*
X3097567Y3714986D1*
X3095070Y3722671D1*
X3093806Y3730652D1*
Y3738732D1*
X3095070Y3746712D1*
X3097567Y3754397D1*
X3101235Y3761596D1*
X3105984Y3768133D1*
X3111698Y3773847D1*
X3118235Y3778596D1*
X3125434Y3782264D1*
X3133119Y3784761D1*
X3141099Y3786025D1*
X3149179D1*
X3157160Y3784761D1*
X3164844Y3782264D1*
X3172044Y3778596D1*
X3178581Y3773847D1*
X3184294Y3768133D1*
X3189043Y3761596D1*
X3192712Y3754397D1*
X3195209Y3746712D1*
X3196473Y3738732D1*
Y3730652D1*
X3195209Y3722671D1*
X3192712Y3714986D1*
X3189344Y3708324D1*
X3189212Y3621924D1*
X3188126Y3615072D1*
X3185983Y3608474D1*
X3182833Y3602293D1*
X3178756Y3596681D1*
X3173850Y3591776D1*
X3168238Y3587698D1*
X3162057Y3584549D1*
X3155459Y3582405D1*
X3148608Y3581320D1*
X3108394Y3581184D1*
X3077928D1*
X3077920Y3569579D1*
X3194612Y3569465D1*
X3201476Y3568376D1*
X3211286Y3567831D1*
X3277007Y3567874D1*
X3408630Y3699304D1*
X3414242Y3703382D1*
X3420423Y3706531D1*
X3427021Y3708675D1*
X3433873Y3709760D1*
X3468094Y3709896D1*
X3468244Y3784305D1*
X3469329Y3791156D1*
X3471473Y3797754D1*
X3474622Y3803935D1*
X3478700Y3809547D1*
X3500975Y3832015D1*
X3478700Y3854487D1*
X3474622Y3860099D1*
X3471473Y3866280D1*
X3469329Y3872878D1*
X3468244Y3879730D1*
X3468108Y3919944D1*
X3468244Y4016990D1*
X3469329Y4023841D1*
X3471473Y4030439D1*
X3474622Y4036620D1*
X3478700Y4042232D1*
X3507039Y4070764D1*
X3542283Y4106009D1*
X3542269Y4190946D1*
X3689742D1*
Y4043474D1*
X3604804D1*
X3556525Y3995148D1*
X3556568Y3901467D1*
X3581870Y3876226D1*
X4138183D1*
X4145427Y3881460D1*
X4153535Y3885591D1*
X4162189Y3888403D1*
X4171176Y3889826D1*
X4180275D1*
X4189263Y3888403D1*
X4197917Y3885591D1*
X4206024Y3881460D1*
X4213386Y3876112D1*
X4219820Y3869677D1*
X4225169Y3862316D1*
X4229300Y3854208D1*
X4232112Y3845554D1*
X4233535Y3836567D1*
Y3827467D1*
X4232112Y3818480D1*
X4229300Y3809826D1*
X4225169Y3801718D1*
X4219820Y3794357D1*
X4215646Y3790011D1*
X4233714Y3790005D1*
Y3674029D1*
X4219899D1*
X4219798Y3625500D1*
X4218713Y3618648D1*
X4216569Y3612051D1*
X4213420Y3605869D1*
X4209342Y3600257D1*
X4204437Y3595352D1*
X4198825Y3591274D1*
X4192644Y3588125D1*
X4186046Y3585981D1*
X4179194Y3584896D1*
X4138980Y3584760D1*
X4041627D1*
X4034923Y3581396D1*
X4027238Y3578899D1*
X4019258Y3577635D1*
X4011178D1*
X4003197Y3578899D1*
X3995513Y3581396D1*
X3988313Y3585064D1*
X3981776Y3589814D1*
X3976063Y3595527D1*
X3971314Y3602064D1*
X3967645Y3609263D1*
X3965148Y3616948D1*
X3963884Y3624928D1*
Y3633009D1*
X3965148Y3640989D1*
X3967645Y3648674D1*
X3971314Y3655873D1*
X3976063Y3662410D1*
X3981776Y3668123D1*
X3988313Y3672873D1*
X3995513Y3676541D1*
X4003197Y3679038D1*
X4011178Y3680302D1*
X4019258D1*
X4027238Y3679038D1*
X4034923Y3676541D1*
X4041585Y3673174D1*
X4131518Y3673177D1*
X4117738Y3674029D1*
Y3787830D1*
X3581766Y3787765D1*
X3556525Y3762463D1*
Y3692094D1*
X3559889Y3685393D1*
X3562386Y3677708D1*
X3563650Y3669728D1*
Y3661648D1*
X3562386Y3653667D1*
X3559889Y3645982D1*
X3556221Y3638783D1*
X3551471Y3632246D1*
X3545758Y3626533D1*
X3540862Y3622880D1*
X3545176Y3619575D1*
X3550890Y3613861D1*
X3555639Y3607325D1*
X3559307Y3600125D1*
X3561637Y3593033D1*
X3840703Y3313779D1*
X3844781Y3308167D1*
X3847930Y3301986D1*
X3849135Y3298716D1*
X3849492Y3314173D1*
X3849628Y3342051D1*
X3850713Y3348903D1*
X3852857Y3355501D1*
X3856007Y3361682D1*
X3860084Y3367294D1*
X3888423Y3395826D1*
X3916171Y3423380D1*
X3921783Y3427458D1*
X3927964Y3430607D1*
X3934562Y3432751D1*
X3941413Y3433836D1*
X3981627Y3433973D1*
X4192445Y3433836D1*
X4199297Y3432751D1*
X4205894Y3430607D1*
X4212075Y3427458D1*
X4217688Y3423380D1*
X4246220Y3395041D1*
X4277616Y3363450D1*
X4278839Y3363517D1*
Y4278815D1*
X1850604Y4278839D1*
X1902317Y4226940D1*
X1906395Y4221327D1*
X1909544Y4215146D1*
X1911688Y4208549D1*
X1912773Y4201697D1*
X1912910Y4161483D1*
Y2453073D1*
X1916465Y2447971D1*
X1918787Y2444133D1*
X1923380Y2451628D1*
X1929089Y2458313D1*
X1935773Y2464022D1*
X1943268Y2468615D1*
X1951390Y2471979D1*
X1959937Y2474031D1*
X1968701Y2474720D1*
X1977464Y2474031D1*
X1986012Y2471979D1*
X1994133Y2468615D1*
X2001628Y2464022D1*
X2008313Y2458313D1*
X2014022Y2451628D1*
X2018694Y2443962D1*
X2023380Y2451628D1*
X2029089Y2458313D1*
X2035773Y2464022D1*
X2043268Y2468615D1*
X2051390Y2471979D1*
X2059937Y2474031D1*
X2068701Y2474720D1*
X2077464Y2474031D1*
X2086012Y2471979D1*
X2094133Y2468615D1*
X2101628Y2464022D1*
X2108313Y2458313D1*
X2114022Y2451628D1*
X2118694Y2443962D1*
X2123380Y2451628D1*
X2124497Y2453045D1*
X2124628Y2458193D1*
X2125714Y2465045D1*
X2127857Y2471642D1*
X2131007Y2477823D1*
X2135084Y2483436D1*
X2163423Y2511968D1*
X2169517Y2517869D1*
X2175129Y2521946D1*
X2181310Y2525096D1*
X2187908Y2527239D1*
X2194760Y2528324D1*
X2234974Y2528461D1*
X2401106Y2528324D1*
X2407958Y2527239D1*
X2414556Y2525096D1*
X2420737Y2521946D1*
X2426349Y2517869D1*
X2454881Y2489529D1*
X2482435Y2461782D1*
X2486513Y2456170D1*
X2489662Y2449989D1*
X2491806Y2443391D1*
X2492891Y2436539D1*
X2493028Y2396325D1*
Y1814535D1*
X2496979Y1808003D1*
X2500225Y1800167D1*
X2502205Y1791920D1*
X2502870Y1783465D1*
X2502205Y1775009D1*
X2500225Y1766762D1*
X2498807Y1762920D1*
X2622555Y1762909D1*
X2628975Y1768681D1*
X2623521Y1773521D1*
X2617010Y1781145D1*
X2611771Y1789694D1*
X2607934Y1798957D1*
X2605594Y1808706D1*
X2604807Y1818701D1*
X2605594Y1828696D1*
X2607934Y1838445D1*
X2611771Y1847708D1*
X2616041Y1854806D1*
X2604807Y1854807D1*
Y1982594D1*
X2624508D1*
X2624628Y2322169D1*
X2625714Y2329021D1*
X2627857Y2335619D1*
X2631007Y2341800D1*
X2635084Y2347412D1*
X2663423Y2375944D1*
X2720743Y2433264D1*
X2724049Y2441452D1*
X2728158Y2448157D1*
X2733265Y2454137D1*
X2739244Y2459244D1*
X2745949Y2463353D1*
X2753215Y2466362D1*
X2757379Y2467505D1*
X2754126Y2470755D1*
X2749523Y2472401D1*
X2742516Y2475971D1*
X2736154Y2480594D1*
X2730594Y2486154D1*
X2725971Y2492516D1*
X2722401Y2499523D1*
X2720793Y2504087D1*
X2545124Y2679950D1*
X2541046Y2685562D1*
X2537897Y2691743D1*
X2535753Y2698341D1*
X2534668Y2705193D1*
X2534531Y2745407D1*
X2534668Y2965673D1*
X2535753Y2972525D1*
X2537897Y2979123D1*
X2541046Y2985304D1*
X2545124Y2990916D1*
X2573463Y3019448D1*
X2581525Y3027317D1*
X2587137Y3031395D1*
X2593318Y3034544D1*
X2599916Y3036688D1*
X2606040Y3037795D1*
X2613402Y3043144D1*
X2621510Y3047275D1*
X2630164Y3050087D1*
X2639151Y3051510D1*
X2648250D1*
X2657238Y3050087D1*
X2665892Y3047275D1*
X2674000Y3043144D1*
X2681361Y3037795D1*
X2687795Y3031361D1*
X2693144Y3024000D1*
X2697275Y3015892D1*
X2700087Y3007238D1*
X2701510Y2998250D1*
Y2989151D1*
X2700087Y2980164D1*
X2697275Y2971510D1*
X2693144Y2963402D1*
X2687795Y2956040D1*
X2683621Y2951695D1*
X2701689Y2951689D1*
Y2937945D1*
X2785705Y2937909D1*
X2785713Y2951689D1*
X2803763D1*
X2799527Y2835712D2*
X2785713D1*
Y2849528D1*
X2708648Y2849493D1*
X2701689Y2841453D1*
Y2835713D1*
X2622923D1*
X2622992Y2726930D1*
X2719895Y2630027D1*
X2722401Y2637879D1*
X2725971Y2644885D1*
X2730594Y2651247D1*
X2736154Y2656808D1*
X2742516Y2661430D1*
X2749523Y2665000D1*
X2754087Y2666608D1*
X2799492Y2712073D1*
Y2835695D1*
X3199469Y2387681D2*
X3107175D1*
X3107244Y2073387D1*
X3132546Y2048146D1*
X3301740D1*
X3156094Y2193787D1*
X3148996Y2196128D1*
X3141796Y2199797D1*
X3135259Y2204546D1*
X3129546Y2210259D1*
X3124797Y2216796D1*
X3121128Y2223996D1*
X3118631Y2231680D1*
X3117367Y2239661D1*
Y2247741D1*
X3118631Y2255721D1*
X3121128Y2263406D1*
X3124797Y2270605D1*
X3129546Y2277142D1*
X3135259Y2282856D1*
X3141796Y2287605D1*
X3148996Y2291273D1*
X3156680Y2293770D1*
X3164661Y2295034D1*
X3172741D1*
X3180721Y2293770D1*
X3188406Y2291273D1*
X3195605Y2287605D1*
X3202142Y2282856D1*
X3207856Y2277142D1*
X3212605Y2270605D1*
X3216273Y2263406D1*
X3218603Y2256314D1*
X3375656Y2099327D1*
X3511343Y2099191D1*
X3518194Y2098105D1*
X3524792Y2095962D1*
X3530973Y2092812D1*
X3536585Y2088735D1*
X3565117Y2060396D1*
X3574480Y2051033D1*
X3574449Y2100432D1*
X3481098Y2193783D1*
X3473996Y2196128D1*
X3466796Y2199797D1*
X3460259Y2204546D1*
X3454546Y2210259D1*
X3449797Y2216796D1*
X3446128Y2223996D1*
X3443631Y2231680D1*
X3442367Y2239661D1*
Y2247741D1*
X3443631Y2255721D1*
X3446128Y2263406D1*
X3449797Y2270605D1*
X3454546Y2277142D1*
X3455350Y2278012D1*
X3449528Y2281014D1*
X3448173Y2278261D1*
X3445456Y2269901D1*
X3441465Y2262068D1*
X3436298Y2254957D1*
X3430083Y2248741D1*
X3422971Y2243574D1*
X3415139Y2239583D1*
X3406778Y2236867D1*
X3398096Y2235492D1*
X3389306D1*
X3380623Y2236867D1*
X3372263Y2239583D1*
X3364431Y2243574D1*
X3359356Y2247135D1*
X3291807Y2247266D1*
X3284955Y2248351D1*
X3278358Y2250495D1*
X3272177Y2253644D1*
X3266564Y2257722D1*
X3238032Y2286061D1*
X3210084Y2314202D1*
X3206007Y2319814D1*
X3202857Y2325995D1*
X3200713Y2332593D1*
X3199628Y2339445D1*
X3199492Y2379659D1*
Y2387661D1*
X3293694Y2418440D2*
X3289022Y2410773D1*
X3287905Y2409356D1*
X3287953Y2361182D1*
X3313648Y2335547D1*
X3359329D1*
X3364431Y2339103D1*
X3372263Y2343094D1*
X3379416Y2345470D1*
X3336777Y2388104D1*
X3330623Y2389229D1*
X3322263Y2391945D1*
X3314431Y2395936D1*
X3307319Y2401103D1*
X3301103Y2407319D1*
X3295936Y2414431D1*
X3293708Y2418440D1*
X3356694Y2498189D2*
X3365139Y2495456D1*
X3372971Y2491465D1*
X3380083Y2486298D1*
X3386298Y2480083D1*
X3391465Y2472971D1*
X3393787Y2469133D1*
X3398380Y2476628D1*
X3404089Y2483313D1*
X3410773Y2489022D1*
X3418268Y2493615D1*
X3426390Y2496979D1*
X3434937Y2499031D1*
X3436729Y2499243D1*
X3507466Y2569987D1*
X3419844Y2569922D1*
X3360342Y2510420D1*
X3358492Y2502982D1*
X3356656Y2498203D1*
X3559838Y2497310D2*
X3565139Y2495456D1*
X3572971Y2491465D1*
X3580083Y2486298D1*
X3586298Y2480083D1*
X3591465Y2472971D1*
X3593787Y2469133D1*
X3598380Y2476628D1*
X3604089Y2483313D1*
X3610773Y2489022D1*
X3618268Y2493615D1*
X3626390Y2496979D1*
X3634937Y2499031D1*
X3643701Y2499720D1*
X3652464Y2499031D1*
X3661012Y2496979D1*
X3669133Y2493615D1*
X3676628Y2489022D1*
X3683313Y2483313D1*
X3689022Y2476628D1*
X3693694Y2468962D1*
X3698380Y2476628D1*
X3704089Y2483313D1*
X3710773Y2489022D1*
X3718268Y2493615D1*
X3726390Y2496979D1*
X3734937Y2499031D1*
X3743701Y2499720D1*
X3752464Y2499031D1*
X3761012Y2496979D1*
X3769133Y2493615D1*
X3776628Y2489022D1*
X3778045Y2487905D1*
X3873070Y2487953D1*
X3899492Y2514436D1*
Y2592268D1*
X3896128Y2598996D1*
X3893631Y2606680D1*
X3892367Y2614661D1*
Y2622741D1*
X3893631Y2630721D1*
X3894262Y2632956D1*
X3876537Y2632914D1*
X3772806Y2529375D1*
X3767194Y2525298D1*
X3761012Y2522149D1*
X3754415Y2520005D1*
X3747563Y2518920D1*
X3707349Y2518783D1*
X3581261Y2518740D1*
X3559871Y2497350D1*
X3775385Y2697549D2*
X3769133Y2693787D1*
X3761012Y2690423D1*
X3752464Y2688371D1*
X3743701Y2687681D1*
X3734937Y2688371D1*
X3726390Y2690423D1*
X3718268Y2693787D1*
X3710773Y2698380D1*
X3704089Y2704089D1*
X3698380Y2710773D1*
X3693708Y2718440D1*
X3689022Y2710773D1*
X3683313Y2704089D1*
X3676628Y2698380D1*
X3669133Y2693787D1*
X3661012Y2690423D1*
X3652464Y2688371D1*
X3650673Y2688159D1*
X3569735Y2607215D1*
X3725826Y2607244D1*
X3795731Y2677149D1*
X3775817Y2697096D1*
X3593708Y2768962D2*
X3598380Y2776628D1*
X3604089Y2783313D1*
X3610773Y2789022D1*
X3612673Y2790291D1*
X3612681Y2799487D1*
X3587925Y2799492D1*
X3587910Y2778140D1*
X3591465Y2772971D1*
X3593694Y2768962D1*
X3493708D2*
X3498380Y2776628D1*
X3499497Y2778045D1*
X3499628Y2847169D1*
X3500714Y2854021D1*
X3502857Y2860619D1*
X3506007Y2866800D1*
X3510084Y2872412D1*
X3514989Y2877317D1*
X3520602Y2881395D1*
X3526783Y2884544D1*
X3533380Y2886688D1*
X3540232Y2887773D1*
X3580446Y2887910D1*
X3612706D1*
X3612681Y2899720D1*
X3624487D1*
X3624492Y2964308D1*
X3570050Y2910084D1*
X3564438Y2906007D1*
X3558257Y2902857D1*
X3551659Y2900713D1*
X3544807Y2899628D1*
X3504593Y2899492D1*
X3470108D1*
X3463406Y2896128D1*
X3455721Y2893631D1*
X3447741Y2892367D1*
X3439661D1*
X3431680Y2893631D1*
X3423996Y2896128D1*
X3416796Y2899797D1*
X3410259Y2904546D1*
X3404546Y2910259D1*
X3399797Y2916796D1*
X3396128Y2923996D1*
X3393631Y2931680D1*
X3392367Y2939661D1*
Y2947741D1*
X3393631Y2955721D1*
X3396128Y2963406D1*
X3399797Y2970605D1*
X3404546Y2977142D1*
X3410259Y2982856D1*
X3416796Y2987605D1*
X3423996Y2991273D1*
X3431680Y2993770D1*
X3439661Y2995034D1*
X3447741D1*
X3455721Y2993770D1*
X3463406Y2991273D1*
X3470068Y2987906D1*
X3523070Y2987953D1*
X3549492Y3014436D1*
Y3067293D1*
X3546128Y3073996D1*
X3543631Y3081680D1*
X3542367Y3089661D1*
Y3097741D1*
X3543631Y3105721D1*
X3546128Y3113406D1*
X3549797Y3120605D1*
X3554546Y3127142D1*
X3560259Y3132856D1*
X3566796Y3137605D1*
X3573996Y3141273D1*
X3581680Y3143770D1*
X3589661Y3145034D1*
X3597741D1*
X3605721Y3143770D1*
X3613406Y3141273D1*
X3620605Y3137605D1*
X3627142Y3132856D1*
X3632856Y3127142D1*
X3637605Y3120605D1*
X3641273Y3113406D1*
X3643603Y3106314D1*
X3702317Y3047412D1*
X3706395Y3041800D1*
X3709549Y3035606D1*
X3713434Y3035359D1*
X3720324Y3039581D1*
X3727789Y3042673D1*
X3735646Y3044559D1*
X3743701Y3045193D1*
X3751756Y3044559D1*
X3759613Y3042673D1*
X3762887Y3041465D1*
X3762835Y3266799D1*
X3499123Y3530511D1*
X3492030Y3532847D1*
X3484830Y3536516D1*
X3478293Y3541265D1*
X3472580Y3546978D1*
X3467831Y3553515D1*
X3464162Y3560715D1*
X3461666Y3568399D1*
X3460402Y3576380D1*
Y3584460D1*
X3461666Y3592441D1*
X3464162Y3600125D1*
X3467831Y3607325D1*
X3472580Y3613861D1*
X3478293Y3619575D1*
X3480712Y3621482D1*
X3455610Y3621436D1*
X3357793Y3523619D1*
X3380073Y3501152D1*
X3384151Y3495540D1*
X3387300Y3489359D1*
X3389444Y3482761D1*
X3390529Y3475910D1*
X3390665Y3435696D1*
Y3184614D1*
X3394617Y3178082D1*
X3397862Y3170246D1*
X3399842Y3161999D1*
X3400508Y3153543D1*
X3399842Y3145088D1*
X3397862Y3136841D1*
X3394617Y3129005D1*
X3390673Y3122503D1*
X3390709Y2859214D1*
X3450616Y2799306D1*
X3456778Y2798173D1*
X3465139Y2795456D1*
X3472971Y2791465D1*
X3480083Y2786298D1*
X3486298Y2780083D1*
X3491465Y2772971D1*
X3493694Y2768962D1*
X3293708D2*
X3298380Y2776628D1*
X3304089Y2783313D1*
X3310773Y2789022D1*
X3318268Y2793615D1*
X3326390Y2796979D1*
X3327564Y2797310D1*
X3312840Y2812234D1*
X3308762Y2817846D1*
X3305613Y2824027D1*
X3303469Y2830625D1*
X3302384Y2837476D1*
X3302248Y2877690D1*
Y3122456D1*
X3298297Y3129005D1*
X3295051Y3136841D1*
X3293071Y3145088D1*
X3292406Y3153543D1*
X3293071Y3161999D1*
X3295051Y3170246D1*
X3298297Y3178082D1*
X3302240Y3184583D1*
X3302205Y3454172D1*
X3276903Y3479413D1*
X3189445Y3479550D1*
X3182580Y3480638D1*
X3167280Y3481184D1*
X3172044Y3478596D1*
X3178581Y3473847D1*
X3184294Y3468133D1*
X3189043Y3461596D1*
X3192712Y3454397D1*
X3195209Y3446712D1*
X3196473Y3438732D1*
Y3430652D1*
X3195209Y3422671D1*
X3192712Y3414986D1*
X3189344Y3408324D1*
X3189348Y3362098D1*
X3192138Y3358003D1*
X3195806Y3350804D1*
X3198136Y3343712D1*
X3277317Y3264343D1*
X3281395Y3258730D1*
X3284544Y3252549D1*
X3286688Y3245952D1*
X3287773Y3239100D1*
X3287909Y3198886D1*
Y2778072D1*
X3291465Y2772971D1*
X3293694Y2768962D1*
X3193708D2*
X3198380Y2776628D1*
X3199497Y2778045D1*
X3199492Y3026217D1*
X3198303Y3019078D1*
X3195806Y3011393D1*
X3192439Y3004731D1*
X3192306Y2909917D1*
X3191221Y2903066D1*
X3189071Y2896456D1*
X3187909Y2890480D1*
Y2778127D1*
X3191465Y2772971D1*
X3193694Y2768962D1*
X3395034Y1514661D2*
X3393770Y1506680D1*
X3391273Y1498996D1*
X3387605Y1491796D1*
X3382856Y1485259D1*
X3377142Y1479546D1*
X3370605Y1474797D1*
X3363406Y1471128D1*
X3355721Y1468631D1*
X3347741Y1467367D1*
X3339661D1*
X3331680Y1468631D1*
X3323996Y1471128D1*
X3316796Y1474797D1*
X3310259Y1479546D1*
X3304546Y1485259D1*
X3299797Y1491796D1*
X3296128Y1498996D1*
X3293631Y1506680D1*
X3292367Y1514661D1*
Y1522741D1*
X3293631Y1530721D1*
X3296128Y1538406D1*
X3299797Y1545605D1*
X3304546Y1552142D1*
X3310259Y1557856D1*
X3316796Y1562605D1*
X3323996Y1566273D1*
X3331680Y1568770D1*
X3339661Y1570034D1*
X3347741D1*
X3355721Y1568770D1*
X3363406Y1566273D1*
X3370605Y1562605D1*
X3377142Y1557856D1*
X3382856Y1552142D1*
X3387605Y1545605D1*
X3391273Y1538406D1*
X3393770Y1530721D1*
X3395034Y1522741D1*
Y1514661D1*
X3662906Y1949720D2*
X3674721D1*
Y1905762D1*
X3679089Y1910675D1*
X3685773Y1916384D1*
X3693268Y1920977D1*
X3701390Y1924341D1*
X3709937Y1926393D1*
X3718701Y1927083D1*
X3727464Y1926393D1*
X3736012Y1924341D1*
X3744133Y1920977D1*
X3751628Y1916384D1*
X3758313Y1910675D1*
X3764022Y1903991D1*
X3768615Y1896495D1*
X3771979Y1888374D1*
X3774031Y1879826D1*
X3774720Y1871063D1*
X3774031Y1862300D1*
X3771979Y1853752D1*
X3768615Y1845631D1*
X3765501Y1840350D1*
X3770068Y1837906D1*
X3787659Y1837910D1*
X3787681Y1924720D1*
X3899720D1*
Y1812681D1*
X3887915D1*
X3887772Y1790219D1*
X3889431Y1789103D1*
X3897263Y1793094D1*
X3905623Y1795810D1*
X3914306Y1797186D1*
X3923096D1*
X3925673Y1796881D1*
X3924628Y1803618D1*
X3924492Y1843832D1*
Y1892312D1*
X3921128Y1898996D1*
X3918799Y1906087D1*
X3685084Y2139989D1*
X3681007Y2145602D1*
X3677857Y2151783D1*
X3675713Y2158380D1*
X3674628Y2165232D1*
X3674492Y2205446D1*
Y2212659D1*
X3662681Y2212681D1*
X3662605Y2291796D1*
X3657856Y2285259D1*
X3652142Y2279546D1*
X3645605Y2274797D1*
X3638406Y2271128D1*
X3630721Y2268631D1*
X3622741Y2267367D1*
X3614661D1*
X3606680Y2268631D1*
X3598996Y2271128D1*
X3592334Y2274496D1*
X3534983Y2274492D1*
X3539581Y2267078D1*
X3542673Y2259613D1*
X3543603Y2256314D1*
X3652317Y2147412D1*
X3656395Y2141800D1*
X3659544Y2135619D1*
X3661688Y2129021D1*
X3662773Y2122169D1*
X3662910Y2081955D1*
Y2045102D1*
X3666273Y2038406D1*
X3668770Y2030721D1*
X3670034Y2022741D1*
Y2014661D1*
X3668770Y2006680D1*
X3666273Y1998996D1*
X3662605Y1991796D1*
X3657856Y1985259D1*
X3654891Y1982087D1*
X3658091Y1976763D1*
X3660746Y1970354D1*
X3662365Y1963609D1*
X3662909Y1956693D1*
Y1949695D1*
X3562908Y1500919D2*
X3564229Y1509141D1*
X3566945Y1517501D1*
X3570936Y1525333D1*
X3574497Y1530407D1*
X3574449Y1559881D1*
X3570009Y1564321D1*
X3568770Y1556680D1*
X3566273Y1548996D1*
X3562906Y1542334D1*
X3562910Y1501131D1*
X2324721Y2364735D2*
Y2362681D1*
X2212681D1*
Y2384032D1*
X2208313Y2379089D1*
X2201628Y2373380D1*
X2194133Y2368787D1*
X2186012Y2365423D1*
X2177464Y2363371D1*
X2168701Y2362681D1*
X2159937Y2363371D1*
X2151390Y2365423D1*
X2143268Y2368787D1*
X2135773Y2373380D1*
X2129089Y2379089D1*
X2123380Y2385773D1*
X2118708Y2393440D1*
X2114022Y2385773D1*
X2108313Y2379089D1*
X2101628Y2373380D1*
X2094133Y2368787D1*
X2086012Y2365423D1*
X2084838Y2365092D1*
X2118373Y2331610D1*
X2286933Y2331474D1*
X2293785Y2330389D1*
X2300383Y2328245D1*
X2306564Y2325096D1*
X2312176Y2321018D1*
X2340708Y2292679D1*
X2341596Y2291791D1*
X2341575Y2347873D1*
X2324701Y2364747D1*
X1961729Y2363159D2*
X1955623Y2364229D1*
X1947263Y2366945D1*
X1939431Y2370936D1*
X1932319Y2376103D1*
X1926103Y2382319D1*
X1920936Y2389431D1*
X1918615Y2393268D1*
X1914022Y2385773D1*
X1908313Y2379089D1*
X1901628Y2373380D1*
X1894133Y2368787D1*
X1886012Y2365423D1*
X1877464Y2363371D1*
X1868701Y2362681D1*
X1859937Y2363371D1*
X1851390Y2365423D1*
X1843268Y2368787D1*
X1835773Y2373380D1*
X1829089Y2379089D1*
X1823380Y2385773D1*
X1818708Y2393440D1*
X1814022Y2385773D1*
X1808313Y2379089D1*
X1801628Y2373380D1*
X1794133Y2368787D1*
X1786012Y2365423D1*
X1777464Y2363371D1*
X1775673Y2363159D1*
X1584866Y2172345D1*
X1590139Y2170456D1*
X1597971Y2166465D1*
X1605083Y2161298D1*
X1611298Y2155083D1*
X1616465Y2147971D1*
X1618787Y2144133D1*
X1623380Y2151628D1*
X1629089Y2158313D1*
X1635773Y2164022D1*
X1643268Y2168615D1*
X1651390Y2171979D1*
X1659937Y2174031D1*
X1668701Y2174720D1*
X1677464Y2174031D1*
X1686012Y2171979D1*
X1694133Y2168615D1*
X1701628Y2164022D1*
X1708313Y2158313D1*
X1714022Y2151628D1*
X1718694Y2143962D1*
X1723380Y2151628D1*
X1729089Y2158313D1*
X1735773Y2164022D1*
X1743268Y2168615D1*
X1751390Y2171979D1*
X1759937Y2174031D1*
X1768701Y2174720D1*
X1777464Y2174031D1*
X1786012Y2171979D1*
X1794133Y2168615D1*
X1801628Y2164022D1*
X1808313Y2158313D1*
X1814022Y2151628D1*
X1818694Y2143962D1*
X1823380Y2151628D1*
X1829089Y2158313D1*
X1835773Y2164022D1*
X1843268Y2168615D1*
X1851390Y2171979D1*
X1859937Y2174031D1*
X1868701Y2174720D1*
X1877464Y2174031D1*
X1886012Y2171979D1*
X1894133Y2168615D1*
X1901628Y2164022D1*
X1908313Y2158313D1*
X1914022Y2151628D1*
X1918694Y2143962D1*
X1923380Y2151628D1*
X1929089Y2158313D1*
X1935773Y2164022D1*
X1943268Y2168615D1*
X1951390Y2171979D1*
X1959937Y2174031D1*
X1968701Y2174720D1*
X1977464Y2174031D1*
X1986012Y2171979D1*
X1994133Y2168615D1*
X2001628Y2164022D1*
X2008313Y2158313D1*
X2014022Y2151628D1*
X2018694Y2143962D1*
X2023380Y2151628D1*
X2029089Y2158313D1*
X2035773Y2164022D1*
X2043268Y2168615D1*
X2051390Y2171979D1*
X2059937Y2174031D1*
X2068701Y2174720D1*
X2077464Y2174031D1*
X2086012Y2171979D1*
X2094133Y2168615D1*
X2101628Y2164022D1*
X2108313Y2158313D1*
X2114022Y2151628D1*
X2118694Y2143962D1*
X2123380Y2151628D1*
X2129089Y2158313D1*
X2135773Y2164022D1*
X2143268Y2168615D1*
X2151390Y2171979D1*
X2159937Y2174031D1*
X2168701Y2174720D1*
X2177464Y2174031D1*
X2186012Y2171979D1*
X2194133Y2168615D1*
X2201628Y2164022D1*
X2208313Y2158313D1*
X2214022Y2151628D1*
X2218694Y2143962D1*
X2223380Y2151628D1*
X2229089Y2158313D1*
X2235773Y2164022D1*
X2243268Y2168615D1*
X2251390Y2171979D1*
X2259937Y2174031D1*
X2268701Y2174720D1*
X2277464Y2174031D1*
X2286012Y2171979D1*
X2290435Y2170320D1*
X2290394Y2217952D1*
X2265092Y2243193D1*
X2096531Y2243329D1*
X2089680Y2244414D1*
X2083082Y2246558D1*
X2076901Y2249707D1*
X2071289Y2253785D1*
X2042757Y2282124D1*
X1961789Y2363092D1*
X1818708Y2443962D2*
X1823380Y2451628D1*
X1824497Y2453045D1*
X1824449Y4179960D1*
X1796588Y4207760D1*
X1766266D1*
X1769190Y4201957D1*
X1771334Y4195360D1*
X1772419Y4188508D1*
X1772555Y4148294D1*
X1772419Y4000468D1*
X1772008Y3997008D1*
X1772569Y3993043D1*
X1775815Y3985207D1*
X1777795Y3976959D1*
X1778461Y3968504D1*
X1777795Y3960048D1*
X1775815Y3951801D1*
X1772569Y3943965D1*
X1768138Y3936733D1*
X1762629Y3930284D1*
X1756180Y3924776D1*
X1748948Y3920344D1*
X1741112Y3917098D1*
X1732865Y3915118D1*
X1724409Y3914453D1*
X1715954Y3915118D1*
X1707707Y3917098D1*
X1699871Y3920344D1*
X1692639Y3924776D1*
X1686189Y3930284D1*
X1680681Y3936733D1*
X1676249Y3943965D1*
X1673004Y3951801D1*
X1671024Y3960048D1*
X1670358Y3968504D1*
X1671024Y3976959D1*
X1673004Y3985207D1*
X1676249Y3993043D1*
X1680193Y3999544D1*
X1680337Y4007406D1*
X1681422Y4014257D1*
X1684138Y4022310D1*
Y4062679D1*
X1674897Y4059667D1*
X1665604Y4058195D1*
X1656196D1*
X1646904Y4059667D1*
X1637956Y4062574D1*
X1629573Y4066846D1*
X1621962Y4072376D1*
X1615309Y4079028D1*
X1610933Y4084912D1*
X1606492Y4079028D1*
X1605106Y4077529D1*
X1604973Y3982629D1*
X1603888Y3975777D1*
X1601744Y3969179D1*
X1598587Y3962987D1*
X1596693Y3960048D1*
X1595500Y3954594D1*
X1601408Y3956918D1*
X1609655Y3958898D1*
X1618110Y3959563D1*
X1626566Y3958898D1*
X1634813Y3956918D1*
X1642649Y3953672D1*
X1649881Y3949240D1*
X1656330Y3943732D1*
X1661839Y3937282D1*
X1666270Y3930051D1*
X1669516Y3922215D1*
X1671325Y3914829D1*
X1702317Y3883633D1*
X1706395Y3878020D1*
X1709544Y3871839D1*
X1711688Y3865242D1*
X1712773Y3858390D1*
X1712910Y3818176D1*
Y2453106D1*
X1716465Y2447971D1*
X1718787Y2444133D1*
X1723380Y2451628D1*
X1729089Y2458313D1*
X1735773Y2464022D1*
X1743268Y2468615D1*
X1751390Y2471979D1*
X1759937Y2474031D1*
X1768701Y2474720D1*
X1777464Y2474031D1*
X1786012Y2471979D1*
X1794133Y2468615D1*
X1801628Y2464022D1*
X1808313Y2458313D1*
X1814022Y2451628D1*
X1818694Y2443962D1*
X1618708D2*
X1623380Y2451628D1*
X1624497Y2453045D1*
X1624449Y3836652D1*
X1608844Y3852257D1*
X1601408Y3854106D1*
X1593572Y3857352D1*
X1586340Y3861783D1*
X1579890Y3867292D1*
X1574382Y3873741D1*
X1569950Y3880973D1*
X1566705Y3888809D1*
X1564725Y3897056D1*
X1564059Y3905512D1*
X1564725Y3913967D1*
X1565917Y3919422D1*
X1560010Y3917098D1*
X1551763Y3915118D1*
X1543307Y3914453D1*
X1534852Y3915118D1*
X1526604Y3917098D1*
X1518768Y3920344D1*
X1511537Y3924776D1*
X1505099Y3930273D1*
X1505152Y3010394D1*
X1602317Y2913035D1*
X1606395Y2907423D1*
X1609544Y2901242D1*
X1611688Y2894644D1*
X1612773Y2887793D1*
X1612910Y2847579D1*
Y2453104D1*
X1616465Y2447971D1*
X1618694Y2443962D1*
X1552564Y2065092D2*
X1547263Y2066945D1*
X1539431Y2070936D1*
X1532319Y2076103D1*
X1526103Y2082319D1*
X1520936Y2089431D1*
X1516945Y2097263D1*
X1515092Y2102564D1*
X1500902Y2088320D1*
Y2004746D1*
X1502857Y2010619D1*
X1506007Y2016800D1*
X1510084Y2022412D1*
X1538423Y2050944D1*
X1552557Y2065077D1*
X2712926Y1982594D2*
X2723476D1*
X2723508Y2268593D1*
X2718587Y2268586D1*
Y2306085D1*
X2712910Y2300328D1*
Y1982574D1*
X2732398Y1713688D2*
X2730829Y1703785D1*
X2727731Y1694250D1*
X2723179Y1685316D1*
X2717286Y1677205D1*
X2712916Y1672630D1*
X2712953Y1663938D1*
X2752317Y1624381D1*
X2756395Y1618768D1*
X2759544Y1612587D1*
X2761688Y1605990D1*
X2762773Y1599138D1*
X2762909Y1558924D1*
Y1501689D1*
X2774694D1*
X2774646Y1737637D1*
X2749344Y1762878D1*
X2714859D1*
X2720392Y1756257D1*
X2725630Y1747708D1*
X2729467Y1738445D1*
X2731808Y1728696D1*
X2732594Y1718701D1*
X2732398Y1713688D1*
X3970288Y2274619D2*
X3963406Y2271128D1*
X3955721Y2268631D1*
X3947741Y2267367D1*
X3939661D1*
X3931680Y2268631D1*
X3923996Y2271128D1*
X3916796Y2274797D1*
X3910259Y2279546D1*
X3904546Y2285259D1*
X3899797Y2291796D1*
X3896128Y2298996D1*
X3893631Y2306680D1*
X3892367Y2314661D1*
Y2322741D1*
X3893631Y2330721D1*
X3894485Y2333746D1*
X3886728Y2333744D1*
Y2302201D1*
X3891465Y2295609D1*
X3895456Y2287776D1*
X3898173Y2279416D1*
X3899548Y2270734D1*
Y2261943D1*
X3898173Y2253261D1*
X3895456Y2244901D1*
X3891465Y2237068D1*
X3887905Y2231994D1*
X3887953Y2203308D1*
X3913255Y2178067D1*
X3924486D1*
X3924492Y2192314D1*
X3921128Y2198996D1*
X3918631Y2206680D1*
X3917367Y2214661D1*
Y2222741D1*
X3918631Y2230721D1*
X3921128Y2238406D1*
X3924797Y2245605D1*
X3929546Y2252142D1*
X3935259Y2257856D1*
X3941796Y2262605D1*
X3948996Y2266273D1*
X3956680Y2268770D1*
X3964661Y2270034D1*
X3971242Y2270093D1*
X3970311Y2274635D1*
X4095034Y2989661D2*
X4093770Y2981680D1*
X4091273Y2973996D1*
X4087605Y2966796D1*
X4082856Y2960259D1*
X4077142Y2954546D1*
X4070605Y2949797D1*
X4063406Y2946128D1*
X4055721Y2943631D1*
X4047741Y2942367D1*
X4039661D1*
X4031680Y2943631D1*
X4023996Y2946128D1*
X4016796Y2949797D1*
X4010259Y2954546D1*
X4004546Y2960259D1*
X4000893Y2965155D1*
X4000765Y2839051D1*
X3999680Y2832199D1*
X3997536Y2825602D1*
X3994387Y2819421D1*
X3990310Y2813808D1*
X3976814Y2800120D1*
X4031163Y2800114D1*
X4026727Y2804089D1*
X4021018Y2810773D1*
X4016425Y2818268D1*
X4013061Y2826390D1*
X4011009Y2834937D1*
X4010319Y2843701D1*
X4011009Y2852464D1*
X4013061Y2861012D1*
X4016425Y2869133D1*
X4021018Y2876628D1*
X4026727Y2883313D1*
X4033411Y2889022D1*
X4040906Y2893615D1*
X4049028Y2896979D1*
X4057575Y2899031D1*
X4066339Y2899720D1*
X4075102Y2899031D1*
X4083650Y2896979D1*
X4091771Y2893615D1*
X4099266Y2889022D1*
X4105950Y2883313D1*
X4111659Y2876628D1*
X4116252Y2869133D1*
X4119616Y2861012D1*
X4121669Y2852464D1*
X4122358Y2843701D1*
X4121669Y2834937D1*
X4119616Y2826390D1*
X4116252Y2818268D1*
X4111659Y2810773D1*
X4105950Y2804089D1*
X4099266Y2798380D1*
X4091771Y2793787D1*
X4083650Y2790423D1*
X4076871Y2788723D1*
X4130406Y2735264D1*
X4134911Y2729989D1*
X4138536Y2724074D1*
X4141191Y2717665D1*
X4142810Y2710920D1*
X4143354Y2703990D1*
Y2576364D1*
X4148589Y2569136D1*
X4152720Y2561028D1*
X4154832Y2554856D1*
X4168139Y2567989D1*
X4173751Y2572067D1*
X4179932Y2575216D1*
X4186530Y2577360D1*
X4193382Y2578445D1*
X4196864Y2578581D1*
X4199782Y2580304D1*
X4199739Y3316481D1*
X4170604Y3345555D1*
X4063992D1*
X4066076Y3337024D1*
X4066710Y3328969D1*
X4066076Y3320913D1*
X4064190Y3313057D1*
X4061098Y3305592D1*
X4056876Y3298702D1*
X4051628Y3292558D1*
X4045484Y3287310D1*
X4038595Y3283089D1*
X4031130Y3279997D1*
X4027831Y3279066D1*
X4000902Y3252071D1*
Y3022304D1*
X4004546Y3027142D1*
X4010259Y3032856D1*
X4016796Y3037605D1*
X4023996Y3041273D1*
X4031680Y3043770D1*
X4039661Y3045034D1*
X4047741D1*
X4055721Y3043770D1*
X4063406Y3041273D1*
X4070605Y3037605D1*
X4077142Y3032856D1*
X4082856Y3027142D1*
X4087605Y3020605D1*
X4091273Y3013406D1*
X4093770Y3005721D1*
X4095034Y2997741D1*
Y2989661D1*
X3871868Y1399720D2*
X3974721D1*
Y1287681D1*
X3862681D1*
Y1399720D1*
X3871868D1*
X3495034Y3239661D2*
X3493770Y3231680D1*
X3491273Y3223996D1*
X3487605Y3216796D1*
X3482856Y3210259D1*
X3477142Y3204546D1*
X3470605Y3199797D1*
X3463406Y3196128D1*
X3455721Y3193631D1*
X3447741Y3192367D1*
X3439661D1*
X3431680Y3193631D1*
X3423996Y3196128D1*
X3416796Y3199797D1*
X3410259Y3204546D1*
X3404546Y3210259D1*
X3399797Y3216796D1*
X3396128Y3223996D1*
X3393631Y3231680D1*
X3392367Y3239661D1*
Y3247741D1*
X3393631Y3255721D1*
X3396128Y3263406D1*
X3399797Y3270605D1*
X3404546Y3277142D1*
X3410259Y3282856D1*
X3416796Y3287605D1*
X3423996Y3291273D1*
X3431680Y3293770D1*
X3439661Y3295034D1*
X3447741D1*
X3455721Y3293770D1*
X3463406Y3291273D1*
X3470605Y3287605D1*
X3477142Y3282856D1*
X3482856Y3277142D1*
X3487605Y3270605D1*
X3491273Y3263406D1*
X3493770Y3255721D1*
X3495034Y3247741D1*
Y3239661D1*
X3912472Y3045784D2*
X3905721Y3043631D1*
X3897741Y3042367D1*
X3889661D1*
X3881680Y3043631D1*
X3873996Y3046128D1*
X3866796Y3049797D1*
X3860259Y3054546D1*
X3854546Y3060259D1*
X3851297Y3064551D1*
X3851295Y2806553D1*
X3857461Y2808463D1*
X3860761Y2809120D1*
X3912484Y2860892D1*
Y3045732D1*
X4121142Y2380849D2*
X4067818D1*
X4067831Y2314545D1*
X4071782Y2308003D1*
X4075028Y2300167D1*
X4077008Y2291920D1*
X4077398Y2289918D1*
X4121146Y2333727D1*
Y2380843D1*
X3863068Y3576380D2*
X3861804Y3568399D1*
X3859307Y3560715D1*
X3855639Y3553515D1*
X3850890Y3546978D1*
X3845176Y3541265D1*
X3838639Y3536516D1*
X3831440Y3532847D1*
X3823756Y3530351D1*
X3815775Y3529087D1*
X3807695D1*
X3799714Y3530351D1*
X3792030Y3532847D1*
X3784830Y3536516D1*
X3778293Y3541265D1*
X3772580Y3546978D1*
X3767831Y3553515D1*
X3764162Y3560715D1*
X3761666Y3568399D1*
X3760402Y3576380D1*
Y3584460D1*
X3761666Y3592441D1*
X3764162Y3600125D1*
X3767699Y3607090D1*
X3767929Y3639606D1*
X3764744Y3645982D1*
X3762247Y3653667D1*
X3760983Y3661648D1*
Y3669728D1*
X3762247Y3677708D1*
X3764744Y3685393D1*
X3768412Y3692592D1*
X3773161Y3699129D1*
X3778875Y3704843D1*
X3785412Y3709592D1*
X3792611Y3713260D1*
X3800296Y3715757D1*
X3808276Y3717021D1*
X3816356D1*
X3824337Y3715757D1*
X3832021Y3713260D1*
X3839221Y3709592D1*
X3845758Y3704843D1*
X3851471Y3699129D1*
X3856221Y3692592D1*
X3859889Y3685393D1*
X3862386Y3677708D1*
X3863650Y3669728D1*
Y3661648D1*
X3862386Y3653667D1*
X3859889Y3645982D1*
X3856352Y3639017D1*
X3856123Y3606502D1*
X3859307Y3600125D1*
X3861804Y3592441D1*
X3863068Y3584460D1*
Y3576380D1*
X975061Y4183795D2*
X1071542D1*
Y4168473D1*
X1076344Y4172345D1*
X1084366Y4177260D1*
X1093058Y4180861D1*
X1102206Y4183057D1*
X1111585Y4183795D1*
X1120965Y4183057D1*
X1130113Y4180861D1*
X1138805Y4177260D1*
X1146827Y4172345D1*
X1153981Y4166234D1*
X1160091Y4159080D1*
X1161552Y4156894D1*
X1165994Y4162777D1*
X1172647Y4169430D1*
X1180258Y4174960D1*
X1188641Y4179231D1*
X1197589Y4182139D1*
X1206881Y4183610D1*
X1216289D1*
X1225582Y4182139D1*
X1234530Y4179231D1*
X1242913Y4174960D1*
X1250524Y4169430D1*
X1253643Y4166546D1*
X1294858Y4207772D1*
X971933Y4207760D1*
X973818Y4201594D1*
X975144Y4193217D1*
Y4184736D1*
X975033Y4183797D1*
X1161552Y4090783D2*
X1157177Y4084900D1*
X1155791Y4083401D1*
X1155794Y3596018D1*
X1158396Y3591468D1*
X1161642Y3583632D1*
X1163622Y3575385D1*
X1164287Y3566929D1*
X1163622Y3558474D1*
X1161642Y3550226D1*
X1158396Y3542390D1*
X1153965Y3535159D1*
X1148456Y3528709D1*
X1142007Y3523201D1*
X1134775Y3518769D1*
X1126939Y3515523D1*
X1118692Y3513543D1*
X1110236Y3512878D1*
X1101781Y3513543D1*
X1093533Y3515523D1*
X1085697Y3518769D1*
X1079637Y3522418D1*
X1079642Y3357791D1*
X1085807Y3359644D1*
X1094184Y3360971D1*
X1102666D1*
X1111043Y3359644D1*
X1119110Y3357023D1*
X1126667Y3353173D1*
X1133529Y3348187D1*
X1139526Y3342190D1*
X1144511Y3335328D1*
X1148362Y3327771D1*
X1150983Y3319705D1*
X1152310Y3311327D1*
Y3302846D1*
X1150983Y3294469D1*
X1148362Y3286402D1*
X1144511Y3278845D1*
X1142642Y3276047D1*
X1142634Y3031101D1*
X1146585Y3024539D1*
X1149831Y3016703D1*
X1151811Y3008455D1*
X1152476Y3000000D1*
X1151811Y2991545D1*
X1149831Y2983297D1*
X1146585Y2975461D1*
X1142154Y2968230D1*
X1136645Y2961780D1*
X1130196Y2956272D1*
X1122964Y2951840D1*
X1115128Y2948594D1*
X1106881Y2946614D1*
X1098425Y2945949D1*
X1089970Y2946614D1*
X1081722Y2948594D1*
X1079654Y2949357D1*
X1079642Y2475973D1*
X1083593Y2469421D1*
X1086839Y2461585D1*
X1088819Y2453337D1*
X1089484Y2444882D1*
X1088819Y2436426D1*
X1086839Y2428179D1*
X1086076Y2426111D1*
X1088030Y2426141D1*
X1113272Y2451444D1*
X1113408Y2861736D1*
X1114493Y2868588D1*
X1116637Y2875186D1*
X1119786Y2881367D1*
X1123864Y2886979D1*
X1152203Y2915511D1*
X1239256Y3002625D1*
Y4070646D1*
X1230113Y4066816D1*
X1220965Y4064620D1*
X1211585Y4063882D1*
X1202206Y4064620D1*
X1193058Y4066816D1*
X1184366Y4070417D1*
X1176344Y4075333D1*
X1169190Y4081443D1*
X1163079Y4088597D1*
X1161618Y4090783D1*
X1516659Y4058010D2*
X1505104D1*
X1505109Y4006762D1*
X1511537Y4012232D1*
X1516700Y4015506D1*
X1516692Y4058045D1*
X3492664Y4111425D2*
X3490854Y4099997D1*
X3487278Y4088992D1*
X3482025Y4078683D1*
X3475224Y4069322D1*
X3467043Y4061141D1*
X3457682Y4054340D1*
X3447372Y4049087D1*
X3436368Y4045511D1*
X3424940Y4043701D1*
X3413370D1*
X3401941Y4045511D1*
X3390937Y4049087D1*
X3380628Y4054340D1*
X3371267Y4061141D1*
X3363085Y4069322D1*
X3356284Y4078683D1*
X3351031Y4088992D1*
X3347456Y4099997D1*
X3345646Y4111425D1*
Y4122995D1*
X3347456Y4134423D1*
X3351031Y4145428D1*
X3356284Y4155737D1*
X3363085Y4165098D1*
X3371267Y4173279D1*
X3380628Y4180080D1*
X3390937Y4185333D1*
X3401941Y4188909D1*
X3413370Y4190719D1*
X3424940D1*
X3436368Y4188909D1*
X3447372Y4185333D1*
X3457682Y4180080D1*
X3467043Y4173279D1*
X3475224Y4165098D1*
X3482025Y4155737D1*
X3487278Y4145428D1*
X3490854Y4134423D1*
X3492664Y4122995D1*
Y4111425D1*
X2118294Y4177665D2*
X2229021D1*
Y4162343D1*
X2233823Y4166215D1*
X2241845Y4171130D1*
X2250537Y4174731D1*
X2259685Y4176927D1*
X2269064Y4177665D1*
X2278444Y4176927D1*
X2287592Y4174731D1*
X2296284Y4171130D1*
X2304306Y4166215D1*
X2311460Y4160104D1*
X2317570Y4152950D1*
X2319031Y4150764D1*
X2323473Y4156647D1*
X2330126Y4163300D1*
X2337737Y4168830D1*
X2346120Y4173101D1*
X2355068Y4176009D1*
X2364360Y4177481D1*
X2373768D1*
X2383061Y4176009D1*
X2392009Y4173101D1*
X2400392Y4168830D1*
X2408003Y4163300D1*
X2414656Y4156647D1*
X2419031Y4150764D1*
X2423473Y4156647D1*
X2430126Y4163300D1*
X2437737Y4168830D1*
X2446120Y4173101D1*
X2455068Y4176009D1*
X2464360Y4177481D1*
X2473768D1*
X2483061Y4176009D1*
X2492009Y4173101D1*
X2500392Y4168830D1*
X2508003Y4163300D1*
X2514656Y4156647D1*
X2519031Y4150764D1*
X2523473Y4156647D1*
X2530126Y4163300D1*
X2537737Y4168830D1*
X2546120Y4173101D1*
X2555068Y4176009D1*
X2564360Y4177481D1*
X2573768D1*
X2583061Y4176009D1*
X2592009Y4173101D1*
X2600392Y4168830D1*
X2608003Y4163300D1*
X2614656Y4156647D1*
X2619031Y4150764D1*
X2623473Y4156647D1*
X2630126Y4163300D1*
X2637737Y4168830D1*
X2646120Y4173101D1*
X2655068Y4176009D1*
X2664360Y4177481D1*
X2673768D1*
X2683061Y4176009D1*
X2692009Y4173101D1*
X2700392Y4168830D1*
X2708003Y4163300D1*
X2714656Y4156647D1*
X2720186Y4149036D1*
X2724457Y4140653D1*
X2727364Y4131705D1*
X2728836Y4122413D1*
Y4113005D1*
X2727364Y4103712D1*
X2724457Y4094764D1*
X2720186Y4086381D1*
X2714656Y4078770D1*
X2708260Y4072354D1*
X2708266Y3998913D1*
X2722046Y3998888D1*
Y3882912D1*
X2703996D1*
X2708152Y3878561D1*
X2713501Y3871199D1*
X2717632Y3863091D1*
X2720444Y3854437D1*
X2721867Y3845450D1*
Y3836351D1*
X2720444Y3827363D1*
X2717632Y3818709D1*
X2713501Y3810602D1*
X2708152Y3803240D1*
X2701718Y3796806D1*
X2694356Y3791457D1*
X2686249Y3787326D1*
X2677595Y3784514D1*
X2668607Y3783091D1*
X2659508D1*
X2650521Y3784514D1*
X2641867Y3787326D1*
X2633759Y3791457D1*
X2626397Y3796806D1*
X2619963Y3803240D1*
X2614615Y3810602D1*
X2610484Y3818709D1*
X2607672Y3827363D1*
X2606248Y3836351D1*
Y3845450D1*
X2607672Y3854437D1*
X2610484Y3863091D1*
X2614615Y3871199D1*
X2619963Y3878561D1*
X2624138Y3882906D1*
X2606070Y3882912D1*
Y3950482D1*
X2603278Y3943965D1*
X2598846Y3936733D1*
X2593338Y3930284D1*
X2586889Y3924776D1*
X2579657Y3920344D1*
X2571821Y3917098D1*
X2563574Y3915118D1*
X2555118Y3914453D1*
X2546663Y3915118D1*
X2538415Y3917098D1*
X2530579Y3920344D1*
X2523348Y3924776D1*
X2516898Y3930284D1*
X2511390Y3936733D1*
X2506958Y3943965D1*
X2503712Y3951801D1*
X2501732Y3960048D1*
X2501067Y3968504D1*
X2501732Y3976959D1*
X2503712Y3985207D1*
X2506958Y3993043D1*
X2510902Y3999544D1*
X2510909Y4074757D1*
X2504306Y4069203D1*
X2496284Y4064287D1*
X2487592Y4060686D1*
X2478444Y4058490D1*
X2469064Y4057752D1*
X2459685Y4058490D1*
X2450537Y4060686D1*
X2441845Y4064287D1*
X2433823Y4069203D1*
X2426669Y4075313D1*
X2420558Y4082467D1*
X2419097Y4084654D1*
X2414656Y4078770D1*
X2408003Y4072117D1*
X2400392Y4066587D1*
X2392009Y4062316D1*
X2383061Y4059409D1*
X2373768Y4057937D1*
X2364360D1*
X2355068Y4059409D1*
X2346120Y4062316D1*
X2337737Y4066587D1*
X2330126Y4072117D1*
X2323473Y4078770D1*
X2319097Y4084654D1*
X2314656Y4078770D1*
X2308003Y4072117D1*
X2300392Y4066587D1*
X2292009Y4062316D1*
X2283061Y4059409D1*
X2273768Y4057937D1*
X2264360D1*
X2255068Y4059409D1*
X2246120Y4062316D1*
X2237737Y4066587D1*
X2230126Y4072117D1*
X2229032Y4073128D1*
X2229021Y4057752D1*
X2109108D1*
Y4177665D1*
X2118294D1*
X2619031Y4084654D2*
X2614656Y4078770D1*
X2608003Y4072117D1*
X2600392Y4066587D1*
X2599317Y4065985D1*
X2599327Y3999591D1*
X2603278Y3993043D1*
X2606071Y3986435D1*
X2606070Y3998888D1*
X2619813D1*
X2619849Y4083468D1*
X1216464Y1600451D2*
X1332179D1*
Y1543072D1*
X1447936Y1427301D1*
X1447874Y1588030D1*
X1277407Y1758690D1*
X1273330Y1764303D1*
X1270180Y1770484D1*
X1268036Y1777081D1*
X1266951Y1783933D1*
X1266815Y1824147D1*
Y1874421D1*
X1262864Y1880973D1*
X1259618Y1888809D1*
X1257638Y1897056D1*
X1256972Y1905512D1*
X1257638Y1913967D1*
X1259618Y1922215D1*
X1260461Y1924501D1*
X1242677Y1924449D1*
X1216430Y1898142D1*
Y1600482D1*
X704415Y4134987D2*
X703390Y4126328D1*
X701689Y4117775D1*
X699322Y4109382D1*
X696304Y4101201D1*
X692653Y4093282D1*
X688392Y4085674D1*
X683547Y4078423D1*
X678149Y4071575D1*
X672230Y4065172D1*
X665826Y4059253D1*
X658978Y4053854D1*
X651728Y4049010D1*
X644119Y4044749D1*
X636200Y4041098D1*
X628019Y4038080D1*
X619626Y4035713D1*
X611074Y4034012D1*
X602414Y4032987D1*
X593701Y4032644D1*
X584987Y4032987D1*
X576328Y4034012D1*
X567775Y4035713D1*
X559382Y4038080D1*
X551201Y4041098D1*
X543282Y4044749D1*
X535674Y4049010D1*
X528423Y4053854D1*
X521575Y4059253D1*
X515172Y4065172D1*
X509253Y4071575D1*
X503854Y4078423D1*
X499010Y4085674D1*
X494749Y4093282D1*
X491098Y4101201D1*
X488080Y4109382D1*
X485713Y4117775D1*
X484012Y4126328D1*
X482987Y4134987D1*
X482644Y4143701D1*
X482987Y4152414D1*
X484012Y4161074D1*
X485713Y4169626D1*
X488080Y4178019D1*
X491098Y4186200D1*
X494749Y4194119D1*
X499010Y4201728D1*
X503854Y4208978D1*
X509253Y4215826D1*
X515172Y4222230D1*
X521575Y4228149D1*
X528423Y4233547D1*
X535674Y4238392D1*
X543282Y4242653D1*
X551201Y4246304D1*
X559382Y4249322D1*
X567775Y4251689D1*
X576328Y4253390D1*
X584987Y4254415D1*
X593701Y4254757D1*
X602414Y4254415D1*
X611074Y4253390D1*
X619626Y4251689D1*
X628019Y4249322D1*
X636200Y4246304D1*
X644119Y4242653D1*
X651728Y4238392D1*
X658978Y4233547D1*
X665826Y4228149D1*
X672230Y4222230D1*
X678149Y4215826D1*
X683547Y4208978D1*
X688392Y4201728D1*
X692653Y4194119D1*
X696304Y4186200D1*
X699322Y4178019D1*
X701689Y4169626D1*
X703390Y4161074D1*
X704415Y4152414D1*
X704757Y4143701D1*
X704415Y4134987D1*
X4254415D2*
X4253390Y4126328D1*
X4251689Y4117775D1*
X4249322Y4109382D1*
X4246304Y4101201D1*
X4242653Y4093282D1*
X4238392Y4085674D1*
X4233547Y4078423D1*
X4228149Y4071575D1*
X4222230Y4065172D1*
X4215826Y4059253D1*
X4208978Y4053854D1*
X4201728Y4049010D1*
X4194119Y4044749D1*
X4186200Y4041098D1*
X4178019Y4038080D1*
X4169626Y4035713D1*
X4161074Y4034012D1*
X4152414Y4032987D1*
X4143701Y4032644D1*
X4134987Y4032987D1*
X4126328Y4034012D1*
X4117775Y4035713D1*
X4109382Y4038080D1*
X4101201Y4041098D1*
X4093282Y4044749D1*
X4085674Y4049010D1*
X4078423Y4053854D1*
X4071575Y4059253D1*
X4065172Y4065172D1*
X4059253Y4071575D1*
X4053854Y4078423D1*
X4049010Y4085674D1*
X4044749Y4093282D1*
X4041098Y4101201D1*
X4038080Y4109382D1*
X4035713Y4117775D1*
X4034012Y4126328D1*
X4032987Y4134987D1*
X4032644Y4143701D1*
X4032987Y4152414D1*
X4034012Y4161074D1*
X4035713Y4169626D1*
X4038080Y4178019D1*
X4041098Y4186200D1*
X4044749Y4194119D1*
X4049010Y4201728D1*
X4053854Y4208978D1*
X4059253Y4215826D1*
X4065172Y4222230D1*
X4071575Y4228149D1*
X4078423Y4233547D1*
X4085674Y4238392D1*
X4093282Y4242653D1*
X4101201Y4246304D1*
X4109382Y4249322D1*
X4117775Y4251689D1*
X4126328Y4253390D1*
X4134987Y4254415D1*
X4143701Y4254757D1*
X4152414Y4254415D1*
X4161074Y4253390D1*
X4169626Y4251689D1*
X4178019Y4249322D1*
X4186200Y4246304D1*
X4194119Y4242653D1*
X4201728Y4238392D1*
X4208978Y4233547D1*
X4215826Y4228149D1*
X4222230Y4222230D1*
X4228149Y4215826D1*
X4233547Y4208978D1*
X4238392Y4201728D1*
X4242653Y4194119D1*
X4246304Y4186200D1*
X4249322Y4178019D1*
X4251689Y4169626D1*
X4253390Y4161074D1*
X4254415Y4152414D1*
X4254757Y4143701D1*
X4254415Y4134987D1*
X1150063Y2363106D2*
X1162834Y2363149D1*
X1188075Y2388451D1*
Y2401119D1*
X1150045Y2363115D1*
X4010197Y2701930D2*
X4054892Y2657235D1*
X4054894Y2685735D1*
X4028871Y2711697D1*
X4000056D1*
X4010197Y2701930D1*
X3979413Y2379024D2*
Y2470026D1*
X3974961Y2464803D1*
X3930684Y2420525D1*
X3935619Y2418796D1*
X3941800Y2415647D1*
X3947412Y2411569D1*
X3974961Y2384213D1*
X3977326Y2381653D1*
D15*
X3093701Y793701D3*
X3644882D3*
D16*
X3690157Y606693D3*
D17*
X3487402D3*
X2936220D3*
D16*
X2733465D3*
D18*
X568701Y843701D3*
D19*
X706496D3*
X844291D3*
D21*
X1243701Y543701D3*
D22*
X1164961D3*
X1086220D3*
D23*
X1326378D3*
X1003543D3*
D24*
X2424803Y1493701D3*
X2357874D3*
X2262402D3*
X2163976D3*
X2065551D3*
X1967126D3*
X1868701D3*
X1770276D3*
D25*
X2580118Y1227951D3*
Y493699D3*
X1438386D3*
Y1227951D3*
D26*
X2564370Y1044881D3*
Y590157D3*
Y692518D3*
D24*
X1671850Y1493701D3*
D27*
X3993701Y493701D3*
D28*
X4092126D3*
D29*
X593701Y2493701D3*
Y2683701D3*
D21*
X793701Y3768701D3*
D22*
Y3668701D3*
Y3568701D3*
Y3468701D3*
Y3368701D3*
Y3268701D3*
Y3168701D3*
Y3068701D3*
Y2968701D3*
Y2868701D3*
Y2768701D3*
Y2668701D3*
Y2568701D3*
Y2468701D3*
Y2368701D3*
Y2268701D3*
Y2168701D3*
Y2068701D3*
Y1968701D3*
Y1868701D3*
X1393701D3*
Y1968701D3*
Y2068701D3*
Y2168701D3*
Y2268701D3*
Y2368701D3*
Y2468701D3*
Y2568701D3*
Y2668701D3*
Y2768701D3*
Y2868701D3*
Y2968701D3*
Y3068701D3*
Y3168701D3*
Y3268701D3*
Y3368701D3*
Y3468701D3*
Y3568701D3*
Y3668701D3*
Y3768701D3*
D30*
X593701Y2968701D3*
D31*
Y3068701D3*
D30*
Y2243701D3*
D31*
Y2143701D3*
D32*
X743701Y1368701D3*
D33*
Y1545866D3*
X487795D3*
Y1368701D3*
D30*
X2843701Y2993701D3*
D31*
Y2893701D3*
D21*
X3143701Y2443701D3*
D22*
X3243701D3*
X3343701D3*
X3443701D3*
X3543701D3*
X3643701D3*
X3743701D3*
Y2743701D3*
X3643701D3*
X3543701D3*
X3443701D3*
X3343701D3*
X3243701D3*
X3143701D3*
D34*
X3193701Y1843701D3*
D35*
Y1543701D3*
D34*
X3343701Y1818701D3*
D35*
Y1518701D3*
D21*
X3618701Y1893701D3*
D22*
Y1496063D3*
D21*
X3393701Y1893701D3*
D22*
Y2291339D3*
D34*
X3518701Y1868701D3*
D35*
Y1568701D3*
D34*
X3493701Y1943701D3*
D35*
Y2243701D3*
D34*
X3618701Y2318701D3*
D35*
Y2018701D3*
D34*
X3168701Y1943701D3*
D35*
Y2243701D3*
D21*
X2268701Y2418701D3*
D22*
X2168701D3*
X2068701D3*
X1968701D3*
X1868701D3*
X1768701D3*
X1668701D3*
X1568701D3*
Y2118701D3*
X1668701D3*
X1768701D3*
X1868701D3*
X1968701D3*
X2068701D3*
X2168701D3*
X2268701D3*
X1543701Y1868701D3*
D21*
X1643701D3*
D34*
X1818701Y1993701D3*
D35*
Y1693701D3*
D36*
X2668701Y1918701D3*
D15*
Y1818701D3*
Y1718701D3*
D30*
X2993701Y1918701D3*
D31*
X2893701D3*
D30*
X2718701Y1343701D3*
D31*
Y1443701D3*
D37*
X2768701Y2318701D3*
D38*
Y2418701D3*
Y2518701D3*
Y2618701D3*
D34*
X3943701D3*
D35*
Y2318701D3*
D34*
X3743701Y2993701D3*
D35*
X4043701D3*
D34*
X3743701Y1218701D3*
D35*
X3443701D3*
D34*
X3743701Y1093701D3*
D35*
X3443701D3*
D21*
X3718701Y2268701D3*
D22*
Y1871063D3*
D21*
X3843701Y1868701D3*
D22*
Y2266339D3*
D34*
X3743701Y1793701D3*
D35*
Y1493701D3*
D34*
Y1318701D3*
D35*
X3443701D3*
D21*
X3668701Y2843701D3*
D22*
X4066339D3*
D21*
X3918701Y1343701D3*
D22*
Y1741339D3*
D34*
X3968701Y1918701D3*
D35*
Y2218701D3*
D34*
X3443701Y2943701D3*
D35*
Y3243701D3*
D34*
X4043701Y2193701D3*
D35*
Y1893701D3*
D34*
X3893701Y3093701D3*
D35*
X3593701D3*
D34*
X4111915Y1619281D3*
D35*
Y1319281D3*
D34*
X4200777Y1619281D3*
D35*
Y1319281D3*
D30*
X4243991Y2534373D3*
D31*
Y2434373D3*
D30*
X4099146Y2538837D3*
D31*
Y2438837D3*
D34*
X3511735Y3580420D3*
D35*
X3811735D3*
D31*
X2643701Y2893701D3*
D30*
Y2993701D3*
D34*
X3512316Y3665688D3*
D35*
X3812316D3*
D34*
X4015218Y3628969D3*
D35*
Y3328969D3*
D34*
X3148234Y3331098D3*
D35*
Y3031098D3*
D30*
X3028941Y3221799D3*
D31*
Y3121799D3*
D34*
X3145139Y3434692D3*
D35*
Y3734692D3*
D30*
X3019932Y3525392D3*
D31*
Y3625392D3*
X4175726Y3732017D3*
D30*
Y3832017D3*
D32*
X1011585Y4123839D3*
D33*
X1111585D3*
X1211585D3*
D32*
X1460900Y4117967D3*
D33*
X1560900D3*
X1660900D3*
D39*
X3616005Y4117210D3*
D40*
X3419155D3*
D32*
X2169064Y4117709D3*
D33*
X2269064D3*
X2369064D3*
X2469064D3*
X2569064D3*
X2669064D3*
D30*
X2664058Y3840900D3*
D31*
Y3940900D3*
D34*
X594727Y3324777D3*
D35*
Y3624777D3*
D32*
X1272222Y1540495D3*
D33*
X1172222D3*
X1072222D3*
X972222D3*
M02*
