%TF.GenerationSoftware,Novarm,DipTrace,3.2.0.1*%
%TF.CreationDate,2018-03-01T22:24:16+00:00*%
%FSLAX26Y26*%
%MOIN*%
%TF.FileFunction,Legend,Top*%
%TF.Part,Single*%
%ADD10C,0.009843*%
%ADD20C,0.003937*%
%ADD90C,0.00772*%
G75*
G01*
%LPD*%
X3585876Y793701D2*
D10*
X3148799D1*
X3038583D2*
X2672421D1*
X3650837Y83071D2*
X3323976D1*
X3099646D2*
X2772785D1*
X3650837D2*
Y331118D1*
X3323976Y83071D2*
Y331118D1*
X3099646Y83071D2*
Y331118D1*
X2772785Y83071D2*
Y331118D1*
X3323976D2*
X3286624D1*
Y390138D1*
X3099646Y331118D2*
X3136998D1*
Y390138D1*
X3650837Y331118D2*
X3688189D1*
Y390138D1*
X2772785Y331118D2*
X2735433D1*
Y390138D1*
X2672421Y521043D2*
Y390138D1*
X3751201Y521043D2*
Y390138D1*
X3688189D1*
X2735433D2*
X2672421D1*
X3751201Y690323D2*
Y793701D1*
X3699990D1*
X2672421Y690323D2*
Y793701D1*
X3286624Y390138D2*
X3136998D1*
X499803Y879146D2*
X511626D1*
X499803Y442126D2*
Y879146D1*
Y442126D2*
X913189D1*
Y879146D1*
X889585D1*
X1054743Y500394D2*
Y508276D1*
X1334262Y476765D2*
Y457087D1*
X995659D1*
Y476765D1*
Y610636D2*
Y630315D1*
X1334262D1*
Y610636D1*
X1139332Y602754D2*
D20*
X1182681D1*
X1186615D2*
X1170881Y590940D1*
X1186615Y602754D2*
X1170881Y614569D1*
X1054743Y500394D2*
D10*
X1125585D1*
Y587008D1*
X1054743D1*
Y579126D1*
X3857874Y572441D2*
G02X3857874Y572441I185039J0D01*
G01*
X678701Y2468694D2*
Y2708708D1*
X508701Y2468694D2*
Y2708708D1*
X658709Y2468694D2*
Y2708708D1*
X528693D2*
Y2468694D1*
X563696Y2578697D2*
Y2598705D1*
X623706D1*
Y2578697D1*
X563696D1*
Y2613711D2*
X593701D1*
X623706D1*
X563696Y2563691D2*
X593701D1*
X623706D1*
X593701Y2613711D2*
Y2638721D1*
Y2563691D2*
Y2538681D1*
X508701Y2468694D2*
G03X678701Y2468694I85000J7D01*
G01*
Y2708708D2*
G03X508701Y2708708I-85000J-7D01*
G01*
X528693Y2468694D2*
G03X658709Y2468694I65008J23D01*
G01*
Y2708708D2*
G03X528693Y2708708I-65008J-23D01*
G01*
X841744Y3822551D2*
Y1814764D1*
X1345658D1*
Y3822551D2*
Y1814764D1*
X841744Y3826575D2*
X1062198D1*
X1345658D2*
X1125204D1*
X1062198D2*
G03X1125204Y3826575I31503J119D01*
G01*
X533701Y3088641D2*
Y2948761D1*
X653701Y3088641D2*
Y2948761D1*
X533701D2*
G03X653701Y2948761I60000J-60D01*
G01*
Y3088641D2*
G03X533701Y3088641I-60000J60D01*
G01*
X653701Y2123761D2*
Y2263641D1*
X533701Y2123761D2*
Y2263641D1*
X653701D2*
G03X533701Y2263641I-60000J60D01*
G01*
Y2123761D2*
G03X653701Y2123761I60000J-60D01*
G01*
X544886Y1457283D2*
G02X544886Y1457283I70862J0D01*
G01*
X706303Y1575401D2*
X525193D1*
X497623Y1496680D2*
Y1417911D1*
X525193Y1339166D2*
X690549D1*
X733873Y1417911D2*
Y1496680D1*
X556702Y1457296D2*
G02X556702Y1457296I59046J0D01*
G01*
X2903701Y2873761D2*
Y3013641D1*
X2783701Y2873761D2*
Y3013641D1*
X2903701D2*
G03X2783701Y3013641I-60000J60D01*
G01*
Y2873761D2*
G03X2903701Y2873761I60000J-60D01*
G01*
X3057874Y2696067D2*
X3829528D1*
Y2491334D2*
Y2696067D1*
X3057874Y2491334D2*
X3829528D1*
X3057874D2*
Y2570075D1*
Y2696067D2*
Y2617327D1*
Y2570075D2*
G03X3057874Y2617327I-13J23626D01*
G01*
X3223701Y1773851D2*
X3163701D1*
X3223701Y1613551D2*
Y1773851D1*
Y1613551D2*
X3163701D1*
Y1773851D1*
X3373701Y1748851D2*
X3313701D1*
X3373701Y1588551D2*
Y1748851D1*
Y1588551D2*
X3313701D1*
Y1748851D1*
X3573425Y1795354D2*
X3663976D1*
Y1594409D1*
X3573425Y1761970D2*
X3663976D1*
X3573425Y1594409D2*
X3663976D1*
X3573425Y1795354D2*
Y1594409D1*
X3438976Y1992047D2*
X3348425D1*
Y2192992D1*
X3438976Y2025431D2*
X3348425D1*
X3438976Y2192992D2*
X3348425D1*
X3438976Y1992047D2*
Y2192992D1*
X3548701Y1798851D2*
X3488701D1*
X3548701Y1638551D2*
Y1798851D1*
Y1638551D2*
X3488701D1*
Y1798851D1*
X3463701Y2013551D2*
X3523701D1*
X3463701Y2173851D2*
Y2013551D1*
Y2173851D2*
X3523701D1*
Y2013551D1*
X3648701Y2248851D2*
X3588701D1*
X3648701Y2088551D2*
Y2248851D1*
Y2088551D2*
X3588701D1*
Y2248851D1*
X3138701Y2013551D2*
X3198701D1*
X3138701Y2173851D2*
Y2013551D1*
Y2173851D2*
X3198701D1*
Y2013551D1*
X2320276Y2166334D2*
X1517126D1*
Y2371067D2*
Y2166334D1*
X2320276Y2371067D2*
X1517126D1*
X2320276D2*
Y2292327D1*
Y2166334D2*
Y2245075D1*
Y2292327D2*
G03X2320276Y2245075I13J-23626D01*
G01*
X1692126Y1925930D2*
Y1811472D1*
G02X1692126Y1925930I-98597J57229D01*
G01*
X1848701Y1923851D2*
X1788701D1*
X1848701Y1763551D2*
Y1923851D1*
Y1763551D2*
X1788701D1*
Y1923851D1*
X2775000Y2015551D2*
X2597835D1*
Y1621850D1*
X2775000D1*
Y2015551D1*
X2739567D2*
Y1621850D1*
X2873761Y1858701D2*
X3013641D1*
X2873761Y1978701D2*
X3013641D1*
Y1858701D2*
G03X3013641Y1978701I60J60000D01*
G01*
X2873761D2*
G03X2873761Y1858701I-60J-60000D01*
G01*
X2658701Y1463641D2*
Y1323761D1*
X2778701Y1463641D2*
Y1323761D1*
X2658701D2*
G03X2778701Y1323761I60000J-60D01*
G01*
Y1463641D2*
G03X2658701Y1463641I-60000J60D01*
G01*
X2579724Y2242323D2*
X2815945D1*
Y2695079D1*
X2579724D1*
Y2242323D1*
X3973701Y2548851D2*
X3913701D1*
X3973701Y2388551D2*
Y2548851D1*
Y2388551D2*
X3913701D1*
Y2548851D1*
X3813551Y3023701D2*
Y2963701D1*
X3973851Y3023701D2*
X3813551D1*
X3973851D2*
Y2963701D1*
X3813551D1*
X3673851Y1188701D2*
Y1248701D1*
X3513551Y1188701D2*
X3673851D1*
X3513551D2*
Y1248701D1*
X3673851D1*
Y1063701D2*
Y1123701D1*
X3513551Y1063701D2*
X3673851D1*
X3513551D2*
Y1123701D1*
X3673851D1*
X3673425Y2170354D2*
X3763976D1*
Y1969409D1*
X3673425Y2136970D2*
X3763976D1*
X3673425Y1969409D2*
X3763976D1*
X3673425Y2170354D2*
Y1969409D1*
X3888976Y1967047D2*
X3798425D1*
Y2167992D1*
X3888976Y2000431D2*
X3798425D1*
X3888976Y2167992D2*
X3798425D1*
X3888976Y1967047D2*
Y2167992D1*
X3773701Y1723851D2*
X3713701D1*
X3773701Y1563551D2*
Y1723851D1*
Y1563551D2*
X3713701D1*
Y1723851D1*
X3673851Y1288701D2*
Y1348701D1*
X3513551Y1288701D2*
X3673851D1*
X3513551D2*
Y1348701D1*
X3673851D1*
X3767047Y2798425D2*
Y2888976D1*
X3967992D1*
X3800431Y2798425D2*
Y2888976D1*
X3967992Y2798425D2*
Y2888976D1*
X3767047Y2798425D2*
X3967992D1*
X3963976Y1442047D2*
X3873425D1*
Y1642992D1*
X3963976Y1475431D2*
X3873425D1*
X3963976Y1642992D2*
X3873425D1*
X3963976Y1442047D2*
Y1642992D1*
X3938701Y1988551D2*
X3998701D1*
X3938701Y2148851D2*
Y1988551D1*
Y2148851D2*
X3998701D1*
Y1988551D1*
X3413701Y3013551D2*
X3473701D1*
X3413701Y3173851D2*
Y3013551D1*
Y3173851D2*
X3473701D1*
Y3013551D1*
X4073701Y2123851D2*
X4013701D1*
X4073701Y1963551D2*
Y2123851D1*
Y1963551D2*
X4013701D1*
Y2123851D1*
X3823851Y3063701D2*
Y3123701D1*
X3663551Y3063701D2*
X3823851D1*
X3663551D2*
Y3123701D1*
X3823851D1*
X4141915Y1549431D2*
X4081915D1*
X4141915Y1389131D2*
Y1549431D1*
Y1389131D2*
X4081915D1*
Y1549431D1*
X4230777D2*
X4170777D1*
X4230777Y1389131D2*
Y1549431D1*
Y1389131D2*
X4170777D1*
Y1549431D1*
X4303991Y2414433D2*
Y2554313D1*
X4183991Y2414433D2*
Y2554313D1*
X4303991D2*
G03X4183991Y2554313I-60000J60D01*
G01*
Y2414433D2*
G03X4303991Y2414433I60000J-60D01*
G01*
X4159146Y2418897D2*
Y2558777D1*
X4039146Y2418897D2*
Y2558777D1*
X4159146D2*
G03X4039146Y2558777I-60000J60D01*
G01*
Y2418897D2*
G03X4159146Y2418897I60000J-60D01*
G01*
X3581585Y3610420D2*
Y3550420D1*
X3741885Y3610420D2*
X3581585D1*
X3741885D2*
Y3550420D1*
X3581585D1*
X2655521Y2813820D2*
X2631881D1*
X2643701Y2802001D2*
Y2825614D1*
X2543701Y2943730D2*
G02X2543701Y2943730I100000J0D01*
G01*
X3582166Y3695688D2*
Y3635688D1*
X3742466Y3695688D2*
X3582166D1*
X3742466D2*
Y3635688D1*
X3582166D1*
X4045218Y3559119D2*
X3985218D1*
X4045218Y3398819D2*
Y3559119D1*
Y3398819D2*
X3985218D1*
Y3559119D1*
X3178234Y3261248D2*
X3118234D1*
X3178234Y3100948D2*
Y3261248D1*
Y3100948D2*
X3118234D1*
Y3261248D1*
X3088941Y3101859D2*
Y3241739D1*
X2968941Y3101859D2*
Y3241739D1*
X3088941D2*
G03X2968941Y3241739I-60000J60D01*
G01*
Y3101859D2*
G03X3088941Y3101859I60000J-60D01*
G01*
X3115139Y3504542D2*
X3175139D1*
X3115139Y3664842D2*
Y3504542D1*
Y3664842D2*
X3175139D1*
Y3504542D1*
X2959932Y3645332D2*
Y3505452D1*
X3079932Y3645332D2*
Y3505452D1*
X2959932D2*
G03X3079932Y3505452I60000J-60D01*
G01*
Y3645332D2*
G03X2959932Y3645332I-60000J60D01*
G01*
X4187546Y3652136D2*
X4163906D1*
X4175726Y3640317D2*
Y3663930D1*
X4075726Y3782046D2*
G02X4075726Y3782046I100000J0D01*
G01*
X961604Y4173844D2*
X1261566D1*
Y4073839D1*
X961604D1*
Y4173844D1*
X1410919Y4167972D2*
X1710881D1*
Y4067967D1*
X1410919D1*
Y4167972D1*
X3714430Y4056186D2*
X3320730D1*
Y4178234D1*
X3714430D1*
Y4056186D1*
X2119092Y4167710D2*
X2719037D1*
Y4067709D1*
X2119092D1*
Y4167710D1*
X2604058Y3960840D2*
Y3820960D1*
X2724058Y3960840D2*
Y3820960D1*
X2604058D2*
G03X2724058Y3820960I60000J-60D01*
G01*
Y3960840D2*
G03X2604058Y3960840I-60000J60D01*
G01*
X564727Y3394627D2*
X624727D1*
X564727Y3554927D2*
Y3394627D1*
Y3554927D2*
X624727D1*
Y3394627D1*
X1322239Y1490490D2*
X922204D1*
Y1590495D1*
X1322239D1*
Y1490490D1*
X3199311Y904325D2*
D90*
Y866079D1*
X3196934Y858894D1*
X3194502Y856517D1*
X3189749Y854085D1*
X3184941D1*
X3180187Y856517D1*
X3177811Y858894D1*
X3175379Y866079D1*
Y870832D1*
X3219558Y904270D2*
X3245811D1*
X3231497Y885147D1*
X3238682D1*
X3243435Y882770D1*
X3245811Y880394D1*
X3248243Y873209D1*
Y868456D1*
X3245811Y861270D1*
X3241058Y856462D1*
X3233873Y854085D1*
X3226688D1*
X3219558Y856462D1*
X3217182Y858894D1*
X3214750Y863647D1*
X704746Y962199D2*
Y923953D1*
X702369Y916768D1*
X699937Y914391D1*
X695184Y911959D1*
X690375D1*
X685622Y914391D1*
X683246Y916768D1*
X680814Y923953D1*
Y928706D1*
X720185Y952583D2*
X724993Y955014D1*
X732178Y962144D1*
Y911959D1*
X1167991Y696353D2*
X1163238Y701161D1*
X1156053Y703538D1*
X1146491D1*
X1139306Y701161D1*
X1134498Y696353D1*
Y691600D1*
X1136929Y686791D1*
X1139306Y684415D1*
X1144059Y682038D1*
X1158429Y677230D1*
X1163238Y674853D1*
X1165614Y672421D1*
X1167991Y667668D1*
Y660483D1*
X1163238Y655730D1*
X1156053Y653298D1*
X1146491D1*
X1139306Y655730D1*
X1134498Y660483D1*
X1183430Y693921D2*
X1188239Y696353D1*
X1195424Y703483D1*
Y653298D1*
X4023854Y780463D2*
Y830703D1*
X4004731Y780463D1*
X3985607Y830703D1*
Y780463D1*
X4039293Y830703D2*
Y780463D1*
X4072787Y830703D2*
X4039293Y797210D1*
X4051231Y809204D2*
X4072787Y780463D1*
X4088226Y821086D2*
X4093034Y823518D1*
X4100219Y830648D1*
Y780463D1*
X560861Y2866924D2*
X579984Y2842992D1*
Y2816684D1*
X599108Y2866924D2*
X579984Y2842992D1*
X614547Y2857307D2*
X619355Y2859739D1*
X626540Y2866869D1*
Y2816684D1*
X1063238Y3899798D2*
Y3863928D1*
X1065614Y3856743D1*
X1070423Y3851990D1*
X1077608Y3849558D1*
X1082361D1*
X1089546Y3851990D1*
X1094354Y3856743D1*
X1096731Y3863928D1*
Y3899798D1*
X1112170Y3890181D2*
X1116979Y3892613D1*
X1124164Y3899743D1*
Y3849558D1*
X597919Y3209986D2*
X595543Y3214739D1*
X590734Y3219547D1*
X585981Y3221924D1*
X576420D1*
X571611Y3219547D1*
X566858Y3214739D1*
X564426Y3209986D1*
X562049Y3202801D1*
Y3190807D1*
X564426Y3183677D1*
X566858Y3178869D1*
X571611Y3174116D1*
X576420Y3171684D1*
X585981D1*
X590734Y3174116D1*
X595543Y3178869D1*
X597919Y3183677D1*
X613359Y3212307D2*
X618167Y3214739D1*
X625352Y3221869D1*
Y3171684D1*
X587169Y2009986D2*
X584793Y2014739D1*
X579984Y2019547D1*
X575231Y2021924D1*
X565670D1*
X560861Y2019547D1*
X556108Y2014739D1*
X553676Y2009986D1*
X551300Y2002801D1*
Y1990807D1*
X553676Y1983677D1*
X556108Y1978869D1*
X560861Y1974116D1*
X565670Y1971684D1*
X575231D1*
X579984Y1974116D1*
X584793Y1978869D1*
X587169Y1983677D1*
X605041Y2009930D2*
Y2012307D1*
X607417Y2017115D1*
X609794Y2019492D1*
X614602Y2021869D1*
X624164D1*
X628917Y2019492D1*
X631294Y2017115D1*
X633725Y2012307D1*
Y2007554D1*
X631294Y2002745D1*
X626540Y1995616D1*
X602609Y1971684D1*
X636102D1*
X608028Y1645369D2*
X603275Y1650177D1*
X596090Y1652554D1*
X586529D1*
X579344Y1650177D1*
X574535Y1645369D1*
Y1640616D1*
X576967Y1635807D1*
X579344Y1633431D1*
X584097Y1631054D1*
X598467Y1626245D1*
X603275Y1623869D1*
X605652Y1621437D1*
X608028Y1616684D1*
Y1609499D1*
X603275Y1604746D1*
X596090Y1602314D1*
X586529D1*
X579344Y1604746D1*
X574535Y1609499D1*
X625900Y1640560D2*
Y1642937D1*
X628276Y1647745D1*
X630653Y1650122D1*
X635461Y1652499D1*
X645023D1*
X649776Y1650122D1*
X652153Y1647745D1*
X654584Y1642937D1*
Y1638184D1*
X652153Y1633375D1*
X647399Y1626245D1*
X623468Y1602314D1*
X656961D1*
X2837169Y3134986D2*
X2834793Y3139739D1*
X2829984Y3144547D1*
X2825231Y3146924D1*
X2815670D1*
X2810861Y3144547D1*
X2806108Y3139739D1*
X2803676Y3134986D1*
X2801300Y3127801D1*
Y3115807D1*
X2803676Y3108677D1*
X2806108Y3103869D1*
X2810861Y3099116D1*
X2815670Y3096684D1*
X2825231D1*
X2829984Y3099116D1*
X2834793Y3103869D1*
X2837169Y3108677D1*
X2881294Y3146869D2*
X2857417D1*
X2855041Y3125369D1*
X2857417Y3127745D1*
X2864602Y3130177D1*
X2871732D1*
X2878917Y3127745D1*
X2883725Y3122992D1*
X2886102Y3115807D1*
Y3111054D1*
X2883725Y3103869D1*
X2878917Y3099060D1*
X2871732Y3096684D1*
X2864602D1*
X2857417Y3099060D1*
X2855041Y3101492D1*
X2852609Y3106245D1*
X3402488Y2846451D2*
Y2810581D1*
X3404864Y2803396D1*
X3409673Y2798643D1*
X3416858Y2796211D1*
X3421611D1*
X3428796Y2798643D1*
X3433605Y2803396D1*
X3435981Y2810581D1*
Y2846451D1*
X3453852Y2834458D2*
Y2836835D1*
X3456229Y2841643D1*
X3458605Y2844020D1*
X3463414Y2846396D1*
X3472976D1*
X3477729Y2844020D1*
X3480105Y2841643D1*
X3482537Y2836835D1*
Y2832081D1*
X3480105Y2827273D1*
X3475352Y2820143D1*
X3451420Y2796211D1*
X3484914D1*
X3189409Y1663238D2*
Y1684738D1*
X3186978Y1691923D1*
X3184601Y1694355D1*
X3179848Y1696731D1*
X3175039D1*
X3170286Y1694355D1*
X3167854Y1691923D1*
X3165478Y1684738D1*
Y1663238D1*
X3215718D1*
X3189409Y1679985D2*
X3215718Y1696731D1*
X3175095Y1712170D2*
X3172663Y1716979D1*
X3165533Y1724164D1*
X3215718D1*
X3339409Y1627488D2*
Y1648988D1*
X3336978Y1656173D1*
X3334601Y1658605D1*
X3329848Y1660981D1*
X3325039D1*
X3320286Y1658605D1*
X3317854Y1656173D1*
X3315478Y1648988D1*
Y1627488D1*
X3365718D1*
X3339409Y1644235D2*
X3365718Y1660981D1*
X3327471Y1678852D2*
X3325095D1*
X3320286Y1681229D1*
X3317910Y1683606D1*
X3315533Y1688414D1*
Y1697976D1*
X3317910Y1702729D1*
X3320286Y1705105D1*
X3325095Y1707537D1*
X3329848D1*
X3334656Y1705105D1*
X3341786Y1700352D1*
X3365718Y1676420D1*
Y1709914D1*
X3600202Y1664419D2*
X3650442D1*
Y1681166D1*
X3648010Y1688351D1*
X3643257Y1693159D1*
X3638449Y1695536D1*
X3631319Y1697912D1*
X3619325D1*
X3612140Y1695536D1*
X3607387Y1693159D1*
X3602579Y1688351D1*
X3600202Y1681166D1*
Y1664419D1*
X3609819Y1713352D2*
X3607387Y1718160D1*
X3600257Y1725345D1*
X3650442D1*
X3375202Y2051307D2*
X3425442D1*
Y2068053D1*
X3423010Y2075238D1*
X3418257Y2080047D1*
X3413449Y2082424D1*
X3406319Y2084800D1*
X3394325D1*
X3387140Y2082424D1*
X3382387Y2080047D1*
X3377579Y2075239D1*
X3375202Y2068054D1*
Y2051307D1*
X3387196Y2102671D2*
X3384819D1*
X3380011Y2105048D1*
X3377634Y2107424D1*
X3375257Y2112233D1*
Y2121794D1*
X3377634Y2126548D1*
X3380011Y2128924D1*
X3384819Y2131356D1*
X3389572D1*
X3394381Y2128924D1*
X3401510Y2124171D1*
X3425442Y2100239D1*
Y2133733D1*
X3514409Y1677488D2*
Y1698988D1*
X3511978Y1706173D1*
X3509601Y1708605D1*
X3504848Y1710981D1*
X3500039D1*
X3495286Y1708605D1*
X3492854Y1706173D1*
X3490478Y1698988D1*
Y1677488D1*
X3540718D1*
X3514409Y1694235D2*
X3540718Y1710981D1*
X3490533Y1731229D2*
Y1757482D1*
X3509656Y1743167D1*
Y1750352D1*
X3512033Y1755105D1*
X3514409Y1757482D1*
X3521595Y1759914D1*
X3526348D1*
X3533533Y1757482D1*
X3538341Y1752729D1*
X3540718Y1745544D1*
Y1738359D1*
X3538341Y1731229D1*
X3535909Y1728852D1*
X3531156Y1726420D1*
X3489409Y2051300D2*
Y2072799D1*
X3486978Y2079985D1*
X3484601Y2082416D1*
X3479848Y2084793D1*
X3475039D1*
X3470286Y2082416D1*
X3467854Y2079985D1*
X3465478Y2072800D1*
Y2051300D1*
X3515718D1*
X3489409Y2068046D2*
X3515718Y2084793D1*
Y2124164D2*
X3465533D1*
X3498971Y2100232D1*
Y2136102D1*
X3614409Y2127488D2*
Y2148988D1*
X3611978Y2156173D1*
X3609601Y2158605D1*
X3604848Y2160981D1*
X3600039D1*
X3595286Y2158605D1*
X3592854Y2156173D1*
X3590478Y2148988D1*
Y2127488D1*
X3640718D1*
X3614409Y2144235D2*
X3640718Y2160981D1*
X3590533Y2205105D2*
Y2181229D1*
X3612033Y2178852D1*
X3609656Y2181229D1*
X3607224Y2188414D1*
Y2195544D1*
X3609656Y2202729D1*
X3614409Y2207537D1*
X3621595Y2209914D1*
X3626348D1*
X3633533Y2207537D1*
X3638341Y2202729D1*
X3640718Y2195544D1*
Y2188414D1*
X3638341Y2181229D1*
X3635909Y2178852D1*
X3631156Y2176420D1*
X3164409Y2053704D2*
Y2075204D1*
X3161978Y2082389D1*
X3159601Y2084821D1*
X3154848Y2087197D1*
X3150039D1*
X3145286Y2084821D1*
X3142854Y2082389D1*
X3140478Y2075204D1*
Y2053704D1*
X3190718D1*
X3164409Y2070451D2*
X3190718Y2087197D1*
X3147663Y2131321D2*
X3142910Y2128945D1*
X3140533Y2121760D1*
Y2117006D1*
X3142910Y2109821D1*
X3150095Y2105013D1*
X3162033Y2102636D1*
X3173971D1*
X3183533Y2105013D1*
X3188341Y2109821D1*
X3190718Y2117006D1*
Y2119383D1*
X3188341Y2126513D1*
X3183533Y2131321D1*
X3176348Y2133698D1*
X3173971D1*
X3166786Y2131321D1*
X3162033Y2126513D1*
X3159656Y2119383D1*
Y2117006D1*
X3162033Y2109821D1*
X3166786Y2105013D1*
X3173971Y2102636D1*
X1877488Y2521451D2*
Y2485581D1*
X1879864Y2478396D1*
X1884673Y2473643D1*
X1891858Y2471211D1*
X1896611D1*
X1903796Y2473643D1*
X1908605Y2478396D1*
X1910981Y2485581D1*
Y2521451D1*
X1931229Y2521396D2*
X1957482D1*
X1943167Y2502273D1*
X1950352D1*
X1955105Y2499896D1*
X1957482Y2497520D1*
X1959914Y2490335D1*
Y2485581D1*
X1957482Y2478396D1*
X1952729Y2473588D1*
X1945544Y2471211D1*
X1938359D1*
X1931229Y2473588D1*
X1928852Y2476020D1*
X1926420Y2480773D1*
X1544614Y2055926D2*
Y2005686D1*
X1561360D1*
X1568546Y2008118D1*
X1573354Y2012871D1*
X1575731Y2017679D1*
X1578107Y2024809D1*
Y2036803D1*
X1575731Y2043988D1*
X1573354Y2048741D1*
X1568546Y2053549D1*
X1561360Y2055926D1*
X1544614D1*
X1598355Y2055870D2*
X1624608D1*
X1610293Y2036747D1*
X1617478D1*
X1622231Y2034371D1*
X1624608Y2031994D1*
X1627040Y2024809D1*
Y2020056D1*
X1624608Y2012871D1*
X1619855Y2008062D1*
X1612670Y2005686D1*
X1605485D1*
X1598355Y2008062D1*
X1595978Y2010494D1*
X1593546Y2015247D1*
X1739409Y1802488D2*
Y1823988D1*
X1736978Y1831173D1*
X1734601Y1833605D1*
X1729848Y1835981D1*
X1725039D1*
X1720286Y1833605D1*
X1717854Y1831173D1*
X1715478Y1823988D1*
Y1802488D1*
X1765718D1*
X1739409Y1819235D2*
X1765718Y1835981D1*
Y1860982D2*
X1715533Y1884914D1*
Y1851420D1*
X2644016Y2088774D2*
Y2052904D1*
X2646393Y2045719D1*
X2651201Y2040966D1*
X2658386Y2038534D1*
X2663139D1*
X2670324Y2040966D1*
X2675133Y2045719D1*
X2677509Y2052904D1*
Y2088774D1*
X2716880Y2038534D2*
Y2088719D1*
X2692949Y2055281D1*
X2728819D1*
X2937169Y2039986D2*
X2934793Y2044739D1*
X2929984Y2049547D1*
X2925231Y2051924D1*
X2915670D1*
X2910861Y2049547D1*
X2906108Y2044739D1*
X2903676Y2039986D1*
X2901300Y2032801D1*
Y2020807D1*
X2903676Y2013677D1*
X2906108Y2008869D1*
X2910861Y2004116D1*
X2915670Y2001684D1*
X2925231D1*
X2929984Y2004116D1*
X2934793Y2008869D1*
X2937169Y2013677D1*
X2957417Y2051869D2*
X2983670D1*
X2969355Y2032745D1*
X2976540D1*
X2981294Y2030369D1*
X2983670Y2027992D1*
X2986102Y2020807D1*
Y2016054D1*
X2983670Y2008869D1*
X2978917Y2004060D1*
X2971732Y2001684D1*
X2964547D1*
X2957417Y2004060D1*
X2955041Y2006492D1*
X2952609Y2011246D1*
X2710981Y1584986D2*
X2708605Y1589739D1*
X2703796Y1594547D1*
X2699043Y1596924D1*
X2689481D1*
X2684673Y1594547D1*
X2679920Y1589739D1*
X2677488Y1584986D1*
X2675111Y1577801D1*
Y1565807D1*
X2677488Y1558677D1*
X2679920Y1553869D1*
X2684673Y1549116D1*
X2689481Y1546684D1*
X2699043D1*
X2703796Y1549116D1*
X2708605Y1553869D1*
X2710981Y1558677D1*
X2750352Y1546684D2*
Y1596869D1*
X2726420Y1563431D1*
X2762290D1*
X2656622Y2768302D2*
Y2732432D1*
X2658998Y2725247D1*
X2663807Y2720494D1*
X2670992Y2718062D1*
X2675745D1*
X2682930Y2720494D1*
X2687738Y2725247D1*
X2690115Y2732432D1*
Y2768302D1*
X2734239Y2768247D2*
X2710363D1*
X2707986Y2746747D1*
X2710363Y2749123D1*
X2717548Y2751555D1*
X2724678D1*
X2731863Y2749123D1*
X2736671Y2744370D1*
X2739048Y2737185D1*
Y2732432D1*
X2736671Y2725247D1*
X2731863Y2720438D1*
X2724678Y2718062D1*
X2717548D1*
X2710363Y2720438D1*
X2707986Y2722870D1*
X2705554Y2727623D1*
X3939409Y2428676D2*
Y2450176D1*
X3936978Y2457361D1*
X3934601Y2459793D1*
X3929848Y2462170D1*
X3925039D1*
X3920286Y2459793D1*
X3917854Y2457361D1*
X3915478Y2450176D1*
Y2428676D1*
X3965718D1*
X3939409Y2445423D2*
X3965718Y2462169D1*
X3932224Y2508725D2*
X3939409Y2506294D1*
X3944218Y2501540D1*
X3946595Y2494355D1*
Y2491979D1*
X3944218Y2484794D1*
X3939409Y2480041D1*
X3932224Y2477609D1*
X3929848D1*
X3922663Y2480041D1*
X3917910Y2484794D1*
X3915533Y2491979D1*
Y2494355D1*
X3917910Y2501540D1*
X3922663Y2506294D1*
X3932224Y2508725D1*
X3944218D1*
X3956156Y2506294D1*
X3963341Y2501540D1*
X3965718Y2494355D1*
Y2489602D1*
X3963341Y2482417D1*
X3958533Y2480041D1*
X3838771Y2997992D2*
X3860271D1*
X3867456Y3000424D1*
X3869888Y3002801D1*
X3872265Y3007554D1*
Y3012362D1*
X3869888Y3017115D1*
X3867456Y3019547D1*
X3860271Y3021924D1*
X3838771D1*
Y2971684D1*
X3855518Y2997992D2*
X3872265Y2971684D1*
X3887704Y3012307D2*
X3892512Y3014739D1*
X3899698Y3021869D1*
Y2971684D1*
X3929507Y3021869D2*
X3922322Y3019492D1*
X3917513Y3012307D1*
X3915137Y3000369D1*
Y2993184D1*
X3917513Y2981245D1*
X3922322Y2974060D1*
X3929507Y2971684D1*
X3934260D1*
X3941445Y2974060D1*
X3946198Y2981245D1*
X3948630Y2993184D1*
Y3000369D1*
X3946198Y3012307D1*
X3941445Y3019492D1*
X3934260Y3021869D1*
X3929507D1*
X3946198Y3012307D2*
X3917513Y2981245D1*
X3549521Y1222992D2*
X3571021D1*
X3578206Y1225424D1*
X3580638Y1227801D1*
X3583015Y1232554D1*
Y1237362D1*
X3580638Y1242115D1*
X3578206Y1244547D1*
X3571021Y1246924D1*
X3549521D1*
Y1196684D1*
X3566268Y1222992D2*
X3583015Y1196684D1*
X3598454Y1237307D2*
X3603262Y1239739D1*
X3610447Y1246869D1*
Y1196684D1*
X3625887Y1237307D2*
X3630695Y1239739D1*
X3637880Y1246869D1*
Y1196684D1*
X3538771Y1097992D2*
X3560271D1*
X3567456Y1100424D1*
X3569888Y1102801D1*
X3572265Y1107554D1*
Y1112362D1*
X3569888Y1117115D1*
X3567456Y1119547D1*
X3560271Y1121924D1*
X3538771D1*
Y1071684D1*
X3555518Y1097992D2*
X3572265Y1071684D1*
X3587704Y1112307D2*
X3592512Y1114739D1*
X3599698Y1121869D1*
Y1071684D1*
X3617569Y1109930D2*
Y1112307D1*
X3619945Y1117115D1*
X3622322Y1119492D1*
X3627130Y1121869D1*
X3636692D1*
X3641445Y1119492D1*
X3643822Y1117115D1*
X3646254Y1112307D1*
Y1107554D1*
X3643822Y1102745D1*
X3639068Y1095616D1*
X3615137Y1071684D1*
X3648630D1*
X3700202Y2027481D2*
X3750442D1*
Y2044227D1*
X3748010Y2051412D1*
X3743257Y2056221D1*
X3738449Y2058597D1*
X3731319Y2060974D1*
X3719325D1*
X3712140Y2058597D1*
X3707387Y2056221D1*
X3702579Y2051412D1*
X3700202Y2044227D1*
Y2027481D1*
X3750442Y2100345D2*
X3700257D1*
X3733696Y2076413D1*
Y2112283D1*
X3825202Y2026307D2*
X3875442D1*
Y2043053D1*
X3873010Y2050238D1*
X3868257Y2055047D1*
X3863449Y2057424D1*
X3856319Y2059800D1*
X3844325D1*
X3837140Y2057424D1*
X3832387Y2055047D1*
X3827579Y2050239D1*
X3825202Y2043054D1*
Y2026307D1*
X3825257Y2103924D2*
Y2080048D1*
X3846757Y2077671D1*
X3844381Y2080048D1*
X3841949Y2087233D1*
Y2094363D1*
X3844381Y2101548D1*
X3849134Y2106356D1*
X3856319Y2108733D1*
X3861072D1*
X3868257Y2106356D1*
X3873066Y2101548D1*
X3875442Y2094363D1*
Y2087233D1*
X3873066Y2080048D1*
X3870634Y2077671D1*
X3865881Y2075239D1*
X3739409Y1588772D2*
Y1610271D1*
X3736978Y1617456D1*
X3734601Y1619888D1*
X3729848Y1622265D1*
X3725039D1*
X3720286Y1619888D1*
X3717854Y1617456D1*
X3715478Y1610271D1*
Y1588772D1*
X3765718D1*
X3739409Y1605518D2*
X3765718Y1622265D1*
X3725095Y1637704D2*
X3722663Y1642513D1*
X3715533Y1649698D1*
X3765718D1*
X3715533Y1669945D2*
Y1696198D1*
X3734656Y1681883D1*
Y1689069D1*
X3737033Y1693822D1*
X3739409Y1696198D1*
X3746594Y1698630D1*
X3751348D1*
X3758533Y1696198D1*
X3763341Y1691445D1*
X3765718Y1684260D1*
Y1677075D1*
X3763341Y1669945D1*
X3760909Y1667569D1*
X3756156Y1665137D1*
X3537583Y1322992D2*
X3559083D1*
X3566268Y1325424D1*
X3568700Y1327801D1*
X3571077Y1332554D1*
Y1337362D1*
X3568700Y1342115D1*
X3566268Y1344547D1*
X3559083Y1346924D1*
X3537583D1*
Y1296684D1*
X3554330Y1322992D2*
X3571077Y1296684D1*
X3586516Y1337307D2*
X3591324Y1339739D1*
X3598509Y1346869D1*
Y1296684D1*
X3637880D2*
Y1346869D1*
X3613948Y1313431D1*
X3649818D1*
X3827523Y2862199D2*
Y2811959D1*
X3844269D1*
X3851454Y2814391D1*
X3856263Y2819144D1*
X3858639Y2823953D1*
X3861016Y2831083D1*
Y2843076D1*
X3858639Y2850261D1*
X3856263Y2855014D1*
X3851454Y2859823D1*
X3844269Y2862199D1*
X3827523D1*
X3905140Y2855014D2*
X3902764Y2859768D1*
X3895578Y2862144D1*
X3890825D1*
X3883640Y2859768D1*
X3878832Y2852583D1*
X3876455Y2840644D1*
Y2828706D1*
X3878832Y2819144D1*
X3883640Y2814336D1*
X3890825Y2811959D1*
X3893202D1*
X3900332Y2814336D1*
X3905140Y2819144D1*
X3907517Y2826330D1*
Y2828706D1*
X3905140Y2835891D1*
X3900332Y2840644D1*
X3893202Y2843021D1*
X3890825D1*
X3883640Y2840644D1*
X3878832Y2835891D1*
X3876455Y2828706D1*
X3900202Y1501307D2*
X3950442D1*
Y1518053D1*
X3948010Y1525238D1*
X3943257Y1530047D1*
X3938449Y1532424D1*
X3931319Y1534800D1*
X3919325D1*
X3912140Y1532424D1*
X3907387Y1530047D1*
X3902579Y1525239D1*
X3900202Y1518054D1*
Y1501307D1*
X3950442Y1559801D2*
X3900257Y1583733D1*
Y1550239D1*
X3964409Y2013772D2*
Y2035271D1*
X3961978Y2042456D1*
X3959601Y2044888D1*
X3954848Y2047265D1*
X3950039D1*
X3945286Y2044888D1*
X3942854Y2042456D1*
X3940478Y2035271D1*
Y2013772D1*
X3990718D1*
X3964409Y2030518D2*
X3990718Y2047265D1*
X3950095Y2062704D2*
X3947663Y2067513D1*
X3940533Y2074698D1*
X3990718D1*
X3940533Y2118822D2*
Y2094945D1*
X3962033Y2092569D1*
X3959656Y2094945D1*
X3957224Y2102130D1*
Y2109260D1*
X3959656Y2116445D1*
X3964409Y2121254D1*
X3971594Y2123630D1*
X3976348D1*
X3983533Y2121254D1*
X3988341Y2116445D1*
X3990718Y2109260D1*
Y2102130D1*
X3988341Y2094945D1*
X3985909Y2092569D1*
X3981156Y2090137D1*
X3439409Y3039988D2*
Y3061487D1*
X3436978Y3068672D1*
X3434601Y3071104D1*
X3429848Y3073481D1*
X3425039D1*
X3420286Y3071104D1*
X3417854Y3068672D1*
X3415478Y3061487D1*
Y3039988D1*
X3465718D1*
X3439409Y3056734D2*
X3465718Y3073481D1*
X3425095Y3088920D2*
X3422663Y3093728D1*
X3415533Y3100914D1*
X3465718Y3100913D1*
X3422663Y3145038D2*
X3417910Y3142661D1*
X3415533Y3135476D1*
Y3130723D1*
X3417910Y3123538D1*
X3425095Y3118729D1*
X3437033Y3116353D1*
X3448971D1*
X3458533Y3118729D1*
X3463341Y3123538D1*
X3465718Y3130723D1*
Y3133099D1*
X3463341Y3140229D1*
X3458533Y3145038D1*
X3451348Y3147414D1*
X3448971D1*
X3441786Y3145038D1*
X3437033Y3140229D1*
X3434656Y3133099D1*
Y3130723D1*
X3437033Y3123538D1*
X3441786Y3118729D1*
X3448971Y3116353D1*
X4039409Y1988772D2*
Y2010271D1*
X4036978Y2017456D1*
X4034601Y2019888D1*
X4029848Y2022265D1*
X4025039D1*
X4020286Y2019888D1*
X4017854Y2017456D1*
X4015478Y2010271D1*
Y1988772D1*
X4065718D1*
X4039409Y2005518D2*
X4065718Y2022265D1*
X4025095Y2037704D2*
X4022663Y2042513D1*
X4015533Y2049698D1*
X4065718D1*
Y2074698D2*
X4015533Y2098630D1*
Y2065137D1*
X3688799Y3097992D2*
X3710299D1*
X3717484Y3100424D1*
X3719916Y3102801D1*
X3722292Y3107554D1*
Y3112362D1*
X3719916Y3117115D1*
X3717484Y3119547D1*
X3710299Y3121924D1*
X3688799D1*
Y3071684D1*
X3705546Y3097992D2*
X3722292Y3071684D1*
X3737732Y3112307D2*
X3742540Y3114739D1*
X3749725Y3121869D1*
Y3071684D1*
X3777103Y3121869D2*
X3769973Y3119492D1*
X3767541Y3114739D1*
Y3109930D1*
X3769973Y3105177D1*
X3774726Y3102745D1*
X3784288Y3100369D1*
X3791473Y3097992D1*
X3796226Y3093184D1*
X3798602Y3088431D1*
Y3081245D1*
X3796226Y3076492D1*
X3793849Y3074060D1*
X3786664Y3071684D1*
X3777103D1*
X3769973Y3074060D1*
X3767541Y3076492D1*
X3765164Y3081245D1*
Y3088431D1*
X3767541Y3093184D1*
X3772349Y3097992D1*
X3779479Y3100369D1*
X3789041Y3102745D1*
X3793849Y3105177D1*
X3796226Y3109930D1*
Y3114739D1*
X3793849Y3119492D1*
X3786664Y3121869D1*
X3777103D1*
X4106753Y1428096D2*
Y1449595D1*
X4104321Y1456780D1*
X4101945Y1459212D1*
X4097192Y1461589D1*
X4092383D1*
X4087630Y1459212D1*
X4085198Y1456781D1*
X4082822Y1449595D1*
Y1428096D1*
X4133062D1*
X4106753Y1444842D2*
X4133062Y1461589D1*
X4082877Y1488966D2*
X4085253Y1481837D1*
X4090007Y1479405D1*
X4094815D1*
X4099568Y1481837D1*
X4102000Y1486590D1*
X4104377Y1496151D1*
X4106753Y1503336D1*
X4111562Y1508090D1*
X4116315Y1510466D1*
X4123500D1*
X4128253Y1508090D1*
X4130685Y1505713D1*
X4133062Y1498528D1*
Y1488966D1*
X4130685Y1481837D1*
X4128253Y1479405D1*
X4123500Y1477028D1*
X4116315D1*
X4111562Y1479405D1*
X4106753Y1484213D1*
X4104377Y1491343D1*
X4102000Y1500905D1*
X4099568Y1505713D1*
X4094815Y1508090D1*
X4090007D1*
X4085253Y1505713D1*
X4082877Y1498528D1*
Y1488966D1*
X4195615Y1415540D2*
X4195616Y1437040D1*
X4193184Y1444225D1*
X4190807Y1446657D1*
X4186054Y1449033D1*
X4181245D1*
X4176492Y1446657D1*
X4174060Y1444225D1*
X4171684Y1437040D1*
Y1415540D1*
X4221924D1*
X4195615Y1432287D2*
X4221924Y1449033D1*
X4181301Y1464472D2*
X4178869Y1469281D1*
X4171739Y1476466D1*
X4221924D1*
X4188430Y1523022D2*
X4195616Y1520590D1*
X4200424Y1515837D1*
X4202801Y1508652D1*
Y1506275D1*
X4200424Y1499090D1*
X4195616Y1494337D1*
X4188430Y1491905D1*
X4186054D1*
X4178869Y1494337D1*
X4174116Y1499090D1*
X4171739Y1506275D1*
Y1508652D1*
X4174116Y1515837D1*
X4178869Y1520590D1*
X4188430Y1523022D1*
X4200424D1*
X4212362Y1520590D1*
X4219547Y1515837D1*
X4221924Y1508652D1*
Y1503899D1*
X4219547Y1496714D1*
X4214739Y1494337D1*
X4238675Y2675658D2*
X4236299Y2680411D1*
X4231490Y2685219D1*
X4226737Y2687596D1*
X4217176D1*
X4212367Y2685219D1*
X4207614Y2680411D1*
X4205182Y2675658D1*
X4202805Y2668473D1*
Y2656479D1*
X4205182Y2649349D1*
X4207614Y2644541D1*
X4212367Y2639788D1*
X4217176Y2637356D1*
X4226737D1*
X4231490Y2639788D1*
X4236299Y2644541D1*
X4238675Y2649349D1*
X4282800Y2680411D2*
X4280423Y2685164D1*
X4273238Y2687541D1*
X4268485D1*
X4261300Y2685164D1*
X4256491Y2677979D1*
X4254115Y2666041D1*
Y2654102D1*
X4256491Y2644541D1*
X4261300Y2639732D1*
X4268485Y2637356D1*
X4270861D1*
X4277991Y2639732D1*
X4282800Y2644541D1*
X4285176Y2651726D1*
Y2654102D1*
X4282800Y2661287D1*
X4277991Y2666041D1*
X4270861Y2668417D1*
X4268485D1*
X4261300Y2666041D1*
X4256491Y2661287D1*
X4254115Y2654102D1*
X4092642Y2680122D2*
X4090265Y2684875D1*
X4085457Y2689684D1*
X4080704Y2692060D1*
X4071142D1*
X4066334Y2689684D1*
X4061580Y2684875D1*
X4059149Y2680122D1*
X4056772Y2672937D1*
Y2660944D1*
X4059149Y2653814D1*
X4061580Y2649005D1*
X4066334Y2644252D1*
X4071142Y2641820D1*
X4080704D1*
X4085457Y2644252D1*
X4090265Y2649005D1*
X4092642Y2653814D1*
X4120019Y2692005D2*
X4112890Y2689628D1*
X4110458Y2684875D1*
Y2680067D1*
X4112890Y2675314D1*
X4117643Y2672882D1*
X4127204Y2670505D1*
X4134390Y2668129D1*
X4139143Y2663320D1*
X4141519Y2658567D1*
Y2651382D1*
X4139143Y2646629D1*
X4136766Y2644197D1*
X4129581Y2641820D1*
X4120019D1*
X4112890Y2644197D1*
X4110458Y2646629D1*
X4108081Y2651382D1*
Y2658567D1*
X4110458Y2663320D1*
X4115266Y2668129D1*
X4122396Y2670505D1*
X4131958Y2672882D1*
X4136766Y2675314D1*
X4139143Y2680067D1*
Y2684875D1*
X4136766Y2689628D1*
X4129581Y2692005D1*
X4120019D1*
X3596056Y3585581D2*
X3617556D1*
X3624741Y3588013D1*
X3627172Y3590390D1*
X3629549Y3595143D1*
Y3599951D1*
X3627172Y3604705D1*
X3624741Y3607137D1*
X3617556Y3609513D1*
X3596056D1*
Y3559273D1*
X3612802Y3585581D2*
X3629549Y3559273D1*
X3647420Y3597520D2*
Y3599896D1*
X3649797Y3604705D1*
X3652173Y3607081D1*
X3656982Y3609458D1*
X3666543D1*
X3671297Y3607081D1*
X3673673Y3604705D1*
X3676105Y3599896D1*
Y3595143D1*
X3673673Y3590335D1*
X3668920Y3583205D1*
X3644988Y3559273D1*
X3678482D1*
X3708291Y3609458D2*
X3701106Y3607081D1*
X3696297Y3599896D1*
X3693921Y3587958D1*
Y3580773D1*
X3696297Y3568835D1*
X3701106Y3561650D1*
X3708291Y3559273D1*
X3713044D1*
X3720229Y3561650D1*
X3724982Y3568835D1*
X3727414Y3580773D1*
Y3587958D1*
X3724982Y3599896D1*
X3720229Y3607081D1*
X3713044Y3609458D1*
X3708291D1*
X3724982Y3599896D2*
X3696297Y3568835D1*
X2637169Y3104980D2*
X2634793Y3109733D1*
X2629984Y3114541D1*
X2625231Y3116918D1*
X2615670D1*
X2610861Y3114541D1*
X2606108Y3109733D1*
X2603676Y3104980D1*
X2601300Y3097795D1*
Y3085801D1*
X2603676Y3078671D1*
X2606108Y3073863D1*
X2610861Y3069110D1*
X2615670Y3066678D1*
X2625231D1*
X2629984Y3069110D1*
X2634793Y3073863D1*
X2637169Y3078671D1*
X2662170Y3066678D2*
X2686102Y3116863D1*
X2652609D1*
X3607387Y3662613D2*
X3628887D1*
X3636072Y3665045D1*
X3638504Y3667421D1*
X3640880Y3672175D1*
Y3676983D1*
X3638504Y3681736D1*
X3636072Y3684168D1*
X3628887Y3686545D1*
X3607387D1*
Y3636305D1*
X3624134Y3662613D2*
X3640880Y3636305D1*
X3658751Y3674551D2*
Y3676928D1*
X3661128Y3681736D1*
X3663505Y3684113D1*
X3668313Y3686489D1*
X3677875D1*
X3682628Y3684113D1*
X3685004Y3681736D1*
X3687436Y3676928D1*
Y3672175D1*
X3685004Y3667366D1*
X3680251Y3660236D1*
X3656320Y3636305D1*
X3689813D1*
X3705252Y3676928D2*
X3710061Y3679360D1*
X3717246Y3686489D1*
Y3636305D1*
X4010056Y3413289D2*
Y3434789D1*
X4007625Y3441974D1*
X4005248Y3444406D1*
X4000495Y3446783D1*
X3995686D1*
X3990933Y3444406D1*
X3988501Y3441974D1*
X3986125Y3434789D1*
Y3413289D1*
X4036365D1*
X4010056Y3430036D2*
X4036365Y3446783D1*
X3998118Y3464654D2*
X3995742D1*
X3990933Y3467030D1*
X3988557Y3469407D1*
X3986180Y3474215D1*
Y3483777D1*
X3988557Y3488530D1*
X3990933Y3490907D1*
X3995742Y3493339D1*
X4000495D1*
X4005303Y3490907D1*
X4012433Y3486154D1*
X4036365Y3462222D1*
Y3495715D1*
X3998118Y3513586D2*
X3995742D1*
X3990933Y3515963D1*
X3988557Y3518339D1*
X3986180Y3523148D1*
Y3532710D1*
X3988557Y3537463D1*
X3990933Y3539839D1*
X3995742Y3542271D1*
X4000495D1*
X4005303Y3539839D1*
X4012433Y3535086D1*
X4036365Y3511154D1*
Y3544648D1*
X3151308Y3107183D2*
Y3128683D1*
X3148877Y3135868D1*
X3146500Y3138300D1*
X3141747Y3140676D1*
X3136938D1*
X3132185Y3138300D1*
X3129753Y3135868D1*
X3127377Y3128683D1*
Y3107183D1*
X3177617D1*
X3151308Y3123930D2*
X3177617Y3140676D1*
X3139370Y3158547D2*
X3136994D1*
X3132185Y3160924D1*
X3129809Y3163301D1*
X3127432Y3168109D1*
Y3177671D1*
X3129809Y3182424D1*
X3132185Y3184800D1*
X3136994Y3187232D1*
X3141747D1*
X3146555Y3184800D1*
X3153685Y3180047D1*
X3177617Y3156116D1*
Y3189609D1*
X3127432Y3209857D2*
Y3236110D1*
X3146555Y3221795D1*
Y3228980D1*
X3148932Y3233733D1*
X3151308Y3236110D1*
X3158493Y3238541D1*
X3163247D1*
X3170432Y3236110D1*
X3175240Y3231356D1*
X3177617Y3224171D1*
Y3216986D1*
X3175240Y3209857D1*
X3172808Y3207480D1*
X3168055Y3205048D1*
X3023598Y3363084D2*
X3021221Y3367837D1*
X3016413Y3372646D1*
X3011660Y3375022D1*
X3002098D1*
X2997290Y3372646D1*
X2992536Y3367837D1*
X2990105Y3363084D1*
X2987728Y3355899D1*
Y3343906D1*
X2990105Y3336776D1*
X2992536Y3331967D1*
X2997290Y3327214D1*
X3002098Y3324782D1*
X3011660D1*
X3016413Y3327214D1*
X3021221Y3331967D1*
X3023598Y3336776D1*
X3070154Y3358276D2*
X3067722Y3351091D1*
X3062969Y3346282D1*
X3055784Y3343906D1*
X3053407D1*
X3046222Y3346282D1*
X3041469Y3351091D1*
X3039037Y3358276D1*
Y3360652D1*
X3041469Y3367837D1*
X3046222Y3372590D1*
X3053407Y3374967D1*
X3055784D1*
X3062969Y3372590D1*
X3067722Y3367837D1*
X3070154Y3358276D1*
Y3346282D1*
X3067722Y3334344D1*
X3062969Y3327159D1*
X3055784Y3324782D1*
X3051031D1*
X3043846Y3327159D1*
X3041469Y3331967D1*
X3148214Y3517824D2*
Y3539324D1*
X3145782Y3546509D1*
X3143405Y3548941D1*
X3138652Y3551317D1*
X3133844D1*
X3129091Y3548941D1*
X3126659Y3546509D1*
X3124282Y3539324D1*
Y3517824D1*
X3174522D1*
X3148214Y3534571D2*
X3174522Y3551317D1*
X3136276Y3569189D2*
X3133899D1*
X3129091Y3571565D1*
X3126714Y3573942D1*
X3124338Y3578750D1*
Y3588312D1*
X3126714Y3593065D1*
X3129091Y3595442D1*
X3133899Y3597873D1*
X3138652D1*
X3143461Y3595442D1*
X3150591Y3590688D1*
X3174522Y3566757D1*
Y3600250D1*
Y3639621D2*
X3124337D1*
X3157776Y3615689D1*
Y3651559D1*
X2898647Y3555145D2*
X2893894Y3552768D1*
X2889085Y3547960D1*
X2886709Y3543207D1*
Y3533645D1*
X2889085Y3528837D1*
X2893894Y3524083D1*
X2898647Y3521651D1*
X2905832Y3519275D1*
X2917825D1*
X2924955Y3521651D1*
X2929764Y3524083D1*
X2934517Y3528837D1*
X2936949Y3533645D1*
Y3543207D1*
X2934517Y3547960D1*
X2929764Y3552768D1*
X2924955Y3555145D1*
X2896326Y3570584D2*
X2893894Y3575392D1*
X2886764Y3582577D1*
X2936949D1*
X2886764Y3612387D2*
X2889141Y3605202D1*
X2896326Y3600393D1*
X2908264Y3598017D1*
X2915449D1*
X2927387Y3600393D1*
X2934572Y3605202D1*
X2936949Y3612387D1*
Y3617140D1*
X2934572Y3624325D1*
X2927387Y3629078D1*
X2915449Y3631510D1*
X2908264D1*
X2896326Y3629078D1*
X2889141Y3624325D1*
X2886764Y3617140D1*
Y3612387D1*
X2896326Y3629078D2*
X2927387Y3600393D1*
X4166228Y3943296D2*
X4163851Y3948049D1*
X4159043Y3952858D1*
X4154290Y3955234D1*
X4144728D1*
X4139920Y3952858D1*
X4135166Y3948049D1*
X4132735Y3943296D1*
X4130358Y3936111D1*
Y3924117D1*
X4132735Y3916988D1*
X4135166Y3912179D1*
X4139920Y3907426D1*
X4144728Y3904994D1*
X4154290D1*
X4159043Y3907426D1*
X4163851Y3912179D1*
X4166228Y3916988D1*
X4181667Y3945617D2*
X4186476Y3948049D1*
X4193661Y3955179D1*
Y3904994D1*
X4209100Y3945617D2*
X4213908Y3948049D1*
X4221093Y3955179D1*
Y3904994D1*
X1099085Y4297062D2*
Y4258815D1*
X1096708Y4251630D1*
X1094276Y4249254D1*
X1089523Y4246822D1*
X1084715D1*
X1079962Y4249254D1*
X1077585Y4251630D1*
X1075153Y4258815D1*
Y4263568D1*
X1116956Y4285068D2*
Y4287445D1*
X1119333Y4292253D1*
X1121709Y4294630D1*
X1126518Y4297006D1*
X1136079D1*
X1140832Y4294630D1*
X1143209Y4292253D1*
X1145641Y4287445D1*
Y4282692D1*
X1143209Y4277883D1*
X1138456Y4270753D1*
X1114524Y4246822D1*
X1148017D1*
X1547212Y4291190D2*
Y4252944D1*
X1544835Y4245759D1*
X1542403Y4243382D1*
X1537650Y4240950D1*
X1532841D1*
X1528088Y4243382D1*
X1525712Y4245759D1*
X1523280Y4252944D1*
Y4257697D1*
X1586582Y4240950D2*
Y4291135D1*
X1562651Y4257697D1*
X1598521D1*
X3506296Y4251457D2*
Y4213210D1*
X3503919Y4206025D1*
X3501487Y4203649D1*
X3496734Y4201217D1*
X3491925D1*
X3487172Y4203649D1*
X3484796Y4206025D1*
X3482364Y4213210D1*
Y4217963D1*
X3550420Y4244272D2*
X3548043Y4249025D1*
X3540858Y4251401D1*
X3536105D1*
X3528920Y4249025D1*
X3524111Y4241840D1*
X3521735Y4229902D1*
Y4217963D1*
X3524111Y4208402D1*
X3528920Y4203593D1*
X3536105Y4201217D1*
X3538481D1*
X3545611Y4203593D1*
X3550420Y4208402D1*
X3552796Y4215587D1*
Y4217963D1*
X3550420Y4225148D1*
X3545611Y4229902D1*
X3538481Y4232278D1*
X3536105D1*
X3528920Y4229902D1*
X3524111Y4225148D1*
X3521735Y4217963D1*
X2406564Y4295853D2*
Y4257606D1*
X2404187Y4250421D1*
X2401755Y4248045D1*
X2397002Y4245613D1*
X2392194D1*
X2387441Y4248045D1*
X2385064Y4250421D1*
X2382632Y4257606D1*
Y4262360D1*
X2431565Y4245613D2*
X2455496Y4295798D1*
X2422003D1*
X2542773Y3870653D2*
X2538020Y3868276D1*
X2533211Y3863468D1*
X2530835Y3858714D1*
Y3849153D1*
X2533211Y3844344D1*
X2538020Y3839591D1*
X2542773Y3837159D1*
X2549958Y3834783D1*
X2561951D1*
X2569081Y3837159D1*
X2573890Y3839591D1*
X2578643Y3844344D1*
X2581075Y3849153D1*
Y3858714D1*
X2578643Y3863468D1*
X2573890Y3868276D1*
X2569081Y3870653D1*
X2540452Y3886092D2*
X2538020Y3890900D1*
X2530890Y3898085D1*
X2581075D1*
X2542828Y3915956D2*
X2540452D1*
X2535643Y3918333D1*
X2533267Y3920710D1*
X2530890Y3925518D1*
Y3935080D1*
X2533267Y3939833D1*
X2535643Y3942209D1*
X2540452Y3944641D1*
X2545205D1*
X2550013Y3942209D1*
X2557143Y3937456D1*
X2581075Y3913525D1*
Y3947018D1*
X515436Y3409098D2*
Y3430598D1*
X513004Y3437783D1*
X510627Y3440214D1*
X505874Y3442591D1*
X501066D1*
X496312Y3440215D1*
X493881Y3437783D1*
X491504Y3430598D1*
Y3409098D1*
X541744D1*
X515436Y3425844D2*
X541744Y3442591D1*
X503498Y3460462D2*
X501121D1*
X496312Y3462839D1*
X493936Y3465215D1*
X491559Y3470024D1*
Y3479585D1*
X493936Y3484339D1*
X496312Y3486715D1*
X501121Y3489147D1*
X505874D1*
X510683Y3486715D1*
X517812Y3481962D1*
X541744Y3458030D1*
Y3491524D1*
X491559Y3535648D2*
Y3511771D1*
X513059Y3509395D1*
X510683Y3511771D1*
X508251Y3518956D1*
Y3526086D1*
X510683Y3533271D1*
X515436Y3538080D1*
X522621Y3540456D1*
X527374D1*
X534559Y3538080D1*
X539367Y3533271D1*
X541744Y3526086D1*
Y3518956D1*
X539367Y3511771D1*
X536936Y3509395D1*
X532182Y3506963D1*
X1109749Y1663718D2*
Y1625471D1*
X1107372Y1618286D1*
X1104941Y1615910D1*
X1100187Y1613478D1*
X1095379D1*
X1090626Y1615910D1*
X1088249Y1618286D1*
X1085817Y1625471D1*
Y1630224D1*
X1137126Y1663663D2*
X1129997Y1661286D1*
X1127565Y1656533D1*
Y1651724D1*
X1129997Y1646971D1*
X1134750Y1644539D1*
X1144311Y1642163D1*
X1151497Y1639786D1*
X1156250Y1634978D1*
X1158626Y1630224D1*
Y1623039D1*
X1156250Y1618286D1*
X1153873Y1615854D1*
X1146688Y1613478D1*
X1137126D1*
X1129997Y1615854D1*
X1127565Y1618286D1*
X1125188Y1623039D1*
Y1630224D1*
X1127565Y1634978D1*
X1132373Y1639786D1*
X1139503Y1642163D1*
X1149065Y1644539D1*
X1153873Y1646971D1*
X1156250Y1651724D1*
Y1656533D1*
X1153873Y1661286D1*
X1146688Y1663663D1*
X1137126D1*
M02*
